<?xml version="1.0" standalone="no"?>
<!DOCTYPE svg PUBLIC "-//W3C//DTD SVG 1.1//EN" "http://www.w3.org/Graphics/SVG/1.1/DTD/svg11.dtd" >
<svg xmlns="http://www.w3.org/2000/svg" xmlns:xlink="http://www.w3.org/1999/xlink" version="1.1">
<metadata>
Created by FontForge 20170731 at Thu Oct 15 14:20:42 2015
 By Aleksey,,,
2005 published by Monotype GmbH
</metadata>
<defs>
<font id="DINPro-CondMedium" horiz-adv-x="376" >
  <font-face 
    font-family="DINPro-CondMedium"
    font-weight="500"
    font-stretch="condensed"
    units-per-em="1000"
    panose-1="2 11 6 6 2 2 1 1 1 4"
    ascent="764"
    descent="-236"
    x-height="518"
    cap-height="712"
    bbox="-164 -222 919 1068"
    underline-thickness="61"
    underline-position="-233"
    unicode-range="U+000D-FEFF"
  />
<missing-glyph horiz-adv-x="395" 
d="M338 712v-712h-281v712h281zM277 653h-159v-594h159v594z" />
    <glyph glyph-name=".notdef" horiz-adv-x="395" 
d="M338 712v-712h-281v712h281zM277 653h-159v-594h159v594z" />
    <glyph glyph-name=".null" horiz-adv-x="0" 
 />
    <glyph glyph-name=".null" horiz-adv-x="0" 
 />
    <glyph glyph-name="nonmarkingreturn" horiz-adv-x="333" 
 />
    <glyph glyph-name="CR" unicode="&#xd;" horiz-adv-x="187" 
 />
    <glyph glyph-name="space" unicode=" " horiz-adv-x="187" 
 />
    <glyph glyph-name="exclam" unicode="!" horiz-adv-x="242" 
d="M174 712v-519h-81v519h81zM183 99v-99h-99v99h99z" />
    <glyph glyph-name="quotedbl" unicode="&#x22;" horiz-adv-x="370" 
d="M315 712v-192h-84v192h84zM139 712v-192h-84v192h84z" />
    <glyph glyph-name="numbersign" unicode="#" horiz-adv-x="546" 
d="M456 712l-28 -200h71v-76h-82l-19 -145h72v-76h-84l-29 -215h-82l29 215h-105l-29 -215h-82l29 215h-70v76h82l19 145h-72v76h83l27 200h83l-27 -200h104l27 200h83zM335 436h-105l-19 -145h104z" />
    <glyph glyph-name="dollar" unicode="$" horiz-adv-x="434" 
d="M255 806v-90q55 -8 87 -39q47 -46 47 -146h-86q0 59 -22 86q-10 12 -26 19v-235l36 -15q59 -24 79.5 -66t20.5 -129q0 -110 -45 -155q-34 -34 -91 -41v-109h-77v108q-62 8 -96 42q-24 24 -34 58t-10 92h86q0 -68 24 -93q10 -12 30 -18v262l-38 16q-55 23 -76 60.5
t-21 117.5q0 97 54 146q33 30 81 39v90h77zM255 310v-234q17 6 27 18q23 25 23 95q0 54 -10 79.5t-40 41.5zM178 428v208q-14 -6 -24 -17q-25 -28 -25 -85q0 -47 9.5 -69t39.5 -37z" />
    <glyph glyph-name="percent" unicode="%" horiz-adv-x="675" 
d="M494 712l-247 -712h-64l246 712h65zM511 305q-45 0 -45 -51v-151q0 -51 45 -51t45 51v151q0 51 -45 51zM511 366q49 0 81 -29.5t32 -80.5v-154q0 -51 -32 -80.5t-81 -29.5t-81 29.5t-32 80.5v154q0 51 32 80.5t81 29.5zM163 720q49 0 81 -29.5t32 -80.5v-154
q0 -51 -32 -80.5t-81 -29.5t-80.5 29.5t-31.5 80.5v154q0 51 31.5 80.5t80.5 29.5zM163 660q-44 0 -44 -51v-151q0 -51 44 -51q45 0 45 51v151q0 51 -45 51z" />
    <glyph glyph-name="ampersand" unicode="&#x26;" horiz-adv-x="502" 
d="M206 719q67 0 103 -39.5t36 -102.5q0 -60 -23.5 -104t-76.5 -96l109 -165q31 59 38 150h72q-8 -128 -65 -221l90 -141h-87l-48 73q-35 -41 -70 -61t-85 -20q-71 0 -117 48t-46 129q0 61 27.5 112t87.5 108q-47 65 -64.5 101t-17.5 78q0 68 37.5 109.5t99.5 41.5zM313 137
l-122 187q-77 -77 -77 -148q0 -48 25 -79t67 -31q54 0 107 71zM207 646q-30 0 -46.5 -22t-16.5 -54q0 -45 60 -128q35 36 50.5 64t15.5 69q0 31 -17.5 51t-45.5 20z" />
    <glyph glyph-name="quotesingle" unicode="'" horiz-adv-x="194" 
d="M139 712v-192h-84v192h84z" />
    <glyph glyph-name="parenleft" unicode="(" horiz-adv-x="248" 
d="M152 806l55 -55q-43 -43 -54 -64q-15 -30 -15 -83v-496q0 -53 15 -83q11 -21 54 -64l-55 -55q-55 55 -73 88q-22 39 -22 108v508q0 69 22 108q18 33 73 88z" />
    <glyph glyph-name="parenright" unicode=")" horiz-adv-x="248" 
d="M96 -94l-55 55q43 43 54 64q15 30 15 83v496q0 53 -15 83q-11 21 -54 64l55 55q55 -55 73 -88q22 -39 22 -108v-508q0 -69 -22 -108q-18 -33 -73 -88z" />
    <glyph glyph-name="asterisk" unicode="*" horiz-adv-x="393" 
d="M227 713l-3 -126l92 57l30 -53l-96 -50l96 -51l-30 -52l-92 56l3 -126h-61l4 126l-93 -56l-30 52l95 51l-95 50l30 53l93 -57l-4 126h61z" />
    <glyph glyph-name="plus" unicode="+" horiz-adv-x="444" 
d="M261 459v-138h137v-77h-137v-137h-77v137h-138v77h138v138h77z" />
    <glyph glyph-name="comma" unicode="," horiz-adv-x="202" 
d="M147 100v-156l-92 -68v224h92z" />
    <glyph glyph-name="hyphen" unicode="-" horiz-adv-x="298" 
d="M247 321v-77h-196v77h196z" />
    <glyph glyph-name="period" unicode="." horiz-adv-x="209" 
d="M154 99v-99h-99v99h99z" />
    <glyph glyph-name="slash" unicode="/" horiz-adv-x="272" 
d="M268 786l-185 -860h-79l185 860h79z" />
    <glyph glyph-name="zero" unicode="0" horiz-adv-x="381" 
d="M190 720q63 0 103 -38q40 -40 40 -110v-432q0 -70 -40 -110q-40 -38 -103 -38q-62 0 -102 38q-40 40 -40 110v432q0 70 40 110q40 38 102 38zM190 647q-27 0 -44 -18.5t-17 -53.5v-438q0 -35 17 -53.5t44 -18.5t44.5 18.5t17.5 53.5v438q0 35 -17.5 53.5t-44.5 18.5z" />
    <glyph glyph-name="one" unicode="1" horiz-adv-x="381" 
d="M252 712v-712h-81v617l-104 -85v94l104 86h81z" />
    <glyph glyph-name="two" unicode="2" horiz-adv-x="381" 
d="M194 720q62 0 100 -36q42 -40 42 -112q0 -73 -41 -161l-159 -338h200v-73h-287v68l174 369q32 70 32 138q0 35 -17 53.5t-44 18.5t-44.5 -18.5t-17.5 -53.5v-48h-81v46q0 69 40 109q40 38 103 38z" />
    <glyph glyph-name="three" unicode="3" horiz-adv-x="381" 
d="M188 720q63 0 99 -36q41 -41 41 -148q0 -83 -18 -117q-14 -25 -40 -40q26 -17 41 -39q14 -23 18.5 -51.5t4.5 -88.5q0 -73 -8.5 -109t-34.5 -61q-40 -38 -103 -38q-66 0 -102 38q-41 38 -41 110v45h81v-48q0 -35 17.5 -53.5t44.5 -18.5q28 0 43 19q22 25 22 116
q0 63 -4.5 86.5t-16.5 38.5q-16 19 -44 19h-38v70h38q27 0 39 15q20 23 20 102q0 77 -18 99q-15 17 -41 17t-41.5 -18t-15.5 -52v-50h-81v46q0 71 39 110q39 37 99 37z" />
    <glyph glyph-name="four" unicode="4" horiz-adv-x="381" 
d="M289 712l-177 -522h110v163h81v-163h50v-73h-50v-117h-81v117h-193v73l182 522h78z" />
    <glyph glyph-name="five" unicode="5" horiz-adv-x="381" 
d="M337 228q0 -83 -8 -122.5t-36 -71.5q-37 -42 -102 -42q-64 0 -103 37q-41 41 -41 111v40h81v-40q0 -37 17.5 -56t45.5 -19q27 0 44 21q12 15 16 43.5t4 98.5q0 113 -19 141q-17 24 -45 24q-27 0 -45 -19.5t-18 -52.5v-24h-77v415h277v-73h-202v-221q12 19 35 33
q22 14 52 14q56 0 89 -41q20 -24 27.5 -65t7.5 -131z" />
    <glyph glyph-name="six" unicode="6" horiz-adv-x="381" 
d="M277 712l-115 -297q22 17 51 17q55 0 87 -41q20 -24 28 -60t8 -118q0 -75 -7.5 -111.5t-27.5 -61.5q-36 -48 -111 -48q-72 0 -109 48q-21 28 -28.5 64t-7.5 109q0 103 29 179l120 320h83zM191 364q-29 0 -44 -19q-21 -25 -21 -131t21 -130q15 -19 44 -19q27 0 44 19
q20 23 20 130q0 105 -20 131q-15 19 -44 19z" />
    <glyph glyph-name="seven" unicode="7" horiz-adv-x="381" 
d="M339 712v-67l-188 -645h-82l188 639h-138v-105h-79v178h299z" />
    <glyph glyph-name="eight" unicode="8" horiz-adv-x="381" 
d="M190 720q63 0 99 -37q24 -24 33 -57.5t9 -92.5q0 -79 -20 -116q-13 -23 -39 -41q27 -17 41 -40q14 -22 18.5 -50t4.5 -87q0 -70 -8 -105.5t-35 -62.5q-37 -39 -102 -39q-64 0 -103 39q-27 27 -35 62.5t-8 105.5q0 59 4.5 87t18.5 50q14 23 41 40q-26 18 -39 41
q-20 37 -20 116q0 59 9 92.5t33 57.5q37 37 98 37zM191 342q-28 0 -44 -19q-13 -15 -17 -39t-4 -82q0 -93 21 -118q15 -19 44 -19q27 0 43 19q21 25 21 118q0 58 -4 82t-17 39q-16 19 -43 19zM191 647q-24 0 -39 -15q-21 -22 -21 -103q0 -82 21 -104q14 -14 39 -14
q24 0 38 14q21 22 21 104q0 81 -21 103q-15 15 -38 15z" />
    <glyph glyph-name="nine" unicode="9" horiz-adv-x="381" 
d="M104 0l115 297q-22 -17 -51 -17q-55 0 -87 41q-20 24 -28 60t-8 118q0 75 7.5 111.5t27.5 61.5q36 48 111 48q72 0 109 -48q21 -28 28.5 -64t7.5 -109q0 -103 -29 -179l-120 -320h-83zM190 348q29 0 44 19q21 25 21 131t-21 130q-15 19 -44 19q-27 0 -44 -19
q-20 -23 -20 -130q0 -105 20 -131q15 -19 44 -19z" />
    <glyph glyph-name="colon" unicode=":" horiz-adv-x="242" 
d="M183 425v-99h-99v99h99zM183 99v-99h-99v99h99z" />
    <glyph glyph-name="semicolon" unicode=";" horiz-adv-x="242" 
d="M180 100v-156l-92 -68v224h92zM183 425v-99h-99v99h99z" />
    <glyph glyph-name="less" unicode="&#x3c;" horiz-adv-x="381" 
d="M347 501v-90l-216 -123l216 -123v-90l-313 182v61z" />
    <glyph glyph-name="equal" unicode="=" horiz-adv-x="444" 
d="M398 397v-77h-352v77h352zM398 235v-77h-352v77h352z" />
    <glyph glyph-name="greater" unicode="&#x3e;" horiz-adv-x="381" 
d="M34 411v90l313 -183v-61l-313 -182v90l216 123z" />
    <glyph glyph-name="question" unicode="?" horiz-adv-x="400" 
d="M208 718q69 0 110 -41q44 -44 44 -142q0 -74 -31 -119l-59 -85q-22 -32 -22 -70v-68h-81v78q0 42 28 84l58 85q26 38 26 97q0 62 -23 88q-18 20 -50 20q-29 0 -48 -19q-22 -23 -22 -82h-81q0 90 43 132q44 42 108 42zM259 99v-99h-99v99h99z" />
    <glyph glyph-name="at" unicode="@" horiz-adv-x="558" 
d="M198 712h151q68 0 108 -40q43 -43 43 -114v-558h-78v40q-11 -19 -32 -32q-26 -16 -56 -16q-55 0 -88 38q-31 34 -31 107v205q0 74 31 108q33 37 88 37q30 0 56 -15q19 -13 29 -28v106q0 93 -86 93h-119q-41 0 -63.5 -23.5t-22.5 -69.5v-431q0 -46 28 -73l-58 -57
q-51 47 -51 128v441q0 71 43 114q40 40 108 40zM358 415q-27 0 -44.5 -18.5t-17.5 -53.5v-206q0 -35 17.5 -53.5t44.5 -18.5t44 18.5t17 53.5v206q0 35 -17 53.5t-44 18.5z" />
    <glyph glyph-name="A" unicode="A" horiz-adv-x="425" 
d="M5 0l166 712h83l166 -712h-91l-34 168h-166l-34 -168h-90zM145 245h134l-67 328z" />
    <glyph glyph-name="B" unicode="B" horiz-adv-x="444" 
d="M64 712h153q88 0 130 -43q23 -24 32.5 -55.5t9.5 -88.5q0 -86 -42 -127q-17 -17 -40 -27q24 -7 44 -26q26 -25 34.5 -59t8.5 -86q0 -63 -10.5 -97t-35.5 -60q-42 -43 -131 -43h-153v712zM212 333h-62v-256h62q50 0 73 28.5t23 99.5q0 68 -23.5 98t-72.5 30zM213 635h-63
v-228h63q46 0 68 27t22 87q0 63 -21 88.5t-69 25.5z" />
    <glyph glyph-name="C" unicode="C" horiz-adv-x="423" 
d="M221 720q69 0 113 -42q49 -48 51 -141h-85q-2 55 -23 81q-20 25 -56 25q-39 0 -59 -27q-18 -25 -23.5 -77t-5.5 -183t5.5 -183t23.5 -77q20 -27 59 -27q36 0 56 25q21 28 23 82h85q-2 -97 -54 -145q-44 -39 -110 -39q-77 0 -122 52q-34 39 -43 98t-9 214t9 214t43 98
q45 52 122 52z" />
    <glyph glyph-name="D" unicode="D" horiz-adv-x="448" 
d="M64 712h164q77 0 122 -50q33 -35 42 -94.5t9 -211.5t-9 -211.5t-42 -94.5q-45 -50 -122 -50h-164v712zM225 635h-75v-558h75q39 0 61 27q19 24 24 72t5 180t-5 180t-24 72q-22 27 -61 27z" />
    <glyph glyph-name="E" unicode="E" horiz-adv-x="380" 
d="M339 712v-77h-189v-234h163v-77h-163v-247h189v-77h-275v712h275z" />
    <glyph glyph-name="F" unicode="F" horiz-adv-x="375" 
d="M339 712v-77h-189v-239h163v-77h-163v-319h-86v712h275z" />
    <glyph glyph-name="G" unicode="G" horiz-adv-x="434" 
d="M221 720q71 0 115 -44q47 -47 49 -140h-85q-2 107 -79 107q-39 0 -59 -27q-18 -25 -23.5 -77t-5.5 -183t5.5 -183t23.5 -77q20 -27 59 -27q37 0 58 27.5t21 71.5v143h-79v71h165v-211q0 -86 -46 -132.5t-119 -46.5q-75 0 -122 52q-33 37 -42.5 97.5t-9.5 214.5t9.5 214.5
t42.5 97.5q47 52 122 52z" />
    <glyph glyph-name="H" unicode="H" horiz-adv-x="458" 
d="M394 712v-712h-86v324h-158v-324h-86v712h86v-311h158v311h86z" />
    <glyph glyph-name="I" unicode="I" horiz-adv-x="214" 
d="M150 712v-712h-86v712h86z" />
    <glyph glyph-name="J" unicode="J" horiz-adv-x="361" 
d="M303 712v-542q0 -84 -45 -130q-46 -48 -126 -48q-78 0 -127 54l61 57q25 -34 66 -34q37 0 61 26.5t24 74.5v542h86z" />
    <glyph glyph-name="K" unicode="K" horiz-adv-x="446" 
d="M410 712l-144 -294l165 -418h-93l-126 322l-62 -123v-199h-86v712h86v-361l172 361h88z" />
    <glyph glyph-name="L" unicode="L" horiz-adv-x="361" 
d="M150 712v-635h189v-77h-275v712h86z" />
    <glyph glyph-name="M" unicode="M" horiz-adv-x="577" 
d="M513 712v-712h-86v507l-113 -333h-53l-111 325v-499h-86v712h81l144 -396l143 396h81z" />
    <glyph glyph-name="N" unicode="N" horiz-adv-x="476" 
d="M412 712v-712h-78l-184 487v-487h-86v712h80l182 -487v487h86z" />
    <glyph glyph-name="O" unicode="O" horiz-adv-x="442" 
d="M221 -8q-77 0 -122 52q-33 38 -42.5 99t-9.5 213t9.5 213t42.5 99q45 52 122 52q78 0 123 -52q33 -37 42 -97.5t9 -214.5t-9 -214.5t-42 -97.5q-45 -52 -123 -52zM221 69q39 0 58 27q19 25 24.5 76.5t5.5 183.5t-5.5 183.5t-24.5 76.5q-19 27 -58 27t-58 -27
q-19 -25 -24.5 -76.5t-5.5 -183.5t5.5 -183.5t24.5 -76.5q19 -27 58 -27z" />
    <glyph glyph-name="P" unicode="P" horiz-adv-x="435" 
d="M64 712h160q85 0 127 -47t42 -161q0 -112 -42.5 -159.5t-126.5 -47.5h-74v-297h-86v712zM221 635h-71v-261h71q44 0 65 30t21 100q0 71 -21 101t-65 30z" />
    <glyph glyph-name="Q" unicode="Q" horiz-adv-x="442" 
d="M221 720q75 0 122 -52q33 -37 42.5 -97.5t9.5 -214.5q0 -129 -6 -188.5t-25 -94.5l57 -48l-41 -49l-58 49q-41 -33 -101 -33q-75 0 -122 52q-33 37 -42.5 97.5t-9.5 214.5t9.5 214.5t42.5 97.5q47 52 122 52zM221 643q-39 0 -59 -27q-18 -25 -23.5 -77t-5.5 -183
t5.5 -183t23.5 -77q20 -27 59 -27q23 0 38 9l-48 40l41 48l43 -36q14 50 14 226q0 130 -6 182.5t-24 77.5q-20 27 -58 27z" />
    <glyph glyph-name="R" unicode="R" horiz-adv-x="455" 
d="M64 712h161q85 0 126.5 -45.5t41.5 -157.5q0 -75 -20 -120t-66 -66l109 -323h-91l-98 306h-77v-306h-86v712zM226 635h-76v-253h76q46 0 63.5 32t17.5 95t-17.5 94.5t-63.5 31.5z" />
    <glyph glyph-name="S" unicode="S" horiz-adv-x="420" 
d="M210 718q75 0 118 -41q47 -46 47 -146h-86q0 59 -22 86q-19 24 -58 24q-35 0 -55 -22q-25 -28 -25 -85q0 -53 13 -75t55 -40l80 -33q59 -24 79.5 -66t20.5 -129q0 -111 -44 -155q-45 -43 -126 -43q-82 0 -125 43q-24 24 -34 58t-10 92h86q0 -68 24 -93q20 -22 59 -22
q40 0 61 23q23 25 23 95q0 62 -13.5 87.5t-56.5 43.5l-81 33q-55 23 -76 60.5t-21 117.5q0 97 54 146q44 41 113 41z" />
    <glyph glyph-name="T" unicode="T" horiz-adv-x="367" 
d="M346 712v-77h-119v-635h-86v635h-120v77h325z" />
    <glyph glyph-name="U" unicode="U" horiz-adv-x="446" 
d="M388 712v-549q0 -78 -46 -124q-45 -47 -119 -47q-73 0 -120 47q-45 47 -45 124v549h86v-546q0 -97 79 -97q37 0 58 25t21 72v546h86z" />
    <glyph glyph-name="V" unicode="V" horiz-adv-x="392" 
d="M4 712h94l98 -573l98 573h94l-148 -712h-88z" />
    <glyph glyph-name="W" unicode="W" horiz-adv-x="652" 
d="M4 712h94l74 -573l108 573h92l109 -573l73 573h94l-123 -712h-87l-112 573l-111 -573h-87z" />
    <glyph glyph-name="X" unicode="X" horiz-adv-x="403" 
d="M377 712l-129 -342l140 -370h-94l-93 282l-92 -282h-94l136 370l-125 342h94l81 -260l82 260h94z" />
    <glyph glyph-name="Y" unicode="Y" horiz-adv-x="353" 
d="M351 712l-132 -424v-288h-86v288l-131 424h94l80 -304l80 304h95z" />
    <glyph glyph-name="Z" unicode="Z" horiz-adv-x="349" 
d="M318 712v-65l-197 -570h197v-77h-287v65l198 570h-185v77h274z" />
    <glyph glyph-name="bracketleft" unicode="[" horiz-adv-x="258" 
d="M229 786v-71h-91v-718h91v-71h-172v860h172z" />
    <glyph glyph-name="backslash" unicode="\" horiz-adv-x="272" 
d="M83 786l185 -860h-79l-185 860h79z" />
    <glyph glyph-name="bracketright" unicode="]" horiz-adv-x="258" 
d="M29 -74v71h91v718h-91v71h172v-860h-172z" />
    <glyph glyph-name="asciicircum" unicode="^" horiz-adv-x="444" 
d="M258 717l134 -281h-80l-90 199l-90 -199h-81l134 281h73z" />
    <glyph glyph-name="underscore" unicode="_" horiz-adv-x="444" 
d="M444 -83v-61h-444v61h444z" />
    <glyph glyph-name="grave" unicode="`" 
d="M157 721l69 -135h-62l-81 135h74z" />
    <glyph glyph-name="a" unicode="a" horiz-adv-x="375" 
d="M180 526q65 0 101 -36q41 -43 41 -114v-376h-77v46q-12 -20 -30 -35q-25 -19 -61 -19q-54 0 -89 39q-33 38 -33 116q0 76 46 117q40 35 110 35h53v82q0 74 -61 74q-23 0 -40 -17q-19 -20 -19 -60h-81q0 70 40 110q38 38 100 38zM241 240h-46q-38 0 -58 -19
q-24 -22 -24 -71q0 -87 63 -87q29 0 47 22.5t18 58.5v96z" />
    <glyph glyph-name="b" unicode="b" horiz-adv-x="388" 
d="M138 712v-230q11 16 29 28q23 16 56 16q54 0 86 -38q24 -27 31 -77.5t7 -151.5t-7 -151t-31 -77q-33 -39 -86 -39q-30 0 -56 16q-22 15 -31 32v-40h-79v712h81zM200 454q-25 0 -42 -17q-20 -20 -20 -59v-237q0 -40 20 -60q17 -17 42 -17q27 0 44 22q13 16 17 52.5
t4 120.5t-4 120.5t-17 52.5q-17 22 -44 22z" />
    <glyph glyph-name="c" unicode="c" horiz-adv-x="364" 
d="M41 259q0 87 8 138.5t30 80.5q36 48 109 48q65 0 101 -35q40 -38 42 -117h-81q0 41 -16 60q-17 20 -45 20q-29 0 -46 -22q-13 -18 -17 -56t-4 -117t4 -117t17 -56q17 -22 46 -22q28 0 45 20q16 19 16 60h81q-2 -79 -42 -117q-36 -35 -101 -35q-73 0 -109 48
q-22 29 -30 80.5t-8 138.5z" />
    <glyph glyph-name="d" unicode="d" horiz-adv-x="388" 
d="M78 30q-24 28 -31 78t-7 151q0 102 7 151.5t31 77.5q32 38 86 38q33 0 56 -16q18 -12 29 -28v230h81v-712h-79v40q-9 -17 -31 -32q-26 -16 -56 -16q-52 0 -86 38zM229 81q20 20 20 60v237q0 39 -20 59q-17 17 -42 17q-27 0 -44 -22q-14 -16 -18 -52t-4 -121t4 -121
t18 -52q17 -22 44 -22q25 0 42 17z" />
    <glyph glyph-name="e" unicode="e" 
d="M335 240h-213q0 -126 21 -153q15 -22 46 -22q29 0 46 20t17 60h81q-1 -72 -42 -115q-37 -38 -102 -38q-66 0 -103 40q-27 29 -36.5 83t-9.5 144q0 91 9 144.5t36 82.5q37 40 102 40t102 -40q28 -29 37 -85t9 -161zM253 301q0 107 -20 131q-16 21 -46 21q-29 0 -45 -21
q-20 -24 -20 -131h131z" />
    <glyph glyph-name="f" unicode="f" horiz-adv-x="254" 
d="M237 716v-73q-80 0 -80 -78v-47h80v-63h-80v-455h-81v455h-59v63h59v50q0 78 45 115q39 33 116 33z" />
    <glyph glyph-name="g" unicode="g" horiz-adv-x="387" 
d="M166 526q34 0 56 -16q15 -10 30 -28v36h78v-536q0 -100 -42 -145q-37 -39 -102 -39t-103 37q-40 40 -40 112h81q0 -43 18 -62q13 -16 44 -16q28 0 44 18q19 20 19 91v75q-11 -17 -28 -29q-23 -17 -55 -17q-51 0 -84 39q-24 27 -32.5 75t-8.5 146t8.5 146t32.5 76
q33 37 84 37zM187 454q-25 0 -44 -22q-13 -16 -17 -50t-4 -116t4 -116t17 -50q19 -21 44 -21t43 16q19 19 19 60v223q0 40 -19 59q-17 17 -43 17z" />
    <glyph glyph-name="h" unicode="h" horiz-adv-x="395" 
d="M138 712v-231q12 19 29 29q26 16 56 16q55 0 88 -38q31 -34 31 -107v-381h-81v381q0 35 -17.5 54t-44.5 19t-44 -19t-17 -54v-381h-81v712h81z" />
    <glyph glyph-name="i" unicode="i" horiz-adv-x="195" 
d="M138 518v-518h-81v518h81zM145 704v-94h-95v94h95z" />
    <glyph glyph-name="j" unicode="j" horiz-adv-x="195" 
d="M138 518v-564q0 -78 -46 -116q-38 -32 -113 -32v73q39 0 58.5 18t19.5 60v561h81zM145 704v-94h-95v94h95z" />
    <glyph glyph-name="k" unicode="k" horiz-adv-x="396" 
d="M138 712v-440l147 246h86l-126 -202l138 -316h-90l-99 244l-56 -89v-155h-81v712h81z" />
    <glyph glyph-name="l" unicode="l" horiz-adv-x="228" 
d="M134 712v-561q0 -78 77 -78v-73q-74 0 -112 32q-46 38 -46 116v564h81z" />
    <glyph glyph-name="m" unicode="m" horiz-adv-x="599" 
d="M423 526q60 0 93 -38q30 -33 30 -107v-381h-81v381q0 34 -17.5 53.5t-43.5 19.5q-27 0 -44.5 -19.5t-17.5 -53.5v-381h-81v381q0 34 -17.5 53.5t-44.5 19.5q-26 0 -43.5 -19.5t-17.5 -53.5v-381h-81v518h78v-40q11 19 32 32q26 16 56 16t56.5 -15t42.5 -39q20 26 42 38
q28 16 59 16z" />
    <glyph glyph-name="n" unicode="n" horiz-adv-x="395" 
d="M223 526q55 0 88 -38q31 -34 31 -107v-381h-81v381q0 34 -17.5 53.5t-44.5 19.5q-26 0 -43.5 -19.5t-17.5 -53.5v-381h-81v518h78v-40q11 19 32 32q26 16 56 16z" />
    <glyph glyph-name="o" unicode="o" 
d="M188 526q74 0 110 -48q22 -29 29.5 -80t7.5 -139t-7.5 -139t-29.5 -80q-36 -48 -110 -48q-73 0 -109 48q-22 29 -30 80.5t-8 138.5t8 138.5t30 80.5q36 48 109 48zM188 454q-29 0 -45 -23q-13 -18 -17 -56t-4 -116t4 -116t17 -56q16 -23 45 -23q30 0 46 23q13 18 16.5 55
t3.5 117t-3.5 117t-16.5 55q-16 23 -46 23z" />
    <glyph glyph-name="p" unicode="p" horiz-adv-x="388" 
d="M309 488q24 -28 31 -78t7 -151q0 -102 -7 -151.5t-31 -77.5q-32 -38 -86 -38q-33 0 -56 16q-18 12 -29 28v-230h-81v712h79v-40q9 17 31 32q26 16 56 16q52 0 86 -38zM158 437q-20 -20 -20 -60v-237q0 -39 20 -59q17 -17 42 -17q27 0 44 22q14 16 18 52t4 121t-4 121
t-18 52q-17 22 -44 22q-25 0 -42 -17z" />
    <glyph glyph-name="q" unicode="q" horiz-adv-x="388" 
d="M165 526q30 0 56 -16q22 -15 31 -32v40h79v-712h-81v230q-11 -16 -29 -28q-23 -16 -56 -16q-54 0 -86 38q-24 28 -31 77.5t-7 151.5q0 101 7 151t31 78q34 38 86 38zM188 454q-27 0 -44 -22q-14 -16 -18 -52t-4 -121t4 -121t18 -52q17 -22 44 -22q25 0 42 17q20 20 20 59
v237q0 40 -20 60q-17 17 -42 17z" />
    <glyph glyph-name="r" unicode="r" horiz-adv-x="272" 
d="M256 526v-78h-24q-42 0 -68 -25.5t-26 -69.5v-353h-81v518h78v-55q11 20 36 37q37 26 85 26z" />
    <glyph glyph-name="s" unicode="s" horiz-adv-x="359" 
d="M179 526q64 0 101 -37q42 -40 42 -114h-80q0 42 -19 62q-17 18 -44 18q-28 0 -45 -17q-19 -19 -19 -50q0 -22 9 -38q11 -19 43 -34l66 -33q52 -25 73 -59q22 -33 22 -83q0 -64 -44 -108q-40 -41 -106 -41t-104 40q-44 45 -44 114h80q0 -40 22 -63q18 -18 46 -18
q30 0 49 19q20 20 20 52q0 27 -13 47t-46 37l-67 34q-50 25 -71 60q-16 28 -16 68q0 62 43 105q39 39 102 39z" />
    <glyph glyph-name="t" unicode="t" horiz-adv-x="260" 
d="M240 0q-81 0 -119 32q-45 37 -45 116v307h-59v63h59v142h81v-142h80v-63h-80v-304q0 -78 83 -78v-73z" />
    <glyph glyph-name="u" unicode="u" horiz-adv-x="395" 
d="M338 518v-518h-78v40q-11 -19 -32 -32q-26 -16 -56 -16q-55 0 -88 38q-31 34 -31 107v381h81v-381q0 -34 17.5 -53.5t44.5 -19.5q26 0 43.5 19.5t17.5 53.5v381h81z" />
    <glyph glyph-name="v" unicode="v" horiz-adv-x="343" 
d="M4 518h89l79 -386l78 386h89l-125 -518h-85z" />
    <glyph glyph-name="w" unicode="w" horiz-adv-x="526" 
d="M4 518h89l60 -385l73 385h70l75 -385l61 385h90l-109 -518h-79l-73 374l-71 -374h-79z" />
    <glyph glyph-name="x" unicode="x" horiz-adv-x="356" 
d="M130 264l-111 254h89l70 -178l70 178h89l-113 -254l119 -264h-89l-77 184l-75 -184h-89z" />
    <glyph glyph-name="y" unicode="y" horiz-adv-x="343" 
d="M339 518l-146 -601q-15 -65 -57.5 -88t-114.5 -23v72q40 0 62 13t31 47l16 63l-126 517h89l79 -389l78 389h89z" />
    <glyph glyph-name="z" unicode="z" horiz-adv-x="301" 
d="M277 518v-62l-163 -383h163v-73h-253v62l163 384h-152v72h242z" />
    <glyph glyph-name="braceleft" unicode="{" horiz-adv-x="319" 
d="M286 786v-73h-28q-25 0 -41.5 -17.5t-16.5 -48.5v-186q0 -56 -29 -85q-14 -14 -33 -20q19 -6 33 -20q29 -27 29 -85v-186q0 -31 16.5 -48.5t41.5 -17.5h28v-73h-42q-55 0 -90 35t-35 100v192q0 31 -16 49t-41 18h-29v72h29q25 0 41 18t16 49v192q0 65 35 100t90 35h42z
" />
    <glyph glyph-name="bar" unicode="|" horiz-adv-x="291" 
d="M186 786v-860h-81v860h81z" />
    <glyph glyph-name="braceright" unicode="}" horiz-adv-x="319" 
d="M33 -74v73h28q25 0 41.5 17.5t16.5 48.5v186q0 56 29 85q14 14 33 20q-19 6 -33 20q-29 27 -29 85v186q0 31 -16.5 48.5t-41.5 17.5h-28v73h42q55 0 90 -35t35 -100v-192q0 -31 16 -49t41 -18h29v-72h-29q-25 0 -41 -18t-16 -49v-192q0 -65 -35 -100t-90 -35h-42z" />
    <glyph glyph-name="asciitilde" unicode="~" horiz-adv-x="444" 
d="M147 344q34 0 82 -24q44 -20 66 -20q31 0 65 34l50 -49q-30 -30 -55 -45t-58 -15q-32 0 -80 23q-42 21 -67 21q-33 0 -66 -33l-49 48q29 29 54 44.5t58 15.5z" />
    <glyph glyph-name="uni00A0" unicode="&#xa0;" horiz-adv-x="187" 
 />
    <glyph glyph-name="exclamdown" unicode="&#xa1;" horiz-adv-x="242" 
d="M68 -194v519h81v-519h-81zM59 419v99h99v-99h-99z" />
    <glyph glyph-name="cent" unicode="&#xa2;" horiz-adv-x="367" 
d="M222 712v-99q43 -6 69 -31q39 -37 41 -113h-80q0 40 -16 58q-8 8 -14 11v-355q12 9 13 10q17 18 17 57h80q-2 -73 -40 -110q-26 -24 -70 -32v-108h-63v107q-49 8 -78 44q-22 27 -29.5 76t-7.5 133t7.5 133t29.5 76q29 36 78 44v99h63zM159 183v354q-6 -3 -14 -13
q-13 -17 -16.5 -52t-3.5 -112t3.5 -112t16.5 -52q8 -10 14 -13z" />
    <glyph glyph-name="sterling" unicode="&#xa3;" horiz-adv-x="427" 
d="M268 720q77 0 127 -53l-60 -57q-26 33 -67 33q-36 0 -60.5 -26.5t-24.5 -70.5v-146h85v-62h-85v-261h212v-77h-298v338h-64v62h64v144q0 81 49 128.5t122 47.5z" />
    <glyph glyph-name="currency" unicode="&#xa4;" horiz-adv-x="493" 
d="M398 485l50 -50l-54 -54q32 -46 32 -98q0 -54 -32 -98l54 -54l-50 -50l-56 55q-38 -28 -95 -28q-58 0 -96 28l-57 -55l-50 50l55 54q-32 46 -32 98q0 53 32 97l-55 55l50 50l57 -56q39 29 96 29q56 0 95 -29zM246 388q-43 0 -73.5 -30.5t-30.5 -74.5t30.5 -75t73.5 -31
q42 0 73 31.5t31 74.5t-31 74t-73 31z" />
    <glyph glyph-name="yen" unicode="&#xa5;" horiz-adv-x="353" 
d="M133 188h-89v63h89v37l-15 52h-74v63h53l-95 309h94l80 -304l80 304h95l-96 -309h53v-63h-73l-16 -52v-37h89v-63h-89v-188h-86v188z" />
    <glyph glyph-name="brokenbar" unicode="&#xa6;" horiz-adv-x="291" 
d="M186 785v-348h-81v348h81zM186 275v-348h-81v348h81z" />
    <glyph glyph-name="section" unicode="&#xa7;" horiz-adv-x="409" 
d="M206 712q57 0 96 -33q44 -38 46 -109h-82q0 32 -18 53q-17 17 -42 17q-27 0 -43 -16q-19 -18 -19 -48q0 -26 10 -43q11 -19 41 -34l69 -34q34 -15 52 -33q26 -27 33.5 -58t7.5 -103q0 -65 -8.5 -97.5t-35.5 -56.5q-19 -17 -40 -20q43 -28 57 -53q19 -31 19 -77
q0 -66 -41 -107q-39 -40 -106 -40q-64 0 -104 40q-40 42 -42 105h83q0 -32 19 -54q16 -18 44 -18q30 0 47 18q17 19 17 51q0 28 -12 45q-12 20 -45 36l-69 34q-27 14 -44 29q-28 28 -36 62.5t-8 102.5q0 63 9 94.5t36 56.5q17 17 40 20q-42 26 -59 55t-17 73q0 61 42 103
q37 39 103 39zM205 402q-27 0 -47 -17q-14 -13 -19.5 -36.5t-5.5 -77.5q0 -90 25 -114q20 -18 47 -18q28 0 46 18q14 14 19.5 37.5t5.5 76.5t-5 76t-20 37q-18 18 -46 18z" />
    <glyph glyph-name="dieresis" unicode="&#xa8;" 
d="M151 684v-82h-82v82h82zM308 684v-82h-82v82h82z" />
    <glyph glyph-name="copyright" unicode="&#xa9;" horiz-adv-x="852" 
d="M426 718q150 0 256 -106t106 -256t-106 -256t-256 -106t-256 106t-106 256t106 256t256 106zM428 559q41 0 68 -27q29 -29 30 -86h-54q0 36 -13 50q-10 13 -31 13t-33 -16q-16 -21 -16 -137q0 -117 16 -138q12 -16 33 -16t31 13q13 14 13 50h54q-1 -57 -30 -86
q-27 -27 -68 -27q-46 0 -74 33q-17 20 -23 58.5t-6 112.5t6 112t23 58q28 33 74 33zM426 665q-127 0 -215 -89.5t-88 -219.5t88 -219.5t215 -89.5q128 0 216 89.5t88 219.5t-88 219.5t-216 89.5z" />
    <glyph glyph-name="ordfeminine" unicode="&#xaa;" horiz-adv-x="314" 
d="M151 716q53 0 83 -30q34 -34 34 -90v-289h-64v33q-8 -12 -26 -25q-22 -13 -48 -13q-46 0 -74 31q-27 29 -27 89q0 58 40 92q30 27 89 27h42v60q0 56 -49 56q-22 0 -34 -14q-14 -14 -14 -47h-68q0 56 34 89q31 31 82 31zM200 491h-37q-32 0 -46 -13q-20 -20 -20 -53
q0 -65 51 -65q23 0 37.5 18.5t14.5 47.5v65z" />
    <glyph glyph-name="guillemotleft" unicode="&#xab;" horiz-adv-x="391" 
d="M341 501v-127l-69 -102l69 -103v-127l-148 230zM174 501v-127l-68 -102l68 -103v-127l-148 230z" />
    <glyph glyph-name="logicalnot" unicode="&#xac;" horiz-adv-x="444" 
d="M394 330v-184h-77v107h-267v77h344z" />
    <glyph glyph-name="uni00AD" unicode="&#xad;" horiz-adv-x="298" 
d="M247 321v-77h-196v77h196z" />
    <glyph glyph-name="registered" unicode="&#xae;" horiz-adv-x="852" 
d="M426 718q150 0 256 -106t106 -256t-106 -256t-256 -106t-256 106t-106 256t106 256t256 106zM426 665q-127 0 -215 -89.5t-88 -219.5t88 -219.5t215 -89.5q128 0 216 89.5t88 219.5t-88 219.5t-216 89.5zM335 554h102q44 0 68 -24q27 -27 27 -91q0 -62 -26 -88
q-8 -8 -20 -15l58 -179h-56l-52 168h-47v-168h-54v397zM437 504h-48v-130h48q17 0 28 11q13 14 13 54q0 41 -12 54q-11 11 -29 11z" />
    <glyph glyph-name="macron" unicode="&#xaf;" 
d="M303 665v-57h-229v57h229z" />
    <glyph glyph-name="degree" unicode="&#xb0;" horiz-adv-x="396" 
d="M198 723q62 0 105.5 -43.5t43.5 -104.5t-43.5 -105t-105.5 -44t-105.5 44t-43.5 105t43.5 104.5t105.5 43.5zM198 653q-33 0 -55 -22t-22 -56t22 -56.5t55 -22.5t55 22.5t22 56.5q0 33 -22 55.5t-55 22.5z" />
    <glyph glyph-name="plusminus" unicode="&#xb1;" horiz-adv-x="444" 
d="M261 505v-137h137v-77h-137v-137h-77v137h-138v77h138v137h77zM398 91v-77h-352v77h352z" />
    <glyph glyph-name="twosuperior" unicode="&#xb2;" horiz-adv-x="171" 
d="M21 469l75 138q17 28 17 49q0 28 -26 28q-27 0 -27 -29v-18h-40v18q0 29 16 47t51 18q32 0 50 -18q16 -16 16 -47q0 -22 -22 -61l-67 -124h89v-36h-132v35z" />
    <glyph glyph-name="threesuperior" unicode="&#xb3;" horiz-adv-x="173" 
d="M87 720q32 0 47 -15q19 -18 19 -64q0 -29 -8 -41q-7 -12 -19 -16q16 -9 20 -16q9 -16 9 -53q0 -51 -20 -71q-16 -15 -49 -15q-34 0 -49 17q-18 18 -18 46v16h40v-16q0 -27 27 -27q13 0 21 8q8 10 8 42q0 36 -10 46q-6 7 -19 7h-15v32h15q14 0 20 7q6 9 6 34q0 28 -7 36
q-6 7 -18 7q-25 0 -25 -28v-18h-41v17q0 29 18 49q15 16 48 16z" />
    <glyph glyph-name="acute" unicode="&#xb4;" 
d="M290 721l-81 -135h-61l68 135h74z" />
    <glyph glyph-name="mu" unicode="&#xb5;" horiz-adv-x="399" 
d="M342 518v-518h-79v40q-8 -15 -22 -28q-21 -16 -46 -16q-38 0 -60 32v-222h-78v712h81v-381q0 -35 17 -53.5t44 -18.5q28 0 45 18.5t17 53.5v381h81z" />
    <glyph glyph-name="paragraph" unicode="&#xb6;" horiz-adv-x="570" 
d="M512 712v-906h-81v830h-111v-830h-81v490h-54q-144 0 -144 208t144 208h327z" />
    <glyph glyph-name="periodcentered" unicode="&#xb7;" horiz-adv-x="266" 
d="M182 332v-99h-99v99h99z" />
    <glyph glyph-name="cedilla" unicode="&#xb8;" 
d="M223 -38l-50 -144h-64l57 144h57z" />
    <glyph glyph-name="onesuperior" unicode="&#xb9;" horiz-adv-x="170" 
d="M118 716v-282h-40v232l-51 -42v50l50 42h41z" />
    <glyph glyph-name="ordmasculine" unicode="&#xba;" horiz-adv-x="305" 
d="M149 716q57 0 88 -38q31 -40 31 -170q0 -132 -31 -170q-29 -37 -88 -37q-60 0 -89 37q-31 38 -31 170q0 130 31 170q31 38 89 38zM149 656q-24 0 -36 -17q-16 -22 -16 -131t16 -131q12 -16 36 -16q22 0 34 16q17 24 17 131t-17 131q-12 17 -34 17z" />
    <glyph glyph-name="guillemotright" unicode="&#xbb;" horiz-adv-x="391" 
d="M50 48v127l69 102l-69 103v127l148 -230zM217 48v127l68 102l-68 103v127l148 -230z" />
    <glyph glyph-name="onequarter" unicode="&#xbc;" horiz-adv-x="658" 
d="M483 712l-247 -712h-64l246 712h65zM558 65h-128v48l110 314h57l-109 -314h70v99h52v-99h31v-48h-31v-65h-52v65zM165 712v-427h-53v365l-72 -57v61l72 58h53z" />
    <glyph glyph-name="onehalf" unicode="&#xbd;" horiz-adv-x="656" 
d="M483 712l-247 -712h-64l246 712h65zM442 46l110 220q24 50 24 77q0 41 -41 41q-39 0 -39 -45v-27h-54v28q0 45 28 70q23 22 65 22t66 -22q28 -25 28 -69q0 -33 -30 -93l-100 -200h129v-48h-186v46zM165 712v-427h-53v365l-72 -57v61l72 58h53z" />
    <glyph glyph-name="threequarters" unicode="&#xbe;" horiz-adv-x="658" 
d="M483 712l-247 -712h-64l246 712h65zM558 65h-128v48l110 314h57l-109 -314h70v99h52v-99h31v-48h-31v-65h-52v65zM119 717q39 0 64 -23q28 -25 28 -91q0 -51 -12 -68q-11 -15 -28 -22q18 -8 28 -24q15 -21 15 -83q0 -45 -5.5 -66.5t-21.5 -36.5q-23 -23 -65 -23t-67 22
q-28 27 -28 70v23h54v-25q0 -20 11 -31t29 -11q20 0 29 12q11 12 11 66q0 59 -11 72q-10 12 -27 12h-22v45h21q14 0 25 9q11 11 11 56q0 48 -11 59q-10 10 -27 10q-16 0 -26 -11t-10 -31v-29h-55v27q0 41 27 68q24 24 63 24z" />
    <glyph glyph-name="questiondown" unicode="&#xbf;" horiz-adv-x="400" 
d="M192 -200q-69 0 -110 41q-44 44 -44 142q0 74 31 119l59 85q22 32 22 70v68h81v-78q0 -42 -28 -84l-58 -85q-26 -38 -26 -97q0 -62 23 -88q18 -20 50 -20q29 0 48 19q22 23 22 82h81q0 -90 -43 -132q-44 -42 -108 -42zM141 419v99h99v-99h-99z" />
    <glyph glyph-name="Agrave" unicode="&#xc0;" horiz-adv-x="425" 
d="M5 0l166 712h83l166 -712h-91l-34 168h-166l-34 -168h-90zM145 245h134l-67 328zM181 897l69 -135h-62l-81 135h74z" />
    <glyph glyph-name="Aacute" unicode="&#xc1;" horiz-adv-x="425" 
d="M5 0l166 712h83l166 -712h-91l-34 168h-166l-34 -168h-90zM145 245h134l-67 328zM319 897l-81 -135h-62l69 135h74z" />
    <glyph glyph-name="Acircumflex" unicode="&#xc2;" horiz-adv-x="425" 
d="M5 0l166 712h83l166 -712h-91l-34 168h-166l-34 -168h-90zM145 245h134l-67 328zM246 897l93 -135h-66l-60 87l-60 -87h-66l93 135h66z" />
    <glyph glyph-name="Atilde" unicode="&#xc3;" horiz-adv-x="425" 
d="M5 0l166 712h83l166 -712h-91l-34 168h-166l-34 -168h-90zM145 245h134l-67 328zM161 861q30 0 56 -17q28 -16 45 -16q21 0 44 23l38 -37q-42 -42 -80 -42q-29 0 -57 16q-30 16 -44 16q-20 0 -45 -23l-36 37q42 43 79 43z" />
    <glyph glyph-name="Adieresis" unicode="&#xc4;" horiz-adv-x="425" 
d="M5 0l166 712h83l166 -712h-91l-34 168h-166l-34 -168h-90zM145 245h134l-67 328zM332 858v-81h-82v81h82zM176 858v-81h-82v81h82z" />
    <glyph glyph-name="Aring" unicode="&#xc5;" horiz-adv-x="425" 
d="M5 0l166 712h83l166 -712h-91l-34 168h-166l-34 -168h-90zM145 245h134l-67 328zM213 948q41 0 69.5 -29t28.5 -69t-28.5 -69t-69.5 -29t-69.5 29t-28.5 69t28.5 69t69.5 29zM213 899q-20 0 -34.5 -14.5t-14.5 -34.5t14.5 -34.5t34.5 -14.5t34.5 14.5t14.5 34.5
t-14.5 34.5t-34.5 14.5z" />
    <glyph glyph-name="AE" unicode="&#xc6;" horiz-adv-x="640" 
d="M599 712v-77h-189v-234h163v-77h-163v-247h189v-77h-275v172h-163l-61 -172h-95l263 712h331zM324 635l-136 -385h136v385z" />
    <glyph glyph-name="Ccedilla" unicode="&#xc7;" horiz-adv-x="423" 
d="M221 720q69 0 113 -42q49 -48 51 -141h-85q-2 55 -23 81q-20 25 -56 25q-39 0 -59 -27q-18 -25 -23.5 -77t-5.5 -183t5.5 -183t23.5 -77q20 -27 59 -27q36 0 56 25q21 28 23 82h85q-2 -97 -54 -145q-44 -39 -110 -39q-77 0 -122 52q-34 39 -43 98t-9 214t9 214t43 98
q45 52 122 52zM247 -38l-50 -144h-64l57 144h57z" />
    <glyph glyph-name="Egrave" unicode="&#xc8;" horiz-adv-x="380" 
d="M339 712v-77h-189v-234h163v-77h-163v-247h189v-77h-275v712h275zM173 897l69 -135h-62l-81 135h74z" />
    <glyph glyph-name="Eacute" unicode="&#xc9;" horiz-adv-x="380" 
d="M339 712v-77h-189v-234h163v-77h-163v-247h189v-77h-275v712h275zM311 897l-81 -135h-62l69 135h74z" />
    <glyph glyph-name="Ecircumflex" unicode="&#xca;" horiz-adv-x="380" 
d="M339 712v-77h-189v-234h163v-77h-163v-247h189v-77h-275v712h275zM238 897l93 -135h-66l-60 87l-60 -87h-66l93 135h66z" />
    <glyph glyph-name="Edieresis" unicode="&#xcb;" horiz-adv-x="380" 
d="M339 712v-77h-189v-234h163v-77h-163v-247h189v-77h-275v712h275zM324 858v-81h-82v81h82zM168 858v-81h-82v81h82z" />
    <glyph glyph-name="Igrave" unicode="&#xcc;" horiz-adv-x="214" 
d="M150 712v-712h-86v712h86zM76 897l69 -135h-62l-81 135h74z" />
    <glyph glyph-name="Iacute" unicode="&#xcd;" horiz-adv-x="214" 
d="M150 712v-712h-86v712h86zM214 897l-81 -135h-62l69 135h74z" />
    <glyph glyph-name="Icircumflex" unicode="&#xce;" horiz-adv-x="214" 
d="M150 712v-712h-86v712h86zM141 897l93 -135h-66l-60 87l-60 -87h-66l93 135h66z" />
    <glyph glyph-name="Idieresis" unicode="&#xcf;" horiz-adv-x="214" 
d="M150 712v-712h-86v712h86zM227 858v-81h-82v81h82zM71 858v-81h-82v81h82z" />
    <glyph glyph-name="Eth" unicode="&#xd0;" horiz-adv-x="461" 
d="M77 712h164q77 0 122 -50q33 -35 42 -94.5t9 -211.5t-9 -211.5t-42 -94.5q-45 -50 -122 -50h-164v328h-52v69h52v315zM238 635h-75v-238h81v-69h-81v-251h75q39 0 61 27q19 24 24 72t5 180t-5 180t-24 72q-22 27 -61 27z" />
    <glyph glyph-name="Ntilde" unicode="&#xd1;" horiz-adv-x="476" 
d="M412 712v-712h-78l-184 487v-487h-86v712h80l182 -487v487h86zM186 861q30 0 56 -17q28 -16 45 -16q21 0 44 23l38 -37q-42 -42 -80 -42q-29 0 -57 16q-30 16 -44 16q-20 0 -45 -23l-36 37q42 43 79 43z" />
    <glyph glyph-name="Ograve" unicode="&#xd2;" horiz-adv-x="442" 
d="M221 -8q-77 0 -122 52q-33 38 -42.5 99t-9.5 213t9.5 213t42.5 99q45 52 122 52q78 0 123 -52q33 -37 42 -97.5t9 -214.5t-9 -214.5t-42 -97.5q-45 -52 -123 -52zM221 69q39 0 58 27q19 25 24.5 76.5t5.5 183.5t-5.5 183.5t-24.5 76.5q-19 27 -58 27t-58 -27
q-19 -25 -24.5 -76.5t-5.5 -183.5t5.5 -183.5t24.5 -76.5q19 -27 58 -27zM189 897l69 -135h-62l-81 135h74z" />
    <glyph glyph-name="Oacute" unicode="&#xd3;" horiz-adv-x="442" 
d="M221 -8q-77 0 -122 52q-33 38 -42.5 99t-9.5 213t9.5 213t42.5 99q45 52 122 52q78 0 123 -52q33 -37 42 -97.5t9 -214.5t-9 -214.5t-42 -97.5q-45 -52 -123 -52zM221 69q39 0 58 27q19 25 24.5 76.5t5.5 183.5t-5.5 183.5t-24.5 76.5q-19 27 -58 27t-58 -27
q-19 -25 -24.5 -76.5t-5.5 -183.5t5.5 -183.5t24.5 -76.5q19 -27 58 -27zM327 897l-81 -135h-62l69 135h74z" />
    <glyph glyph-name="Ocircumflex" unicode="&#xd4;" horiz-adv-x="442" 
d="M221 -8q-77 0 -122 52q-33 38 -42.5 99t-9.5 213t9.5 213t42.5 99q45 52 122 52q78 0 123 -52q33 -37 42 -97.5t9 -214.5t-9 -214.5t-42 -97.5q-45 -52 -123 -52zM221 69q39 0 58 27q19 25 24.5 76.5t5.5 183.5t-5.5 183.5t-24.5 76.5q-19 27 -58 27t-58 -27
q-19 -25 -24.5 -76.5t-5.5 -183.5t5.5 -183.5t24.5 -76.5q19 -27 58 -27zM254 897l93 -135h-66l-60 87l-60 -87h-66l93 135h66z" />
    <glyph glyph-name="Otilde" unicode="&#xd5;" horiz-adv-x="442" 
d="M221 -8q-77 0 -122 52q-33 38 -42.5 99t-9.5 213t9.5 213t42.5 99q45 52 122 52q78 0 123 -52q33 -37 42 -97.5t9 -214.5t-9 -214.5t-42 -97.5q-45 -52 -123 -52zM221 69q39 0 58 27q19 25 24.5 76.5t5.5 183.5t-5.5 183.5t-24.5 76.5q-19 27 -58 27t-58 -27
q-19 -25 -24.5 -76.5t-5.5 -183.5t5.5 -183.5t24.5 -76.5q19 -27 58 -27zM169 861q30 0 56 -17q28 -16 45 -16q21 0 44 23l38 -37q-42 -42 -80 -42q-29 0 -57 16q-30 16 -44 16q-20 0 -45 -23l-36 37q42 43 79 43z" />
    <glyph glyph-name="Odieresis" unicode="&#xd6;" horiz-adv-x="442" 
d="M221 -8q-77 0 -122 52q-33 38 -42.5 99t-9.5 213t9.5 213t42.5 99q45 52 122 52q78 0 123 -52q33 -37 42 -97.5t9 -214.5t-9 -214.5t-42 -97.5q-45 -52 -123 -52zM221 69q39 0 58 27q19 25 24.5 76.5t5.5 183.5t-5.5 183.5t-24.5 76.5q-19 27 -58 27t-58 -27
q-19 -25 -24.5 -76.5t-5.5 -183.5t5.5 -183.5t24.5 -76.5q19 -27 58 -27zM340 858v-81h-82v81h82zM184 858v-81h-82v81h82z" />
    <glyph glyph-name="multiply" unicode="&#xd7;" horiz-adv-x="444" 
d="M339 447l52 -53l-116 -116l116 -117l-52 -52l-117 116l-116 -116l-53 52l117 117l-117 116l53 53l116 -117z" />
    <glyph glyph-name="Oslash" unicode="&#xd8;" horiz-adv-x="442" 
d="M384 756l-32 -97q27 -36 35 -98t8 -205q0 -154 -9.5 -214.5t-42.5 -97.5q-47 -52 -122 -52q-49 0 -83 20l-19 -56h-62l34 96q-28 36 -36 98t-8 206q0 154 9.5 214.5t42.5 97.5q47 52 122 52q48 0 83 -20l18 56h62zM301 531l-136 -440q19 -22 56 -22q38 0 58 27
q19 25 24.5 76.5t5.5 183.5q0 135 -8 175zM221 643q-39 0 -59 -27q-18 -25 -23.5 -77t-5.5 -183q0 -135 8 -176l136 441q-20 22 -56 22z" />
    <glyph glyph-name="Ugrave" unicode="&#xd9;" horiz-adv-x="446" 
d="M388 712v-549q0 -78 -46 -124q-45 -47 -119 -47q-73 0 -120 47q-45 47 -45 124v549h86v-546q0 -97 79 -97q37 0 58 25t21 72v546h86zM191 897l69 -135h-62l-81 135h74z" />
    <glyph glyph-name="Uacute" unicode="&#xda;" horiz-adv-x="446" 
d="M388 712v-549q0 -78 -46 -124q-45 -47 -119 -47q-73 0 -120 47q-45 47 -45 124v549h86v-546q0 -97 79 -97q37 0 58 25t21 72v546h86zM329 897l-81 -135h-62l69 135h74z" />
    <glyph glyph-name="Ucircumflex" unicode="&#xdb;" horiz-adv-x="446" 
d="M388 712v-549q0 -78 -46 -124q-45 -47 -119 -47q-73 0 -120 47q-45 47 -45 124v549h86v-546q0 -97 79 -97q37 0 58 25t21 72v546h86zM256 897l93 -135h-66l-60 87l-60 -87h-66l93 135h66z" />
    <glyph glyph-name="Udieresis" unicode="&#xdc;" horiz-adv-x="446" 
d="M388 712v-549q0 -78 -46 -124q-45 -47 -119 -47q-73 0 -120 47q-45 47 -45 124v549h86v-546q0 -97 79 -97q37 0 58 25t21 72v546h86zM342 858v-81h-82v81h82zM186 858v-81h-82v81h82z" />
    <glyph glyph-name="Yacute" unicode="&#xdd;" horiz-adv-x="353" 
d="M351 712l-132 -424v-288h-86v288l-131 424h94l80 -304l80 304h95zM282 897l-81 -135h-62l69 135h74z" />
    <glyph glyph-name="Thorn" unicode="&#xde;" horiz-adv-x="435" 
d="M150 712v-144h74q85 0 127 -47t42 -161t-42 -161t-127 -47h-74v-152h-86v712h86zM223 490h-73v-261h73q43 0 63.5 30.5t20.5 100.5t-20.5 100t-63.5 30z" />
    <glyph glyph-name="germandbls" unicode="&#xdf;" horiz-adv-x="394" 
d="M200 720q66 0 104 -38q25 -25 33.5 -55t8.5 -76q0 -68 -18 -100q-12 -22 -36 -40q19 -10 35 -33q17 -23 22.5 -56t5.5 -103q0 -74 -7.5 -114t-36.5 -68q-37 -37 -110 -37v73q34 0 52 19q12 15 16.5 43t4.5 90q0 101 -20 129q-15 21 -45 21h-8v69h7q23 0 38 17
q19 23 19 84q0 59 -19 82q-15 20 -45 20q-28 0 -45.5 -19t-17.5 -55v-573h-81v571q0 71 41 110q39 39 102 39z" />
    <glyph glyph-name="agrave" unicode="&#xe0;" horiz-adv-x="375" 
d="M180 526q65 0 101 -36q41 -43 41 -114v-376h-77v46q-12 -20 -30 -35q-25 -19 -61 -19q-54 0 -89 39q-33 38 -33 116q0 76 46 117q40 35 110 35h53v82q0 74 -61 74q-23 0 -40 -17q-19 -20 -19 -60h-81q0 70 40 110q38 38 100 38zM241 240h-46q-38 0 -58 -19
q-24 -22 -24 -71q0 -87 63 -87q29 0 47 22.5t18 58.5v96zM153 721l69 -135h-62l-81 135h74z" />
    <glyph glyph-name="aacute" unicode="&#xe1;" horiz-adv-x="375" 
d="M180 526q65 0 101 -36q41 -43 41 -114v-376h-77v46q-12 -20 -30 -35q-25 -19 -61 -19q-54 0 -89 39q-33 38 -33 116q0 76 46 117q40 35 110 35h53v82q0 74 -61 74q-23 0 -40 -17q-19 -20 -19 -60h-81q0 70 40 110q38 38 100 38zM241 240h-46q-38 0 -58 -19
q-24 -22 -24 -71q0 -87 63 -87q29 0 47 22.5t18 58.5v96zM286 721l-81 -135h-61l68 135h74z" />
    <glyph glyph-name="acircumflex" unicode="&#xe2;" horiz-adv-x="375" 
d="M180 526q65 0 101 -36q41 -43 41 -114v-376h-77v46q-12 -20 -30 -35q-25 -19 -61 -19q-54 0 -89 39q-33 38 -33 116q0 76 46 117q40 35 110 35h53v82q0 74 -61 74q-23 0 -40 -17q-19 -20 -19 -60h-81q0 70 40 110q38 38 100 38zM241 240h-46q-38 0 -58 -19
q-24 -22 -24 -71q0 -87 63 -87q29 0 47 22.5t18 58.5v96zM217 721l93 -135h-67l-60 87l-59 -87h-67l93 135h67z" />
    <glyph glyph-name="atilde" unicode="&#xe3;" horiz-adv-x="375" 
d="M180 526q65 0 101 -36q41 -43 41 -114v-376h-77v46q-12 -20 -30 -35q-25 -19 -61 -19q-54 0 -89 39q-33 38 -33 116q0 76 46 117q40 35 110 35h53v82q0 74 -61 74q-23 0 -40 -17q-19 -20 -19 -60h-81q0 70 40 110q38 38 100 38zM241 240h-46q-38 0 -58 -19
q-24 -22 -24 -71q0 -87 63 -87q29 0 47 22.5t18 58.5v96zM134 685q30 0 58 -17q25 -15 43 -15q21 0 44 23l38 -38q-43 -42 -80 -42q-27 0 -58 17q-25 15 -43 15q-22 0 -45 -23l-36 38q42 42 79 42z" />
    <glyph glyph-name="adieresis" unicode="&#xe4;" horiz-adv-x="375" 
d="M180 526q65 0 101 -36q41 -43 41 -114v-376h-77v46q-12 -20 -30 -35q-25 -19 -61 -19q-54 0 -89 39q-33 38 -33 116q0 76 46 117q40 35 110 35h53v82q0 74 -61 74q-23 0 -40 -17q-19 -20 -19 -60h-81q0 70 40 110q38 38 100 38zM241 240h-46q-38 0 -58 -19
q-24 -22 -24 -71q0 -87 63 -87q29 0 47 22.5t18 58.5v96zM146 684v-82h-82v82h82zM303 684v-82h-82v82h82z" />
    <glyph glyph-name="aring" unicode="&#xe5;" horiz-adv-x="375" 
d="M180 526q65 0 101 -36q41 -43 41 -114v-376h-77v46q-12 -20 -30 -35q-25 -19 -61 -19q-54 0 -89 39q-33 38 -33 116q0 76 46 117q40 35 110 35h53v82q0 74 -61 74q-23 0 -40 -17q-19 -20 -19 -60h-81q0 70 40 110q38 38 100 38zM241 240h-46q-38 0 -58 -19
q-24 -22 -24 -71q0 -87 63 -87q29 0 47 22.5t18 58.5v96zM183 779q41 0 69.5 -28.5t28.5 -69.5t-28.5 -69.5t-69.5 -28.5q-40 0 -68.5 29t-28.5 69t28.5 69t68.5 29zM183 730q-20 0 -34.5 -14.5t-14.5 -34.5t14.5 -34.5t34.5 -14.5t35 14.5t15 34.5t-15 34.5t-35 14.5z" />
    <glyph glyph-name="ae" unicode="&#xe6;" horiz-adv-x="576" 
d="M154 -8q-54 0 -89 39q-33 38 -33 116q0 76 46 117q40 35 110 35h53v82q0 74 -61 74q-23 0 -40 -17q-19 -20 -19 -60h-81q0 70 40 110q38 38 100 38q54 0 85 -26q10 -8 20 -22q3 5 15 17q36 31 88 31q63 0 102 -40q27 -29 36 -84.5t9 -161.5h-213q0 -126 21 -153
q17 -22 46 -22q28 0 46 20q18 19 18 60h80q-2 -71 -41 -115q-37 -38 -103 -38q-50 0 -86 28q-20 16 -36 44q-19 -34 -39 -49q-30 -23 -74 -23zM322 301h131q0 107 -20 131q-16 21 -46 21q-29 0 -45 -21q-20 -24 -20 -131zM176 63q29 0 47 22.5t18 58.5v96h-46q-38 0 -58 -19
q-24 -22 -24 -71q0 -87 63 -87z" />
    <glyph glyph-name="ccedilla" unicode="&#xe7;" horiz-adv-x="364" 
d="M41 259q0 87 8 138.5t30 80.5q36 48 109 48q65 0 101 -35q40 -38 42 -117h-81q0 41 -16 60q-17 20 -45 20q-29 0 -46 -22q-13 -18 -17 -56t-4 -117t4 -117t17 -56q17 -22 46 -22q28 0 45 20q16 19 16 60h81q-2 -79 -42 -117q-36 -35 -101 -35q-73 0 -109 48
q-22 29 -30 80.5t-8 138.5zM223 -38l-50 -144h-64l57 144h57z" />
    <glyph glyph-name="egrave" unicode="&#xe8;" 
d="M335 240h-213q0 -126 21 -153q15 -22 46 -22q29 0 46 20t17 60h81q-1 -72 -42 -115q-37 -38 -102 -38q-66 0 -103 40q-27 29 -36.5 83t-9.5 144q0 91 9 144.5t36 82.5q37 40 102 40t102 -40q28 -29 37 -85t9 -161zM253 301q0 107 -20 131q-16 21 -46 21q-29 0 -45 -21
q-20 -24 -20 -131h131zM157 721l69 -135h-62l-81 135h74z" />
    <glyph glyph-name="eacute" unicode="&#xe9;" 
d="M335 240h-213q0 -126 21 -153q15 -22 46 -22q29 0 46 20t17 60h81q-1 -72 -42 -115q-37 -38 -102 -38q-66 0 -103 40q-27 29 -36.5 83t-9.5 144q0 91 9 144.5t36 82.5q37 40 102 40t102 -40q28 -29 37 -85t9 -161zM253 301q0 107 -20 131q-16 21 -46 21q-29 0 -45 -21
q-20 -24 -20 -131h131zM290 721l-81 -135h-61l68 135h74z" />
    <glyph glyph-name="ecircumflex" unicode="&#xea;" 
d="M335 240h-213q0 -126 21 -153q15 -22 46 -22q29 0 46 20t17 60h81q-1 -72 -42 -115q-37 -38 -102 -38q-66 0 -103 40q-27 29 -36.5 83t-9.5 144q0 91 9 144.5t36 82.5q37 40 102 40t102 -40q28 -29 37 -85t9 -161zM253 301q0 107 -20 131q-16 21 -46 21q-29 0 -45 -21
q-20 -24 -20 -131h131zM221 721l93 -135h-67l-60 87l-59 -87h-67l93 135h67z" />
    <glyph glyph-name="edieresis" unicode="&#xeb;" 
d="M335 240h-213q0 -126 21 -153q15 -22 46 -22q29 0 46 20t17 60h81q-1 -72 -42 -115q-37 -38 -102 -38q-66 0 -103 40q-27 29 -36.5 83t-9.5 144q0 91 9 144.5t36 82.5q37 40 102 40t102 -40q28 -29 37 -85t9 -161zM253 301q0 107 -20 131q-16 21 -46 21q-29 0 -45 -21
q-20 -24 -20 -131h131zM150 684v-82h-82v82h82zM307 684v-82h-82v82h82z" />
    <glyph glyph-name="igrave" unicode="&#xec;" horiz-adv-x="195" 
d="M138 518v-518h-81v518h81zM67 721l69 -135h-62l-81 135h74z" />
    <glyph glyph-name="iacute" unicode="&#xed;" horiz-adv-x="195" 
d="M138 518v-518h-81v518h81zM200 721l-81 -135h-61l68 135h74z" />
    <glyph glyph-name="icircumflex" unicode="&#xee;" horiz-adv-x="195" 
d="M138 518v-518h-81v518h81zM131 721l93 -135h-67l-60 87l-59 -87h-67l93 135h67z" />
    <glyph glyph-name="idieresis" unicode="&#xef;" horiz-adv-x="195" 
d="M138 518v-518h-81v518h81zM60 684v-82h-82v82h82zM217 684v-82h-82v82h82z" />
    <glyph glyph-name="eth" unicode="&#xf0;" 
d="M79 37q-39 48 -39 209q0 94 7.5 142.5t30.5 74.5q34 37 89 37q32 0 58 -16l-31 92h-78v60h58l-27 76h82l27 -76h71v-60h-52l35 -109q24 -76 24 -221q0 -84 -8 -133t-30 -76q-37 -45 -109 -45q-71 0 -108 45zM233 86q13 17 16.5 51t3.5 110q0 77 -3.5 111t-16.5 51
q-16 21 -46 21q-29 0 -45 -21q-13 -17 -17 -52t-4 -110q0 -74 4 -109t17 -52q17 -22 45 -22q29 0 46 22z" />
    <glyph glyph-name="ntilde" unicode="&#xf1;" horiz-adv-x="395" 
d="M223 526q55 0 88 -38q31 -34 31 -107v-381h-81v381q0 34 -17.5 53.5t-44.5 19.5q-26 0 -43.5 -19.5t-17.5 -53.5v-381h-81v518h78v-40q11 19 32 32q26 16 56 16zM150 685q30 0 58 -17q25 -15 43 -15q21 0 44 23l38 -38q-43 -42 -80 -42q-27 0 -58 17q-25 15 -43 15
q-22 0 -45 -23l-36 38q42 42 79 42z" />
    <glyph glyph-name="ograve" unicode="&#xf2;" 
d="M188 526q74 0 110 -48q22 -29 29.5 -80t7.5 -139t-7.5 -139t-29.5 -80q-36 -48 -110 -48q-73 0 -109 48q-22 29 -30 80.5t-8 138.5t8 138.5t30 80.5q36 48 109 48zM188 454q-29 0 -45 -23q-13 -18 -17 -56t-4 -116t4 -116t17 -56q16 -23 45 -23q30 0 46 23q13 18 16.5 55
t3.5 117t-3.5 117t-16.5 55q-16 23 -46 23zM157 721l69 -135h-62l-81 135h74z" />
    <glyph glyph-name="oacute" unicode="&#xf3;" 
d="M188 526q74 0 110 -48q22 -29 29.5 -80t7.5 -139t-7.5 -139t-29.5 -80q-36 -48 -110 -48q-73 0 -109 48q-22 29 -30 80.5t-8 138.5t8 138.5t30 80.5q36 48 109 48zM188 454q-29 0 -45 -23q-13 -18 -17 -56t-4 -116t4 -116t17 -56q16 -23 45 -23q30 0 46 23q13 18 16.5 55
t3.5 117t-3.5 117t-16.5 55q-16 23 -46 23zM290 721l-81 -135h-61l68 135h74z" />
    <glyph glyph-name="ocircumflex" unicode="&#xf4;" 
d="M188 526q74 0 110 -48q22 -29 29.5 -80t7.5 -139t-7.5 -139t-29.5 -80q-36 -48 -110 -48q-73 0 -109 48q-22 29 -30 80.5t-8 138.5t8 138.5t30 80.5q36 48 109 48zM188 454q-29 0 -45 -23q-13 -18 -17 -56t-4 -116t4 -116t17 -56q16 -23 45 -23q30 0 46 23q13 18 16.5 55
t3.5 117t-3.5 117t-16.5 55q-16 23 -46 23zM221 721l93 -135h-67l-60 87l-59 -87h-67l93 135h67z" />
    <glyph glyph-name="otilde" unicode="&#xf5;" 
d="M188 526q74 0 110 -48q22 -29 29.5 -80t7.5 -139t-7.5 -139t-29.5 -80q-36 -48 -110 -48q-73 0 -109 48q-22 29 -30 80.5t-8 138.5t8 138.5t30 80.5q36 48 109 48zM188 454q-29 0 -45 -23q-13 -18 -17 -56t-4 -116t4 -116t17 -56q16 -23 45 -23q30 0 46 23q13 18 16.5 55
t3.5 117t-3.5 117t-16.5 55q-16 23 -46 23zM138 685q30 0 58 -17q25 -15 43 -15q21 0 44 23l38 -38q-43 -42 -80 -42q-27 0 -58 17q-25 15 -43 15q-22 0 -45 -23l-36 38q42 42 79 42z" />
    <glyph glyph-name="odieresis" unicode="&#xf6;" 
d="M188 526q74 0 110 -48q22 -29 29.5 -80t7.5 -139t-7.5 -139t-29.5 -80q-36 -48 -110 -48q-73 0 -109 48q-22 29 -30 80.5t-8 138.5t8 138.5t30 80.5q36 48 109 48zM188 454q-29 0 -45 -23q-13 -18 -17 -56t-4 -116t4 -116t17 -56q16 -23 45 -23q30 0 46 23q13 18 16.5 55
t3.5 117t-3.5 117t-16.5 55q-16 23 -46 23zM150 684v-82h-82v82h82zM307 684v-82h-82v82h82z" />
    <glyph glyph-name="divide" unicode="&#xf7;" horiz-adv-x="444" 
d="M398 316v-78h-352v78h352zM273 160v-100h-100v100h100zM273 493v-99h-100v99h100z" />
    <glyph glyph-name="oslash" unicode="&#xf8;" horiz-adv-x="375" 
d="M36 -44l36 92q-32 50 -32 211q0 87 8 138.5t30 80.5q36 48 109 48q42 0 73 -16l21 52h58l-37 -91q32 -48 32 -212q0 -88 -7.5 -139t-29.5 -80q-36 -48 -110 -48q-42 0 -73 16l-20 -52h-58zM187 64q30 0 46 23q13 18 16.5 55t3.5 117q0 77 -2 104l-105 -280q16 -19 41 -19
zM124 156l105 280q-16 18 -42 18q-29 0 -45 -23q-13 -18 -17 -56t-4 -116q0 -76 3 -103z" />
    <glyph glyph-name="ugrave" unicode="&#xf9;" horiz-adv-x="395" 
d="M338 518v-518h-78v40q-11 -19 -32 -32q-26 -16 -56 -16q-55 0 -88 38q-31 34 -31 107v381h81v-381q0 -34 17.5 -53.5t44.5 -19.5q26 0 43.5 19.5t17.5 53.5v381h81zM165 721l69 -135h-62l-81 135h74z" />
    <glyph glyph-name="uacute" unicode="&#xfa;" horiz-adv-x="395" 
d="M338 518v-518h-78v40q-11 -19 -32 -32q-26 -16 -56 -16q-55 0 -88 38q-31 34 -31 107v381h81v-381q0 -34 17.5 -53.5t44.5 -19.5q26 0 43.5 19.5t17.5 53.5v381h81zM298 721l-81 -135h-61l68 135h74z" />
    <glyph glyph-name="ucircumflex" unicode="&#xfb;" horiz-adv-x="395" 
d="M338 518v-518h-78v40q-11 -19 -32 -32q-26 -16 -56 -16q-55 0 -88 38q-31 34 -31 107v381h81v-381q0 -34 17.5 -53.5t44.5 -19.5q26 0 43.5 19.5t17.5 53.5v381h81zM229 721l93 -135h-67l-60 87l-59 -87h-67l93 135h67z" />
    <glyph glyph-name="udieresis" unicode="&#xfc;" horiz-adv-x="395" 
d="M338 518v-518h-78v40q-11 -19 -32 -32q-26 -16 -56 -16q-55 0 -88 38q-31 34 -31 107v381h81v-381q0 -34 17.5 -53.5t44.5 -19.5q26 0 43.5 19.5t17.5 53.5v381h81zM158 684v-82h-82v82h82zM315 684v-82h-82v82h82z" />
    <glyph glyph-name="yacute" unicode="&#xfd;" horiz-adv-x="343" 
d="M339 518l-146 -601q-15 -65 -57.5 -88t-114.5 -23v72q40 0 62 13t31 47l16 63l-126 517h89l79 -389l78 389h89zM273 721l-81 -135h-61l68 135h74z" />
    <glyph glyph-name="thorn" unicode="&#xfe;" horiz-adv-x="388" 
d="M309 488q24 -28 31 -78t7 -151q0 -102 -7 -151.5t-31 -77.5q-32 -38 -86 -38q-33 0 -56 16q-18 12 -29 28v-230h-81v906h79v-234q9 17 31 32q26 16 56 16q52 0 86 -38zM158 437q-20 -20 -20 -60v-237q0 -39 20 -59q17 -17 42 -17q27 0 44 22q14 16 18 52t4 121t-4 121
t-18 52q-17 22 -44 22q-25 0 -42 -17z" />
    <glyph glyph-name="ydieresis" unicode="&#xff;" horiz-adv-x="343" 
d="M339 518l-146 -601q-15 -65 -57.5 -88t-114.5 -23v72q40 0 62 13t31 47l16 63l-126 517h89l79 -389l78 389h89zM133 684v-82h-82v82h82zM290 684v-82h-82v82h82z" />
    <glyph glyph-name="Amacron" unicode="&#x100;" horiz-adv-x="425" 
d="M5 0l166 712h83l166 -712h-91l-34 168h-166l-34 -168h-90zM145 245h134l-67 328zM327 838v-58h-228v58h228z" />
    <glyph glyph-name="amacron" unicode="&#x101;" horiz-adv-x="375" 
d="M180 526q65 0 101 -36q41 -43 41 -114v-376h-77v46q-12 -20 -30 -35q-25 -19 -61 -19q-54 0 -89 39q-33 38 -33 116q0 76 46 117q40 35 110 35h53v82q0 74 -61 74q-23 0 -40 -17q-19 -20 -19 -60h-81q0 70 40 110q38 38 100 38zM241 240h-46q-38 0 -58 -19
q-24 -22 -24 -71q0 -87 63 -87q29 0 47 22.5t18 58.5v96zM298 665v-57h-229v57h229z" />
    <glyph glyph-name="Abreve" unicode="&#x102;" horiz-adv-x="425" 
d="M5 0l166 712h83l166 -712h-91l-34 168h-166l-34 -168h-90zM145 245h134l-67 328zM273 867h58q-7 -112 -118 -112q-110 0 -117 112h58q7 -53 59 -53q53 0 60 53z" />
    <glyph glyph-name="abreve" unicode="&#x103;" horiz-adv-x="375" 
d="M180 526q65 0 101 -36q41 -43 41 -114v-376h-77v46q-12 -20 -30 -35q-25 -19 -61 -19q-54 0 -89 39q-33 38 -33 116q0 76 46 117q40 35 110 35h53v82q0 74 -61 74q-23 0 -40 -17q-19 -20 -19 -60h-81q0 70 40 110q38 38 100 38zM241 240h-46q-38 0 -58 -19
q-24 -22 -24 -71q0 -87 63 -87q29 0 47 22.5t18 58.5v96zM243 691h58q-7 -112 -118 -112q-110 0 -117 112h58q7 -53 59 -53q53 0 60 53z" />
    <glyph glyph-name="Aogonek" unicode="&#x104;" horiz-adv-x="425" 
d="M5 0l166 712h83l166 -712h-91l-34 168h-166l-34 -168h-90zM145 245h134l-67 328zM407 -38l-50 -144h-64l57 144h57z" />
    <glyph glyph-name="aogonek" unicode="&#x105;" horiz-adv-x="375" 
d="M180 526q65 0 101 -36q41 -43 41 -114v-376h-77v46q-12 -20 -30 -35q-25 -19 -61 -19q-54 0 -89 39q-33 38 -33 116q0 76 46 117q40 35 110 35h53v82q0 74 -61 74q-23 0 -40 -17q-19 -20 -19 -60h-81q0 70 40 110q38 38 100 38zM241 240h-46q-38 0 -58 -19
q-24 -22 -24 -71q0 -87 63 -87q29 0 47 22.5t18 58.5v96zM311 -38l-50 -144h-64l57 144h57z" />
    <glyph glyph-name="Cacute" unicode="&#x106;" horiz-adv-x="423" 
d="M221 720q69 0 113 -42q49 -48 51 -141h-85q-2 55 -23 81q-20 25 -56 25q-39 0 -59 -27q-18 -25 -23.5 -77t-5.5 -183t5.5 -183t23.5 -77q20 -27 59 -27q36 0 56 25q21 28 23 82h85q-2 -97 -54 -145q-44 -39 -110 -39q-77 0 -122 52q-34 39 -43 98t-9 214t9 214t43 98
q45 52 122 52zM327 897l-81 -135h-62l69 135h74z" />
    <glyph glyph-name="cacute" unicode="&#x107;" horiz-adv-x="364" 
d="M41 259q0 87 8 138.5t30 80.5q36 48 109 48q65 0 101 -35q40 -38 42 -117h-81q0 41 -16 60q-17 20 -45 20q-29 0 -46 -22q-13 -18 -17 -56t-4 -117t4 -117t17 -56q17 -22 46 -22q28 0 45 20q16 19 16 60h81q-2 -79 -42 -117q-36 -35 -101 -35q-73 0 -109 48
q-22 29 -30 80.5t-8 138.5zM290 721l-81 -135h-61l68 135h74z" />
    <glyph glyph-name="Ccircumflex" unicode="&#x108;" horiz-adv-x="423" 
d="M221 720q69 0 113 -42q49 -48 51 -141h-85q-2 55 -23 81q-20 25 -56 25q-39 0 -59 -27q-18 -25 -23.5 -77t-5.5 -183t5.5 -183t23.5 -77q20 -27 59 -27q36 0 56 25q21 28 23 82h85q-2 -97 -54 -145q-44 -39 -110 -39q-77 0 -122 52q-34 39 -43 98t-9 214t9 214t43 98
q45 52 122 52zM254 897l93 -135h-66l-60 87l-60 -87h-66l93 135h66z" />
    <glyph glyph-name="ccircumflex" unicode="&#x109;" horiz-adv-x="364" 
d="M41 259q0 87 8 138.5t30 80.5q36 48 109 48q65 0 101 -35q40 -38 42 -117h-81q0 41 -16 60q-17 20 -45 20q-29 0 -46 -22q-13 -18 -17 -56t-4 -117t4 -117t17 -56q17 -22 46 -22q28 0 45 20q16 19 16 60h81q-2 -79 -42 -117q-36 -35 -101 -35q-73 0 -109 48
q-22 29 -30 80.5t-8 138.5zM221 721l93 -135h-67l-60 87l-59 -87h-67l93 135h67z" />
    <glyph glyph-name="Cdotaccent" unicode="&#x10a;" horiz-adv-x="423" 
d="M221 720q69 0 113 -42q49 -48 51 -141h-85q-2 55 -23 81q-20 25 -56 25q-39 0 -59 -27q-18 -25 -23.5 -77t-5.5 -183t5.5 -183t23.5 -77q20 -27 59 -27q36 0 56 25q21 28 23 82h85q-2 -97 -54 -145q-44 -39 -110 -39q-77 0 -122 52q-34 39 -43 98t-9 214t9 214t43 98
q45 52 122 52zM262 858v-81h-82v81h82z" />
    <glyph glyph-name="cdotaccent" unicode="&#x10b;" horiz-adv-x="364" 
d="M41 259q0 87 8 138.5t30 80.5q36 48 109 48q65 0 101 -35q40 -38 42 -117h-81q0 41 -16 60q-17 20 -45 20q-29 0 -46 -22q-13 -18 -17 -56t-4 -117t4 -117t17 -56q17 -22 46 -22q28 0 45 20q16 19 16 60h81q-2 -79 -42 -117q-36 -35 -101 -35q-73 0 -109 48
q-22 29 -30 80.5t-8 138.5zM228 684v-82h-81v82h81z" />
    <glyph glyph-name="Ccaron" unicode="&#x10c;" horiz-adv-x="423" 
d="M221 720q69 0 113 -42q49 -48 51 -141h-85q-2 55 -23 81q-20 25 -56 25q-39 0 -59 -27q-18 -25 -23.5 -77t-5.5 -183t5.5 -183t23.5 -77q20 -27 59 -27q36 0 56 25q21 28 23 82h85q-2 -97 -54 -145q-44 -39 -110 -39q-77 0 -122 52q-34 39 -43 98t-9 214t9 214t43 98
q45 52 122 52zM347 892l-93 -135h-67l-93 135h67l59 -87l60 87h67z" />
    <glyph glyph-name="ccaron" unicode="&#x10d;" horiz-adv-x="364" 
d="M41 259q0 87 8 138.5t30 80.5q36 48 109 48q65 0 101 -35q40 -38 42 -117h-81q0 41 -16 60q-17 20 -45 20q-29 0 -46 -22q-13 -18 -17 -56t-4 -117t4 -117t17 -56q17 -22 46 -22q28 0 45 20q16 19 16 60h81q-2 -79 -42 -117q-36 -35 -101 -35q-73 0 -109 48
q-22 29 -30 80.5t-8 138.5zM314 717l-93 -135h-67l-93 135h67l59 -87l60 87h67z" />
    <glyph glyph-name="Dcaron" unicode="&#x10e;" horiz-adv-x="448" 
d="M64 712h164q77 0 122 -50q33 -35 42 -94.5t9 -211.5t-9 -211.5t-42 -94.5q-45 -50 -122 -50h-164v712zM225 635h-75v-558h75q39 0 61 27q19 24 24 72t5 180t-5 180t-24 72q-22 27 -61 27zM349 892l-93 -135h-67l-93 135h67l59 -87l60 87h67z" />
    <glyph glyph-name="dcaron" unicode="&#x10f;" horiz-adv-x="388" 
d="M78 30q-24 28 -31 78t-7 151q0 102 7 151.5t31 77.5q32 38 86 38q33 0 56 -16q18 -12 29 -28v230h81v-712h-79v40q-9 -17 -31 -32q-26 -16 -56 -16q-52 0 -86 38zM229 81q20 20 20 60v237q0 39 -20 59q-17 17 -42 17q-27 0 -44 -22q-14 -16 -18 -52t-4 -121t4 -121
t18 -52q17 -22 44 -22q25 0 42 17zM461 730l-34 -144h-55l23 144h66z" />
    <glyph glyph-name="Dcroat" unicode="&#x110;" horiz-adv-x="461" 
d="M77 712h164q77 0 122 -50q33 -35 42 -94.5t9 -211.5t-9 -211.5t-42 -94.5q-45 -50 -122 -50h-164v328h-52v69h52v315zM238 635h-75v-238h81v-69h-81v-251h75q39 0 61 27q19 24 24 72t5 180t-5 180t-24 72q-22 27 -61 27z" />
    <glyph glyph-name="dcroat" unicode="&#x111;" horiz-adv-x="409" 
d="M164 -8q-52 0 -86 38q-24 28 -31 78t-7 151q0 102 7 151.5t31 77.5q32 38 86 38q33 0 56 -16q18 -12 29 -28v100h-87v54h87v76h81v-76h54v-54h-54v-582h-79v40q-9 -17 -31 -32q-26 -16 -56 -16zM187 64q25 0 42 17q20 20 20 60v237q0 39 -20 59q-17 17 -42 17
q-27 0 -44 -22q-14 -16 -18 -52t-4 -121t4 -121t18 -52q17 -22 44 -22z" />
    <glyph glyph-name="Emacron" unicode="&#x112;" horiz-adv-x="380" 
d="M339 712v-77h-189v-234h163v-77h-163v-247h189v-77h-275v712h275zM319 838v-58h-228v58h228z" />
    <glyph glyph-name="emacron" unicode="&#x113;" 
d="M335 240h-213q0 -126 21 -153q15 -22 46 -22q29 0 46 20t17 60h81q-1 -72 -42 -115q-37 -38 -102 -38q-66 0 -103 40q-27 29 -36.5 83t-9.5 144q0 91 9 144.5t36 82.5q37 40 102 40t102 -40q28 -29 37 -85t9 -161zM253 301q0 107 -20 131q-16 21 -46 21q-29 0 -45 -21
q-20 -24 -20 -131h131zM302 665v-57h-229v57h229z" />
    <glyph glyph-name="Ebreve" unicode="&#x114;" horiz-adv-x="380" 
d="M339 712v-77h-189v-234h163v-77h-163v-247h189v-77h-275v712h275zM265 867h58q-7 -112 -118 -112q-110 0 -117 112h58q7 -53 59 -53q53 0 60 53z" />
    <glyph glyph-name="ebreve" unicode="&#x115;" 
d="M335 240h-213q0 -126 21 -153q15 -22 46 -22q29 0 46 20t17 60h81q-1 -72 -42 -115q-37 -38 -102 -38q-66 0 -103 40q-27 29 -36.5 83t-9.5 144q0 91 9 144.5t36 82.5q37 40 102 40t102 -40q28 -29 37 -85t9 -161zM253 301q0 107 -20 131q-16 21 -46 21q-29 0 -45 -21
q-20 -24 -20 -131h131zM247 691h58q-7 -112 -118 -112q-110 0 -117 112h58q7 -53 59 -53q53 0 60 53z" />
    <glyph glyph-name="Edotaccent" unicode="&#x116;" horiz-adv-x="380" 
d="M339 712v-77h-189v-234h163v-77h-163v-247h189v-77h-275v712h275zM246 858v-81h-82v81h82z" />
    <glyph glyph-name="edotaccent" unicode="&#x117;" 
d="M335 240h-213q0 -126 21 -153q15 -22 46 -22q29 0 46 20t17 60h81q-1 -72 -42 -115q-37 -38 -102 -38q-66 0 -103 40q-27 29 -36.5 83t-9.5 144q0 91 9 144.5t36 82.5q37 40 102 40t102 -40q28 -29 37 -85t9 -161zM253 301q0 107 -20 131q-16 21 -46 21q-29 0 -45 -21
q-20 -24 -20 -131h131zM228 684v-82h-81v82h81z" />
    <glyph glyph-name="Eogonek" unicode="&#x118;" horiz-adv-x="380" 
d="M339 712v-77h-189v-234h163v-77h-163v-247h189v-77h-275v712h275zM324 -38l-50 -144h-64l57 144h57z" />
    <glyph glyph-name="eogonek" unicode="&#x119;" 
d="M335 240h-213q0 -126 21 -153q15 -22 46 -22q29 0 46 20t17 60h81q-1 -72 -42 -115q-37 -38 -102 -38q-66 0 -103 40q-27 29 -36.5 83t-9.5 144q0 91 9 144.5t36 82.5q37 40 102 40t102 -40q28 -29 37 -85t9 -161zM253 301q0 107 -20 131q-16 21 -46 21q-29 0 -45 -21
q-20 -24 -20 -131h131zM289 -38l-50 -144h-64l57 144h57z" />
    <glyph glyph-name="Ecaron" unicode="&#x11a;" horiz-adv-x="380" 
d="M339 712v-77h-189v-234h163v-77h-163v-247h189v-77h-275v712h275zM331 892l-93 -135h-67l-93 135h67l59 -87l60 87h67z" />
    <glyph glyph-name="ecaron" unicode="&#x11b;" 
d="M335 240h-213q0 -126 21 -153q15 -22 46 -22q29 0 46 20t17 60h81q-1 -72 -42 -115q-37 -38 -102 -38q-66 0 -103 40q-27 29 -36.5 83t-9.5 144q0 91 9 144.5t36 82.5q37 40 102 40t102 -40q28 -29 37 -85t9 -161zM253 301q0 107 -20 131q-16 21 -46 21q-29 0 -45 -21
q-20 -24 -20 -131h131zM314 717l-93 -135h-67l-93 135h67l59 -87l60 87h67z" />
    <glyph glyph-name="Gcircumflex" unicode="&#x11c;" horiz-adv-x="434" 
d="M221 720q71 0 115 -44q47 -47 49 -140h-85q-2 107 -79 107q-39 0 -59 -27q-18 -25 -23.5 -77t-5.5 -183t5.5 -183t23.5 -77q20 -27 59 -27q37 0 58 27.5t21 71.5v143h-79v71h165v-211q0 -86 -46 -132.5t-119 -46.5q-75 0 -122 52q-33 37 -42.5 97.5t-9.5 214.5t9.5 214.5
t42.5 97.5q47 52 122 52zM254 897l93 -135h-66l-60 87l-60 -87h-66l93 135h66z" />
    <glyph glyph-name="gcircumflex" unicode="&#x11d;" horiz-adv-x="387" 
d="M166 526q34 0 56 -16q15 -10 30 -28v36h78v-536q0 -100 -42 -145q-37 -39 -102 -39t-103 37q-40 40 -40 112h81q0 -43 18 -62q13 -16 44 -16q28 0 44 18q19 20 19 91v75q-11 -17 -28 -29q-23 -17 -55 -17q-51 0 -84 39q-24 27 -32.5 75t-8.5 146t8.5 146t32.5 76
q33 37 84 37zM187 454q-25 0 -44 -22q-13 -16 -17 -50t-4 -116t4 -116t17 -50q19 -21 44 -21t43 16q19 19 19 60v223q0 40 -19 59q-17 17 -43 17zM221 721l93 -135h-67l-60 87l-59 -87h-67l93 135h67z" />
    <glyph glyph-name="Gbreve" unicode="&#x11e;" horiz-adv-x="434" 
d="M221 720q71 0 115 -44q47 -47 49 -140h-85q-2 107 -79 107q-39 0 -59 -27q-18 -25 -23.5 -77t-5.5 -183t5.5 -183t23.5 -77q20 -27 59 -27q37 0 58 27.5t21 71.5v143h-79v71h165v-211q0 -86 -46 -132.5t-119 -46.5q-75 0 -122 52q-33 37 -42.5 97.5t-9.5 214.5t9.5 214.5
t42.5 97.5q47 52 122 52zM281 867h58q-7 -112 -118 -112q-110 0 -117 112h58q7 -53 59 -53q53 0 60 53z" />
    <glyph glyph-name="gbreve" unicode="&#x11f;" horiz-adv-x="387" 
d="M166 526q34 0 56 -16q15 -10 30 -28v36h78v-536q0 -100 -42 -145q-37 -39 -102 -39t-103 37q-40 40 -40 112h81q0 -43 18 -62q13 -16 44 -16q28 0 44 18q19 20 19 91v75q-11 -17 -28 -29q-23 -17 -55 -17q-51 0 -84 39q-24 27 -32.5 75t-8.5 146t8.5 146t32.5 76
q33 37 84 37zM187 454q-25 0 -44 -22q-13 -16 -17 -50t-4 -116t4 -116t17 -50q19 -21 44 -21t43 16q19 19 19 60v223q0 40 -19 59q-17 17 -43 17zM247 691h58q-7 -112 -118 -112q-110 0 -117 112h58q7 -53 59 -53q53 0 60 53z" />
    <glyph glyph-name="Gdotaccent" unicode="&#x120;" horiz-adv-x="434" 
d="M221 720q71 0 115 -44q47 -47 49 -140h-85q-2 107 -79 107q-39 0 -59 -27q-18 -25 -23.5 -77t-5.5 -183t5.5 -183t23.5 -77q20 -27 59 -27q37 0 58 27.5t21 71.5v143h-79v71h165v-211q0 -86 -46 -132.5t-119 -46.5q-75 0 -122 52q-33 37 -42.5 97.5t-9.5 214.5t9.5 214.5
t42.5 97.5q47 52 122 52zM262 858v-81h-82v81h82z" />
    <glyph glyph-name="gdotaccent" unicode="&#x121;" horiz-adv-x="387" 
d="M166 526q34 0 56 -16q15 -10 30 -28v36h78v-536q0 -100 -42 -145q-37 -39 -102 -39t-103 37q-40 40 -40 112h81q0 -43 18 -62q13 -16 44 -16q28 0 44 18q19 20 19 91v75q-11 -17 -28 -29q-23 -17 -55 -17q-51 0 -84 39q-24 27 -32.5 75t-8.5 146t8.5 146t32.5 76
q33 37 84 37zM187 454q-25 0 -44 -22q-13 -16 -17 -50t-4 -116t4 -116t17 -50q19 -21 44 -21t43 16q19 19 19 60v223q0 40 -19 59q-17 17 -43 17zM228 684v-82h-81v82h81z" />
    <glyph glyph-name="uni0122" unicode="&#x122;" horiz-adv-x="434" 
d="M221 720q71 0 115 -44q47 -47 49 -140h-85q-2 107 -79 107q-39 0 -59 -27q-18 -25 -23.5 -77t-5.5 -183t5.5 -183t23.5 -77q20 -27 59 -27q37 0 58 27.5t21 71.5v143h-79v71h165v-211q0 -86 -46 -132.5t-119 -46.5q-75 0 -122 52q-33 37 -42.5 97.5t-9.5 214.5t9.5 214.5
t42.5 97.5q47 52 122 52zM252 -38l-50 -144h-64l57 144h57z" />
    <glyph glyph-name="uni0123" unicode="&#x123;" horiz-adv-x="387" 
d="M166 526q34 0 56 -16q15 -10 30 -28v36h78v-536q0 -100 -42 -145q-37 -39 -102 -39t-103 37q-40 40 -40 112h81q0 -43 18 -62q13 -16 44 -16q28 0 44 18q19 20 19 91v75q-11 -17 -28 -29q-23 -17 -55 -17q-51 0 -84 39q-24 27 -32.5 75t-8.5 146t8.5 146t32.5 76
q33 37 84 37zM187 454q-25 0 -44 -22q-13 -16 -17 -50t-4 -116t4 -116t17 -50q19 -21 44 -21t43 16q19 19 19 60v223q0 40 -19 59q-17 17 -43 17zM275 730l-57 -144h-57l49 144h65z" />
    <glyph glyph-name="Hcircumflex" unicode="&#x124;" horiz-adv-x="458" 
d="M394 712v-712h-86v324h-158v-324h-86v712h86v-311h158v311h86zM262 897l93 -135h-66l-60 87l-60 -87h-66l93 135h66z" />
    <glyph glyph-name="hcircumflex" unicode="&#x125;" horiz-adv-x="395" 
d="M138 712v-231q12 19 29 29q26 16 56 16q55 0 88 -38q31 -34 31 -107v-381h-81v381q0 35 -17.5 54t-44.5 19t-44 -19t-17 -54v-381h-81v712h81zM131 896l93 -135h-67l-60 87l-59 -87h-67l93 135h67z" />
    <glyph glyph-name="Hbar" unicode="&#x126;" horiz-adv-x="480" 
d="M75 0v519h-50v68h50v125h86v-125h158v125h86v-125h50v-68h-50v-519h-86v324h-158v-324h-86zM161 401h158v118h-158v-118z" />
    <glyph glyph-name="hbar" unicode="&#x127;" horiz-adv-x="416" 
d="M159 712v-76h88v-54h-88v-101q12 19 29 29q26 16 56 16q55 0 88 -38q31 -34 31 -107v-381h-81v381q0 35 -17.5 54t-44.5 19t-44 -19t-17 -54v-381h-81v582h-53v54h53v76h81z" />
    <glyph glyph-name="Itilde" unicode="&#x128;" horiz-adv-x="214" 
d="M150 712v-712h-86v712h86zM56 861q30 0 56 -17q28 -16 45 -16q21 0 44 23l38 -37q-42 -42 -80 -42q-29 0 -57 16q-30 16 -44 16q-20 0 -45 -23l-36 37q42 43 79 43z" />
    <glyph glyph-name="itilde" unicode="&#x129;" horiz-adv-x="195" 
d="M138 518v-518h-81v518h81zM48 685q30 0 58 -17q25 -15 43 -15q21 0 44 23l38 -38q-43 -42 -80 -42q-27 0 -58 17q-25 15 -43 15q-22 0 -45 -23l-36 38q42 42 79 42z" />
    <glyph glyph-name="Imacron" unicode="&#x12a;" horiz-adv-x="214" 
d="M150 712v-712h-86v712h86zM222 838v-58h-228v58h228z" />
    <glyph glyph-name="imacron" unicode="&#x12b;" horiz-adv-x="195" 
d="M138 518v-518h-81v518h81zM212 665v-57h-229v57h229z" />
    <glyph glyph-name="Ibreve" unicode="&#x12c;" horiz-adv-x="214" 
d="M150 712v-712h-86v712h86zM168 867h58q-7 -112 -118 -112q-110 0 -117 112h58q7 -53 59 -53q53 0 60 53z" />
    <glyph glyph-name="ibreve" unicode="&#x12d;" horiz-adv-x="195" 
d="M138 518v-518h-81v518h81zM157 691h58q-7 -112 -118 -112q-110 0 -117 112h58q7 -53 59 -53q53 0 60 53z" />
    <glyph glyph-name="Iogonek" unicode="&#x12e;" horiz-adv-x="214" 
d="M150 712v-712h-86v712h86zM139 -38l-50 -144h-64l57 144h57z" />
    <glyph glyph-name="iogonek" unicode="&#x12f;" horiz-adv-x="195" 
d="M138 518v-518h-81v518h81zM145 704v-94h-95v94h95zM133 -38l-50 -144h-64l57 144h57z" />
    <glyph glyph-name="Idotaccent" unicode="&#x130;" horiz-adv-x="214" 
d="M150 712v-712h-86v712h86zM149 858v-81h-82v81h82z" />
    <glyph glyph-name="dotlessi" unicode="&#x131;" horiz-adv-x="195" 
d="M138 518v-518h-81v518h81z" />
    <glyph glyph-name="IJ" unicode="&#x132;" horiz-adv-x="575" 
d="M150 712v-712h-86v712h86zM517 712v-542q0 -84 -45 -130q-46 -48 -126 -48q-78 0 -127 54l61 57q25 -34 66 -34q37 0 61 26.5t24 74.5v542h86z" />
    <glyph glyph-name="ij" unicode="&#x133;" horiz-adv-x="390" 
d="M138 518v-518h-81v518h81zM145 704v-94h-95v94h95zM333 518v-564q0 -78 -46 -116q-38 -32 -113 -32v73q39 0 58.5 18t19.5 60v561h81zM340 704v-94h-95v94h95z" />
    <glyph glyph-name="Jcircumflex" unicode="&#x134;" horiz-adv-x="361" 
d="M303 712v-542q0 -84 -45 -130q-46 -48 -126 -48q-78 0 -127 54l61 57q25 -34 66 -34q37 0 61 26.5t24 74.5v542h86zM294 897l93 -135h-66l-60 87l-60 -87h-66l93 135h66z" />
    <glyph glyph-name="jcircumflex" unicode="&#x135;" horiz-adv-x="195" 
d="M138 518v-564q0 -78 -46 -116q-38 -32 -113 -32v73q39 0 58.5 18t19.5 60v561h81zM131 721l93 -135h-67l-60 87l-59 -87h-67l93 135h67z" />
    <glyph glyph-name="uni0136" unicode="&#x136;" horiz-adv-x="446" 
d="M410 712l-144 -294l165 -418h-93l-126 322l-62 -123v-199h-86v712h86v-361l172 361h88zM267 -38l-50 -144h-64l57 144h57z" />
    <glyph glyph-name="uni0137" unicode="&#x137;" horiz-adv-x="396" 
d="M138 712v-440l147 246h86l-126 -202l138 -316h-90l-99 244l-56 -89v-155h-81v712h81zM255 -38l-50 -144h-64l57 144h57z" />
    <glyph glyph-name="kgreenlandic" unicode="&#x138;" horiz-adv-x="396" 
d="M371 518l-126 -202l138 -316h-90l-99 244l-56 -89v-155h-81v518h81v-246l147 246h86z" />
    <glyph glyph-name="Lacute" unicode="&#x139;" horiz-adv-x="361" 
d="M150 712v-635h189v-77h-275v712h86zM214 897l-81 -135h-62l69 135h74z" />
    <glyph glyph-name="lacute" unicode="&#x13a;" horiz-adv-x="228" 
d="M134 712v-561q0 -78 77 -78v-73q-74 0 -112 32q-46 38 -46 116v564h81zM200 896l-81 -135h-61l68 135h74z" />
    <glyph glyph-name="uni013B" unicode="&#x13b;" horiz-adv-x="361" 
d="M150 712v-635h189v-77h-275v712h86zM237 -38l-50 -144h-64l57 144h57z" />
    <glyph glyph-name="uni013C" unicode="&#x13c;" horiz-adv-x="228" 
d="M134 712v-561q0 -78 77 -78v-73q-74 0 -112 32q-46 38 -46 116v564h81zM148 -38l-50 -144h-64l57 144h57z" />
    <glyph glyph-name="Lcaron" unicode="&#x13d;" horiz-adv-x="361" 
d="M150 712v-635h189v-77h-275v712h86zM301 712l-34 -144h-55l23 144h66z" />
    <glyph glyph-name="lcaron" unicode="&#x13e;" horiz-adv-x="228" 
d="M134 712v-561q0 -78 77 -78v-73q-74 0 -112 32q-46 38 -46 116v564h81zM265 730l-34 -144h-55l23 144h66z" />
    <glyph glyph-name="Ldot" unicode="&#x13f;" horiz-adv-x="361" 
d="M150 712v-635h189v-77h-275v712h86zM329 397v-81h-82v81h82z" />
    <glyph glyph-name="ldot" unicode="&#x140;" horiz-adv-x="264" 
d="M134 712v-561q0 -78 77 -78v-73q-74 0 -112 32q-46 38 -46 116v564h81zM269 342v-82h-81v82h81z" />
    <glyph glyph-name="Lslash" unicode="&#x141;" horiz-adv-x="369" 
d="M159 712v-280l94 84v-85l-94 -84v-270h188v-77h-274v276l-48 -44v85l48 44v351h86z" />
    <glyph glyph-name="lslash" unicode="&#x142;" horiz-adv-x="251" 
d="M157 712v-253l58 57v-82l-58 -56v-227q0 -78 77 -78v-73q-74 0 -112 32q-46 38 -46 116v160l-57 -55v81l57 56v322h81z" />
    <glyph glyph-name="Nacute" unicode="&#x143;" horiz-adv-x="476" 
d="M412 712v-712h-78l-184 487v-487h-86v712h80l182 -487v487h86zM344 897l-81 -135h-62l69 135h74z" />
    <glyph glyph-name="nacute" unicode="&#x144;" horiz-adv-x="395" 
d="M223 526q55 0 88 -38q31 -34 31 -107v-381h-81v381q0 34 -17.5 53.5t-44.5 19.5q-26 0 -43.5 -19.5t-17.5 -53.5v-381h-81v518h78v-40q11 19 32 32q26 16 56 16zM302 721l-81 -135h-61l68 135h74z" />
    <glyph glyph-name="uni0145" unicode="&#x145;" horiz-adv-x="476" 
d="M412 712v-712h-78l-184 487v-487h-86v712h80l182 -487v487h86zM269 -38l-50 -144h-64l57 144h57z" />
    <glyph glyph-name="uni0146" unicode="&#x146;" horiz-adv-x="395" 
d="M223 526q55 0 88 -38q31 -34 31 -107v-381h-81v381q0 34 -17.5 53.5t-44.5 19.5q-26 0 -43.5 -19.5t-17.5 -53.5v-381h-81v518h78v-40q11 19 32 32q26 16 56 16zM235 -38l-50 -144h-64l57 144h57z" />
    <glyph glyph-name="Ncaron" unicode="&#x147;" horiz-adv-x="476" 
d="M412 712v-712h-78l-184 487v-487h-86v712h80l182 -487v487h86zM364 892l-93 -135h-67l-93 135h67l59 -87l60 87h67z" />
    <glyph glyph-name="ncaron" unicode="&#x148;" horiz-adv-x="395" 
d="M223 526q55 0 88 -38q31 -34 31 -107v-381h-81v381q0 34 -17.5 53.5t-44.5 19.5q-26 0 -43.5 -19.5t-17.5 -53.5v-381h-81v518h78v-40q11 19 32 32q26 16 56 16zM326 717l-93 -135h-67l-93 135h67l59 -87l60 87h67z" />
    <glyph glyph-name="napostrophe" unicode="&#x149;" horiz-adv-x="598" 
d="M148 712v-112l-93 -68v180h93zM426 526q55 0 88 -38q31 -34 31 -107v-381h-81v381q0 34 -17.5 53.5t-44.5 19.5q-26 0 -43.5 -19.5t-17.5 -53.5v-381h-81v518h78v-40q11 19 32 32q26 16 56 16z" />
    <glyph glyph-name="Eng" unicode="&#x14a;" horiz-adv-x="476" 
d="M412 712v-743q0 -78 -46 -116q-38 -32 -112 -32v76q72 0 72 75v52l-176 463v-487h-86v712h80l182 -478v478h86z" />
    <glyph glyph-name="eng" unicode="&#x14b;" horiz-adv-x="395" 
d="M223 526q55 0 88 -38q31 -34 31 -107v-415q0 -77 -46 -115q-38 -33 -113 -33v73q39 0 58.5 18t19.5 60v412q0 34 -17.5 53.5t-44.5 19.5q-26 0 -43.5 -19.5t-17.5 -53.5v-381h-81v518h78v-40q11 19 32 32q26 16 56 16z" />
    <glyph glyph-name="Omacron" unicode="&#x14c;" horiz-adv-x="442" 
d="M221 -8q-77 0 -122 52q-33 38 -42.5 99t-9.5 213t9.5 213t42.5 99q45 52 122 52q78 0 123 -52q33 -37 42 -97.5t9 -214.5t-9 -214.5t-42 -97.5q-45 -52 -123 -52zM221 69q39 0 58 27q19 25 24.5 76.5t5.5 183.5t-5.5 183.5t-24.5 76.5q-19 27 -58 27t-58 -27
q-19 -25 -24.5 -76.5t-5.5 -183.5t5.5 -183.5t24.5 -76.5q19 -27 58 -27zM335 838v-58h-228v58h228z" />
    <glyph glyph-name="omacron" unicode="&#x14d;" 
d="M188 526q74 0 110 -48q22 -29 29.5 -80t7.5 -139t-7.5 -139t-29.5 -80q-36 -48 -110 -48q-73 0 -109 48q-22 29 -30 80.5t-8 138.5t8 138.5t30 80.5q36 48 109 48zM188 454q-29 0 -45 -23q-13 -18 -17 -56t-4 -116t4 -116t17 -56q16 -23 45 -23q30 0 46 23q13 18 16.5 55
t3.5 117t-3.5 117t-16.5 55q-16 23 -46 23zM302 665v-57h-229v57h229z" />
    <glyph glyph-name="Obreve" unicode="&#x14e;" horiz-adv-x="442" 
d="M221 -8q-77 0 -122 52q-33 38 -42.5 99t-9.5 213t9.5 213t42.5 99q45 52 122 52q78 0 123 -52q33 -37 42 -97.5t9 -214.5t-9 -214.5t-42 -97.5q-45 -52 -123 -52zM221 69q39 0 58 27q19 25 24.5 76.5t5.5 183.5t-5.5 183.5t-24.5 76.5q-19 27 -58 27t-58 -27
q-19 -25 -24.5 -76.5t-5.5 -183.5t5.5 -183.5t24.5 -76.5q19 -27 58 -27zM281 867h58q-7 -112 -118 -112q-110 0 -117 112h58q7 -53 59 -53q53 0 60 53z" />
    <glyph glyph-name="obreve" unicode="&#x14f;" 
d="M188 526q74 0 110 -48q22 -29 29.5 -80t7.5 -139t-7.5 -139t-29.5 -80q-36 -48 -110 -48q-73 0 -109 48q-22 29 -30 80.5t-8 138.5t8 138.5t30 80.5q36 48 109 48zM188 454q-29 0 -45 -23q-13 -18 -17 -56t-4 -116t4 -116t17 -56q16 -23 45 -23q30 0 46 23q13 18 16.5 55
t3.5 117t-3.5 117t-16.5 55q-16 23 -46 23zM247 691h58q-7 -112 -118 -112q-110 0 -117 112h58q7 -53 59 -53q53 0 60 53z" />
    <glyph glyph-name="Ohungarumlaut" unicode="&#x150;" horiz-adv-x="442" 
d="M221 -8q-77 0 -122 52q-33 38 -42.5 99t-9.5 213t9.5 213t42.5 99q45 52 122 52q78 0 123 -52q33 -37 42 -97.5t9 -214.5t-9 -214.5t-42 -97.5q-45 -52 -123 -52zM221 69q39 0 58 27q19 25 24.5 76.5t5.5 183.5t-5.5 183.5t-24.5 76.5q-19 27 -58 27t-58 -27
q-19 -25 -24.5 -76.5t-5.5 -183.5t5.5 -183.5t24.5 -76.5q19 -27 58 -27zM180 897h74l-68 -135h-59zM306 897h74l-69 -135h-58z" />
    <glyph glyph-name="ohungarumlaut" unicode="&#x151;" 
d="M188 526q74 0 110 -48q22 -29 29.5 -80t7.5 -139t-7.5 -139t-29.5 -80q-36 -48 -110 -48q-73 0 -109 48q-22 29 -30 80.5t-8 138.5t8 138.5t30 80.5q36 48 109 48zM188 454q-29 0 -45 -23q-13 -18 -17 -56t-4 -116t4 -116t17 -56q16 -23 45 -23q30 0 46 23q13 18 16.5 55
t3.5 117t-3.5 117t-16.5 55q-16 23 -46 23zM146 721h74l-69 -135h-58zM271 721h74l-68 -135h-58z" />
    <glyph glyph-name="OE" unicode="&#x152;" horiz-adv-x="624" 
d="M221 -8q-77 0 -122 52q-33 38 -42.5 99t-9.5 213q0 153 9.5 214t42.5 99q44 51 120 51q63 0 94 -41v33h270v-77h-188v-234h163v-77h-163v-247h188v-77h-270v33q-33 -41 -92 -41zM221 69q39 0 58 27q18 26 24 78.5t6 181.5q0 132 -5.5 183.5t-24.5 76.5q-19 27 -58 27
t-58 -27q-18 -26 -24 -78.5t-6 -181.5t6 -181.5t24 -78.5q19 -27 58 -27z" />
    <glyph glyph-name="oe" unicode="&#x153;" horiz-adv-x="590" 
d="M401 453q-29 0 -45 -21q-20 -24 -20 -131h131q0 107 -20 131q-16 21 -46 21zM188 526q56 0 91 -33q8 -7 17 -23q6 14 18 24q38 32 88 32q64 0 101 -40q28 -29 37 -85t9 -161h-213q0 -126 21 -153q15 -22 46 -22q29 0 46 20t17 60h81q-1 -72 -42 -115q-37 -38 -102 -38
q-54 0 -89 32q-11 11 -18 25q-7 -15 -18 -25q-37 -32 -90 -32q-73 0 -109 48q-22 29 -30 80.5t-8 138.5t8 138.5t30 80.5q36 48 109 48zM188 454q-29 0 -45 -23q-13 -18 -17 -56t-4 -116t4 -116t17 -56q16 -23 45 -23q30 0 46 23q13 18 16.5 55t3.5 117t-3.5 117t-16.5 55
q-16 23 -46 23z" />
    <glyph glyph-name="Racute" unicode="&#x154;" horiz-adv-x="455" 
d="M64 712h161q85 0 126.5 -45.5t41.5 -157.5q0 -75 -20 -120t-66 -66l109 -323h-91l-98 306h-77v-306h-86v712zM226 635h-76v-253h76q46 0 63.5 32t17.5 95t-17.5 94.5t-63.5 31.5zM320 897l-81 -135h-62l69 135h74z" />
    <glyph glyph-name="racute" unicode="&#x155;" horiz-adv-x="272" 
d="M256 526v-78h-24q-42 0 -68 -25.5t-26 -69.5v-353h-81v518h78v-55q11 20 36 37q37 26 85 26zM245 721l-81 -135h-61l68 135h74z" />
    <glyph glyph-name="uni0156" unicode="&#x156;" horiz-adv-x="455" 
d="M64 712h161q85 0 126.5 -45.5t41.5 -157.5q0 -75 -20 -120t-66 -66l109 -323h-91l-98 306h-77v-306h-86v712zM226 635h-76v-253h76q46 0 63.5 32t17.5 95t-17.5 94.5t-63.5 31.5zM265 -38l-50 -144h-64l57 144h57z" />
    <glyph glyph-name="uni0157" unicode="&#x157;" horiz-adv-x="272" 
d="M256 526v-78h-24q-42 0 -68 -25.5t-26 -69.5v-353h-81v518h78v-55q11 20 36 37q37 26 85 26zM133 -38l-50 -144h-64l57 144h57z" />
    <glyph glyph-name="Rcaron" unicode="&#x158;" horiz-adv-x="455" 
d="M64 712h161q85 0 126.5 -45.5t41.5 -157.5q0 -75 -20 -120t-66 -66l109 -323h-91l-98 306h-77v-306h-86v712zM226 635h-76v-253h76q46 0 63.5 32t17.5 95t-17.5 94.5t-63.5 31.5zM340 892l-93 -135h-67l-93 135h67l59 -87l60 87h67z" />
    <glyph glyph-name="rcaron" unicode="&#x159;" horiz-adv-x="272" 
d="M256 526v-78h-24q-42 0 -68 -25.5t-26 -69.5v-353h-81v518h78v-55q11 20 36 37q37 26 85 26zM269 717l-93 -135h-67l-93 135h67l59 -87l60 87h67z" />
    <glyph glyph-name="Sacute" unicode="&#x15a;" horiz-adv-x="420" 
d="M210 718q75 0 118 -41q47 -46 47 -146h-86q0 59 -22 86q-19 24 -58 24q-35 0 -55 -22q-25 -28 -25 -85q0 -53 13 -75t55 -40l80 -33q59 -24 79.5 -66t20.5 -129q0 -111 -44 -155q-45 -43 -126 -43q-82 0 -125 43q-24 24 -34 58t-10 92h86q0 -68 24 -93q20 -22 59 -22
q40 0 61 23q23 25 23 95q0 62 -13.5 87.5t-56.5 43.5l-81 33q-55 23 -76 60.5t-21 117.5q0 97 54 146q44 41 113 41zM320 897l-81 -135h-62l69 135h74z" />
    <glyph glyph-name="sacute" unicode="&#x15b;" horiz-adv-x="359" 
d="M179 526q64 0 101 -37q42 -40 42 -114h-80q0 42 -19 62q-17 18 -44 18q-28 0 -45 -17q-19 -19 -19 -50q0 -22 9 -38q11 -19 43 -34l66 -33q52 -25 73 -59q22 -33 22 -83q0 -64 -44 -108q-40 -41 -106 -41t-104 40q-44 45 -44 114h80q0 -40 22 -63q18 -18 46 -18
q30 0 49 19q20 20 20 52q0 27 -13 47t-46 37l-67 34q-50 25 -71 60q-16 28 -16 68q0 62 43 105q39 39 102 39zM285 721l-81 -135h-61l68 135h74z" />
    <glyph glyph-name="Scircumflex" unicode="&#x15c;" horiz-adv-x="420" 
d="M210 718q75 0 118 -41q47 -46 47 -146h-86q0 59 -22 86q-19 24 -58 24q-35 0 -55 -22q-25 -28 -25 -85q0 -53 13 -75t55 -40l80 -33q59 -24 79.5 -66t20.5 -129q0 -111 -44 -155q-45 -43 -126 -43q-82 0 -125 43q-24 24 -34 58t-10 92h86q0 -68 24 -93q20 -22 59 -22
q40 0 61 23q23 25 23 95q0 62 -13.5 87.5t-56.5 43.5l-81 33q-55 23 -76 60.5t-21 117.5q0 97 54 146q44 41 113 41zM247 897l93 -135h-66l-60 87l-60 -87h-66l93 135h66z" />
    <glyph glyph-name="scircumflex" unicode="&#x15d;" horiz-adv-x="359" 
d="M179 526q64 0 101 -37q42 -40 42 -114h-80q0 42 -19 62q-17 18 -44 18q-28 0 -45 -17q-19 -19 -19 -50q0 -22 9 -38q11 -19 43 -34l66 -33q52 -25 73 -59q22 -33 22 -83q0 -64 -44 -108q-40 -41 -106 -41t-104 40q-44 45 -44 114h80q0 -40 22 -63q18 -18 46 -18
q30 0 49 19q20 20 20 52q0 27 -13 47t-46 37l-67 34q-50 25 -71 60q-16 28 -16 68q0 62 43 105q39 39 102 39zM216 721l93 -135h-67l-60 87l-59 -87h-67l93 135h67z" />
    <glyph glyph-name="Scedilla" unicode="&#x15e;" horiz-adv-x="420" 
d="M210 718q75 0 118 -41q47 -46 47 -146h-86q0 59 -22 86q-19 24 -58 24q-35 0 -55 -22q-25 -28 -25 -85q0 -53 13 -75t55 -40l80 -33q59 -24 79.5 -66t20.5 -129q0 -111 -44 -155q-45 -43 -126 -43q-82 0 -125 43q-24 24 -34 58t-10 92h86q0 -68 24 -93q20 -22 59 -22
q40 0 61 23q23 25 23 95q0 62 -13.5 87.5t-56.5 43.5l-81 33q-55 23 -76 60.5t-21 117.5q0 97 54 146q44 41 113 41zM240 -38l-50 -144h-64l57 144h57z" />
    <glyph glyph-name="scedilla" unicode="&#x15f;" horiz-adv-x="359" 
d="M179 526q64 0 101 -37q42 -40 42 -114h-80q0 42 -19 62q-17 18 -44 18q-28 0 -45 -17q-19 -19 -19 -50q0 -22 9 -38q11 -19 43 -34l66 -33q52 -25 73 -59q22 -33 22 -83q0 -64 -44 -108q-40 -41 -106 -41t-104 40q-44 45 -44 114h80q0 -40 22 -63q18 -18 46 -18
q30 0 49 19q20 20 20 52q0 27 -13 47t-46 37l-67 34q-50 25 -71 60q-16 28 -16 68q0 62 43 105q39 39 102 39zM218 -38l-50 -144h-64l57 144h57z" />
    <glyph glyph-name="Scaron" unicode="&#x160;" horiz-adv-x="420" 
d="M210 718q75 0 118 -41q47 -46 47 -146h-86q0 59 -22 86q-19 24 -58 24q-35 0 -55 -22q-25 -28 -25 -85q0 -53 13 -75t55 -40l80 -33q59 -24 79.5 -66t20.5 -129q0 -111 -44 -155q-45 -43 -126 -43q-82 0 -125 43q-24 24 -34 58t-10 92h86q0 -68 24 -93q20 -22 59 -22
q40 0 61 23q23 25 23 95q0 62 -13.5 87.5t-56.5 43.5l-81 33q-55 23 -76 60.5t-21 117.5q0 97 54 146q44 41 113 41zM340 892l-93 -135h-67l-93 135h67l59 -87l60 87h67z" />
    <glyph glyph-name="scaron" unicode="&#x161;" horiz-adv-x="359" 
d="M179 526q64 0 101 -37q42 -40 42 -114h-80q0 42 -19 62q-17 18 -44 18q-28 0 -45 -17q-19 -19 -19 -50q0 -22 9 -38q11 -19 43 -34l66 -33q52 -25 73 -59q22 -33 22 -83q0 -64 -44 -108q-40 -41 -106 -41t-104 40q-44 45 -44 114h80q0 -40 22 -63q18 -18 46 -18
q30 0 49 19q20 20 20 52q0 27 -13 47t-46 37l-67 34q-50 25 -71 60q-16 28 -16 68q0 62 43 105q39 39 102 39zM309 717l-93 -135h-67l-93 135h67l59 -87l60 87h67z" />
    <glyph glyph-name="uni0162" unicode="&#x162;" horiz-adv-x="367" 
d="M346 712v-77h-119v-635h-86v635h-120v77h325zM209 -38l-50 -144h-64l57 144h57z" />
    <glyph glyph-name="uni0163" unicode="&#x163;" horiz-adv-x="260" 
d="M240 0q-81 0 -119 32q-45 37 -45 116v307h-59v63h59v142h81v-142h80v-63h-80v-304q0 -78 83 -78v-73zM190 -38l-50 -144h-64l57 144h57z" />
    <glyph glyph-name="Tcaron" unicode="&#x164;" horiz-adv-x="367" 
d="M346 712v-77h-119v-635h-86v635h-120v77h325zM309 892l-93 -135h-67l-93 135h67l59 -87l60 87h67z" />
    <glyph glyph-name="tcaron" unicode="&#x165;" horiz-adv-x="260" 
d="M240 0q-81 0 -119 32q-45 37 -45 116v307h-59v63h59v142h81v-142h80v-63h-80v-304q0 -78 83 -78v-73zM286 730l-34 -144h-55l23 144h66z" />
    <glyph glyph-name="Tbar" unicode="&#x166;" horiz-adv-x="367" 
d="M346 712v-77h-119v-243h66v-69h-66v-323h-86v323h-67v69h67v243h-120v77h325z" />
    <glyph glyph-name="tbar" unicode="&#x167;" horiz-adv-x="260" 
d="M240 0q-81 0 -119 32q-45 37 -45 116v128h-59v54h59v125h-59v63h59v142h81v-142h80v-63h-80v-125h70v-54h-70v-125q0 -78 83 -78v-73z" />
    <glyph glyph-name="Utilde" unicode="&#x168;" horiz-adv-x="446" 
d="M388 712v-549q0 -78 -46 -124q-45 -47 -119 -47q-73 0 -120 47q-45 47 -45 124v549h86v-546q0 -97 79 -97q37 0 58 25t21 72v546h86zM171 861q30 0 56 -17q28 -16 45 -16q21 0 44 23l38 -37q-42 -42 -80 -42q-29 0 -57 16q-30 16 -44 16q-20 0 -45 -23l-36 37
q42 43 79 43z" />
    <glyph glyph-name="utilde" unicode="&#x169;" horiz-adv-x="395" 
d="M338 518v-518h-78v40q-11 -19 -32 -32q-26 -16 -56 -16q-55 0 -88 38q-31 34 -31 107v381h81v-381q0 -34 17.5 -53.5t44.5 -19.5q26 0 43.5 19.5t17.5 53.5v381h81zM146 685q30 0 58 -17q25 -15 43 -15q21 0 44 23l38 -38q-43 -42 -80 -42q-27 0 -58 17q-25 15 -43 15
q-22 0 -45 -23l-36 38q42 42 79 42z" />
    <glyph glyph-name="Umacron" unicode="&#x16a;" horiz-adv-x="446" 
d="M388 712v-549q0 -78 -46 -124q-45 -47 -119 -47q-73 0 -120 47q-45 47 -45 124v549h86v-546q0 -97 79 -97q37 0 58 25t21 72v546h86zM337 838v-58h-228v58h228z" />
    <glyph glyph-name="umacron" unicode="&#x16b;" horiz-adv-x="395" 
d="M338 518v-518h-78v40q-11 -19 -32 -32q-26 -16 -56 -16q-55 0 -88 38q-31 34 -31 107v381h81v-381q0 -34 17.5 -53.5t44.5 -19.5q26 0 43.5 19.5t17.5 53.5v381h81zM310 665v-57h-229v57h229z" />
    <glyph glyph-name="Ubreve" unicode="&#x16c;" horiz-adv-x="446" 
d="M388 712v-549q0 -78 -46 -124q-45 -47 -119 -47q-73 0 -120 47q-45 47 -45 124v549h86v-546q0 -97 79 -97q37 0 58 25t21 72v546h86zM283 867h58q-7 -112 -118 -112q-110 0 -117 112h58q7 -53 59 -53q53 0 60 53z" />
    <glyph glyph-name="ubreve" unicode="&#x16d;" horiz-adv-x="395" 
d="M338 518v-518h-78v40q-11 -19 -32 -32q-26 -16 -56 -16q-55 0 -88 38q-31 34 -31 107v381h81v-381q0 -34 17.5 -53.5t44.5 -19.5q26 0 43.5 19.5t17.5 53.5v381h81zM255 691h58q-7 -112 -118 -112q-110 0 -117 112h58q7 -53 59 -53q53 0 60 53z" />
    <glyph glyph-name="Uring" unicode="&#x16e;" horiz-adv-x="446" 
d="M388 712v-549q0 -78 -46 -124q-45 -47 -119 -47q-73 0 -120 47q-45 47 -45 124v549h86v-546q0 -97 79 -97q37 0 58 25t21 72v546h86zM223 948q41 0 69.5 -29t28.5 -69t-28.5 -69t-69.5 -29t-69.5 29t-28.5 69t28.5 69t69.5 29zM223 899q-20 0 -34.5 -14.5t-14.5 -34.5
t14.5 -34.5t34.5 -14.5t34.5 14.5t14.5 34.5t-14.5 34.5t-34.5 14.5z" />
    <glyph glyph-name="uring" unicode="&#x16f;" horiz-adv-x="395" 
d="M338 518v-518h-78v40q-11 -19 -32 -32q-26 -16 -56 -16q-55 0 -88 38q-31 34 -31 107v381h81v-381q0 -34 17.5 -53.5t44.5 -19.5q26 0 43.5 19.5t17.5 53.5v381h81zM195 779q41 0 69.5 -28.5t28.5 -69.5t-28.5 -69.5t-69.5 -28.5q-40 0 -68.5 29t-28.5 69t28.5 69
t68.5 29zM195 730q-20 0 -34.5 -14.5t-14.5 -34.5t14.5 -34.5t34.5 -14.5t35 14.5t15 34.5t-15 34.5t-35 14.5z" />
    <glyph glyph-name="Uhungarumlaut" unicode="&#x170;" horiz-adv-x="446" 
d="M388 712v-549q0 -78 -46 -124q-45 -47 -119 -47q-73 0 -120 47q-45 47 -45 124v549h86v-546q0 -97 79 -97q37 0 58 25t21 72v546h86zM182 897h74l-68 -135h-59zM308 897h74l-69 -135h-58z" />
    <glyph glyph-name="uhungarumlaut" unicode="&#x171;" horiz-adv-x="395" 
d="M338 518v-518h-78v40q-11 -19 -32 -32q-26 -16 -56 -16q-55 0 -88 38q-31 34 -31 107v381h81v-381q0 -34 17.5 -53.5t44.5 -19.5q26 0 43.5 19.5t17.5 53.5v381h81zM154 721h74l-69 -135h-58zM279 721h74l-68 -135h-58z" />
    <glyph glyph-name="Uogonek" unicode="&#x172;" horiz-adv-x="446" 
d="M388 712v-549q0 -78 -46 -124q-45 -47 -119 -47q-73 0 -120 47q-45 47 -45 124v549h86v-546q0 -97 79 -97q37 0 58 25t21 72v546h86zM334 -38l-50 -144h-64l57 144h57z" />
    <glyph glyph-name="uogonek" unicode="&#x173;" horiz-adv-x="395" 
d="M338 518v-518h-78v40q-11 -19 -32 -32q-26 -16 -56 -16q-55 0 -88 38q-31 34 -31 107v381h81v-381q0 -34 17.5 -53.5t44.5 -19.5q26 0 43.5 19.5t17.5 53.5v381h81zM334 -38l-50 -144h-64l57 144h57z" />
    <glyph glyph-name="Wcircumflex" unicode="&#x174;" horiz-adv-x="652" 
d="M4 712h94l74 -573l108 573h92l109 -573l73 573h94l-123 -712h-87l-112 573l-111 -573h-87zM359 897l93 -135h-66l-60 87l-60 -87h-66l93 135h66z" />
    <glyph glyph-name="wcircumflex" unicode="&#x175;" horiz-adv-x="526" 
d="M4 518h89l60 -385l73 385h70l75 -385l61 385h90l-109 -518h-79l-73 374l-71 -374h-79zM297 721l93 -135h-67l-60 87l-59 -87h-67l93 135h67z" />
    <glyph glyph-name="Ycircumflex" unicode="&#x176;" horiz-adv-x="353" 
d="M351 712l-132 -424v-288h-86v288l-131 424h94l80 -304l80 304h95zM209 897l93 -135h-66l-60 87l-60 -87h-66l93 135h66z" />
    <glyph glyph-name="ycircumflex" unicode="&#x177;" horiz-adv-x="343" 
d="M339 518l-146 -601q-15 -65 -57.5 -88t-114.5 -23v72q40 0 62 13t31 47l16 63l-126 517h89l79 -389l78 389h89zM204 721l93 -135h-67l-60 87l-59 -87h-67l93 135h67z" />
    <glyph glyph-name="Ydieresis" unicode="&#x178;" horiz-adv-x="353" 
d="M351 712l-132 -424v-288h-86v288l-131 424h94l80 -304l80 304h95zM295 858v-81h-82v81h82zM139 858v-81h-82v81h82z" />
    <glyph glyph-name="Zacute" unicode="&#x179;" horiz-adv-x="349" 
d="M318 712v-65l-197 -570h197v-77h-287v65l198 570h-185v77h274zM287 897l-81 -135h-62l69 135h74z" />
    <glyph glyph-name="zacute" unicode="&#x17a;" horiz-adv-x="301" 
d="M277 518v-62l-163 -383h163v-73h-253v62l163 384h-152v72h242zM260 721l-81 -135h-61l68 135h74z" />
    <glyph glyph-name="Zdotaccent" unicode="&#x17b;" horiz-adv-x="349" 
d="M318 712v-65l-197 -570h197v-77h-287v65l198 570h-185v77h274zM222 858v-81h-82v81h82z" />
    <glyph glyph-name="zdotaccent" unicode="&#x17c;" horiz-adv-x="301" 
d="M277 518v-62l-163 -383h163v-73h-253v62l163 384h-152v72h242zM198 684v-82h-81v82h81z" />
    <glyph glyph-name="Zcaron" unicode="&#x17d;" horiz-adv-x="349" 
d="M318 712v-65l-197 -570h197v-77h-287v65l198 570h-185v77h274zM307 892l-93 -135h-67l-93 135h67l59 -87l60 87h67z" />
    <glyph glyph-name="zcaron" unicode="&#x17e;" horiz-adv-x="301" 
d="M277 518v-62l-163 -383h163v-73h-253v62l163 384h-152v72h242zM284 717l-93 -135h-67l-93 135h67l59 -87l60 87h67z" />
    <glyph glyph-name="longs" unicode="&#x17f;" horiz-adv-x="195" 
d="M216 712v-73q-78 0 -78 -80v-559h-81v564q0 77 46 116q38 32 113 32z" />
    <glyph glyph-name="uni018E" unicode="&#x18e;" horiz-adv-x="380" 
d="M41 712h275v-712h-275v77h189v247h-163v77h163v234h-189v77z" />
    <glyph glyph-name="uni018F" unicode="&#x18f;" horiz-adv-x="433" 
d="M212 720q77 0 122 -52q33 -38 42.5 -99t9.5 -213t-9.5 -213t-42.5 -99q-45 -52 -122 -52q-73 0 -119 46.5t-46 132.5v224h253q-2 112 -7.5 155.5t-22.5 65.5q-20 27 -58 27q-79 0 -79 -108h-86q2 95 49 141q46 44 116 44zM300 324h-167v-156q0 -44 21 -71.5t58 -27.5
q38 0 58 27q17 22 22.5 66.5t7.5 161.5z" />
    <glyph glyph-name="florin" unicode="&#x192;" horiz-adv-x="351" 
d="M329 716v-72h-30q-29 0 -49.5 -17.5t-26.5 -48.5l-35 -193h79v-62h-90l-97 -517h-80l96 517h-57v62h69l35 197q12 66 54 100t102 34h30z" />
    <glyph glyph-name="Ohorn" unicode="&#x1a0;" horiz-adv-x="452" 
d="M222 -8q-77 0 -122 52q-33 38 -42.5 99t-9.5 213t9.5 213t42.5 99q45 52 122 52q78 0 123 -52q17 -19 28 -46h8q41 0 41 67v51h65v-61q0 -58 -23.5 -86t-75.5 -30q8 -54 8 -207q0 -154 -9 -214.5t-42 -97.5q-45 -52 -123 -52zM222 69q39 0 58 27q19 25 24.5 76.5
t5.5 183.5t-5.5 183.5t-24.5 76.5q-19 27 -58 27t-58 -27q-19 -25 -24.5 -76.5t-5.5 -183.5t5.5 -183.5t24.5 -76.5q19 -27 58 -27z" />
    <glyph glyph-name="ohorn" unicode="&#x1a1;" horiz-adv-x="408" 
d="M365 546h62v-51q0 -58 -23 -85.5t-74 -29.5q5 -43 5 -121q0 -88 -7.5 -139t-29.5 -80q-36 -48 -110 -48q-73 0 -109 48q-22 29 -30 80.5t-8 138.5t8 138.5t30 80.5q36 48 109 48q74 0 110 -48q14 -16 21 -42h4q42 0 42 68v42zM234 87q13 18 16.5 55t3.5 117t-3.5 117
t-16.5 55q-16 23 -46 23q-29 0 -45 -23q-13 -18 -17 -56t-4 -116t4 -116t17 -56q16 -23 45 -23q30 0 46 23z" />
    <glyph glyph-name="Uhorn" unicode="&#x1af;" horiz-adv-x="476" 
d="M507 740v-63q0 -60 -26 -88t-83 -28h-10v-398q0 -78 -46 -124q-45 -47 -119 -47q-73 0 -120 47q-45 47 -45 124v549h86v-546q0 -97 79 -97q37 0 58 25t21 72v546h86v-92h13q41 0 41 67v53h65z" />
    <glyph glyph-name="uhorn" unicode="&#x1b0;" horiz-adv-x="428" 
d="M388 546h63v-51q0 -59 -24.5 -86.5t-78.5 -28.5h-10v-380h-78v40q-11 -19 -32 -32q-26 -16 -56 -16q-55 0 -88 38q-31 34 -31 107v381h81v-381q0 -34 17.5 -53.5t44.5 -19.5q26 0 43.5 19.5t17.5 53.5v381h81v-82h8q42 0 42 68v42z" />
    <glyph glyph-name="uni01B5" unicode="&#x1b5;" horiz-adv-x="349" 
d="M318 712v-65l-88 -255h55v-69h-79l-85 -246h197v-77h-287v65l90 258h-55v69h79l84 243h-185v77h274z" />
    <glyph glyph-name="uni01B6" unicode="&#x1b6;" horiz-adv-x="301" 
d="M277 518v-62l-73 -171h59v-54h-82l-67 -158h163v-73h-253v62l72 169h-55v54h78l68 161h-152v72h242z" />
    <glyph glyph-name="uni01CD" unicode="&#x1cd;" horiz-adv-x="425" 
d="M5 0l166 712h83l166 -712h-91l-34 168h-166l-34 -168h-90zM145 245h134l-67 328zM339 892l-93 -135h-67l-93 135h67l59 -87l60 87h67z" />
    <glyph glyph-name="uni01CE" unicode="&#x1ce;" horiz-adv-x="375" 
d="M180 526q65 0 101 -36q41 -43 41 -114v-376h-77v46q-12 -20 -30 -35q-25 -19 -61 -19q-54 0 -89 39q-33 38 -33 116q0 76 46 117q40 35 110 35h53v82q0 74 -61 74q-23 0 -40 -17q-19 -20 -19 -60h-81q0 70 40 110q38 38 100 38zM241 240h-46q-38 0 -58 -19
q-24 -22 -24 -71q0 -87 63 -87q29 0 47 22.5t18 58.5v96zM310 717l-93 -135h-67l-93 135h67l59 -87l60 87h67z" />
    <glyph glyph-name="uni01CF" unicode="&#x1cf;" horiz-adv-x="214" 
d="M150 712v-712h-86v712h86zM234 892l-93 -135h-67l-93 135h67l59 -87l60 87h67z" />
    <glyph glyph-name="uni01D0" unicode="&#x1d0;" horiz-adv-x="195" 
d="M138 518v-518h-81v518h81zM224 717l-93 -135h-67l-93 135h67l59 -87l60 87h67z" />
    <glyph glyph-name="uni01D1" unicode="&#x1d1;" horiz-adv-x="442" 
d="M221 -8q-77 0 -122 52q-33 38 -42.5 99t-9.5 213t9.5 213t42.5 99q45 52 122 52q78 0 123 -52q33 -37 42 -97.5t9 -214.5t-9 -214.5t-42 -97.5q-45 -52 -123 -52zM221 69q39 0 58 27q19 25 24.5 76.5t5.5 183.5t-5.5 183.5t-24.5 76.5q-19 27 -58 27t-58 -27
q-19 -25 -24.5 -76.5t-5.5 -183.5t5.5 -183.5t24.5 -76.5q19 -27 58 -27zM347 892l-93 -135h-67l-93 135h67l59 -87l60 87h67z" />
    <glyph glyph-name="uni01D2" unicode="&#x1d2;" 
d="M188 526q74 0 110 -48q22 -29 29.5 -80t7.5 -139t-7.5 -139t-29.5 -80q-36 -48 -110 -48q-73 0 -109 48q-22 29 -30 80.5t-8 138.5t8 138.5t30 80.5q36 48 109 48zM188 454q-29 0 -45 -23q-13 -18 -17 -56t-4 -116t4 -116t17 -56q16 -23 45 -23q30 0 46 23q13 18 16.5 55
t3.5 117t-3.5 117t-16.5 55q-16 23 -46 23zM314 717l-93 -135h-67l-93 135h67l59 -87l60 87h67z" />
    <glyph glyph-name="uni01D3" unicode="&#x1d3;" horiz-adv-x="446" 
d="M388 712v-549q0 -78 -46 -124q-45 -47 -119 -47q-73 0 -120 47q-45 47 -45 124v549h86v-546q0 -97 79 -97q37 0 58 25t21 72v546h86zM349 892l-93 -135h-67l-93 135h67l59 -87l60 87h67z" />
    <glyph glyph-name="uni01D4" unicode="&#x1d4;" horiz-adv-x="395" 
d="M338 518v-518h-78v40q-11 -19 -32 -32q-26 -16 -56 -16q-55 0 -88 38q-31 34 -31 107v381h81v-381q0 -34 17.5 -53.5t44.5 -19.5q26 0 43.5 19.5t17.5 53.5v381h81zM322 717l-93 -135h-67l-93 135h67l59 -87l60 87h67z" />
    <glyph glyph-name="uni01D5" unicode="&#x1d5;" horiz-adv-x="446" 
d="M337 976v-58h-228v58h228zM388 712v-549q0 -78 -46 -124q-45 -47 -119 -47q-73 0 -120 47q-45 47 -45 124v549h86v-546q0 -97 79 -97q37 0 58 25t21 72v546h86zM342 858v-81h-82v81h82zM186 858v-81h-82v81h82z" />
    <glyph glyph-name="uni01D6" unicode="&#x1d6;" horiz-adv-x="395" 
d="M310 803v-57h-229v57h229zM338 518v-518h-78v40q-11 -19 -32 -32q-26 -16 -56 -16q-55 0 -88 38q-31 34 -31 107v381h81v-381q0 -34 17.5 -53.5t44.5 -19.5q26 0 43.5 19.5t17.5 53.5v381h81zM158 684v-82h-82v82h82zM315 684v-82h-82v82h82z" />
    <glyph glyph-name="uni01D7" unicode="&#x1d7;" horiz-adv-x="446" 
d="M329 1035l-81 -135h-62l69 135h74zM388 712v-549q0 -78 -46 -124q-45 -47 -119 -47q-73 0 -120 47q-45 47 -45 124v549h86v-546q0 -97 79 -97q37 0 58 25t21 72v546h86zM342 858v-81h-82v81h82zM186 858v-81h-82v81h82z" />
    <glyph glyph-name="uni01D8" unicode="&#x1d8;" horiz-adv-x="395" 
d="M298 859l-81 -135h-61l68 135h74zM338 518v-518h-78v40q-11 -19 -32 -32q-26 -16 -56 -16q-55 0 -88 38q-31 34 -31 107v381h81v-381q0 -34 17.5 -53.5t44.5 -19.5q26 0 43.5 19.5t17.5 53.5v381h81zM158 684v-82h-82v82h82zM315 684v-82h-82v82h82z" />
    <glyph glyph-name="uni01D9" unicode="&#x1d9;" horiz-adv-x="446" 
d="M349 1030l-93 -135h-67l-93 135h67l59 -87l60 87h67zM388 712v-549q0 -78 -46 -124q-45 -47 -119 -47q-73 0 -120 47q-45 47 -45 124v549h86v-546q0 -97 79 -97q37 0 58 25t21 72v546h86zM342 858v-81h-82v81h82zM186 858v-81h-82v81h82z" />
    <glyph glyph-name="uni01DA" unicode="&#x1da;" horiz-adv-x="395" 
d="M322 855l-93 -135h-67l-93 135h67l59 -87l60 87h67zM338 518v-518h-78v40q-11 -19 -32 -32q-26 -16 -56 -16q-55 0 -88 38q-31 34 -31 107v381h81v-381q0 -34 17.5 -53.5t44.5 -19.5q26 0 43.5 19.5t17.5 53.5v381h81zM158 684v-82h-82v82h82zM315 684v-82h-82v82h82z
" />
    <glyph glyph-name="uni01DB" unicode="&#x1db;" horiz-adv-x="446" 
d="M191 1035l69 -135h-62l-81 135h74zM388 712v-549q0 -78 -46 -124q-45 -47 -119 -47q-73 0 -120 47q-45 47 -45 124v549h86v-546q0 -97 79 -97q37 0 58 25t21 72v546h86zM342 858v-81h-82v81h82zM186 858v-81h-82v81h82z" />
    <glyph glyph-name="uni01DC" unicode="&#x1dc;" horiz-adv-x="395" 
d="M165 859l69 -135h-62l-81 135h74zM338 518v-518h-78v40q-11 -19 -32 -32q-26 -16 -56 -16q-55 0 -88 38q-31 34 -31 107v381h81v-381q0 -34 17.5 -53.5t44.5 -19.5q26 0 43.5 19.5t17.5 53.5v381h81zM158 684v-82h-82v82h82zM315 684v-82h-82v82h82z" />
    <glyph glyph-name="uni01DD" unicode="&#x1dd;" 
d="M41 278h213q0 126 -21 153q-15 22 -46 22q-29 0 -46 -20t-17 -60h-81q1 72 42 115q37 38 102 38q66 0 103 -40q27 -29 36.5 -83t9.5 -144q0 -91 -9 -144.5t-36 -82.5q-37 -40 -102 -40t-102 40q-28 29 -37 85t-9 161zM123 217q0 -107 20 -131q16 -21 46 -21q29 0 45 21
q20 24 20 131h-131z" />
    <glyph glyph-name="uni01DE" unicode="&#x1de;" horiz-adv-x="425" 
d="M327 976v-58h-228v58h228zM5 0l166 712h83l166 -712h-91l-34 168h-166l-34 -168h-90zM145 245h134l-67 328zM332 858v-81h-82v81h82zM176 858v-81h-82v81h82z" />
    <glyph glyph-name="uni01DF" unicode="&#x1df;" horiz-adv-x="375" 
d="M298 803v-57h-229v57h229zM180 526q65 0 101 -36q41 -43 41 -114v-376h-77v46q-12 -20 -30 -35q-25 -19 -61 -19q-54 0 -89 39q-33 38 -33 116q0 76 46 117q40 35 110 35h53v82q0 74 -61 74q-23 0 -40 -17q-19 -20 -19 -60h-81q0 70 40 110q38 38 100 38zM241 240h-46
q-38 0 -58 -19q-24 -22 -24 -71q0 -87 63 -87q29 0 47 22.5t18 58.5v96zM146 684v-82h-82v82h82zM303 684v-82h-82v82h82z" />
    <glyph glyph-name="uni01E0" unicode="&#x1e0;" horiz-adv-x="425" 
d="M327 976v-58h-228v58h228zM5 0l166 712h83l166 -712h-91l-34 168h-166l-34 -168h-90zM145 245h134l-67 328zM254 858v-81h-82v81h82z" />
    <glyph glyph-name="uni01E1" unicode="&#x1e1;" horiz-adv-x="375" 
d="M298 803v-57h-229v57h229zM180 526q65 0 101 -36q41 -43 41 -114v-376h-77v46q-12 -20 -30 -35q-25 -19 -61 -19q-54 0 -89 39q-33 38 -33 116q0 76 46 117q40 35 110 35h53v82q0 74 -61 74q-23 0 -40 -17q-19 -20 -19 -60h-81q0 70 40 110q38 38 100 38zM241 240h-46
q-38 0 -58 -19q-24 -22 -24 -71q0 -87 63 -87q29 0 47 22.5t18 58.5v96zM224 684v-82h-81v82h81z" />
    <glyph glyph-name="uni01E2" unicode="&#x1e2;" horiz-adv-x="640" 
d="M599 712v-77h-189v-234h163v-77h-163v-247h189v-77h-275v172h-163l-61 -172h-95l263 712h331zM324 635l-136 -385h136v385zM579 838v-58h-228v58h228z" />
    <glyph glyph-name="uni01E3" unicode="&#x1e3;" horiz-adv-x="576" 
d="M154 -8q-54 0 -89 39q-33 38 -33 116q0 76 46 117q40 35 110 35h53v82q0 74 -61 74q-23 0 -40 -17q-19 -20 -19 -60h-81q0 70 40 110q38 38 100 38q54 0 85 -26q10 -8 20 -22q3 5 15 17q36 31 88 31q63 0 102 -40q27 -29 36 -84.5t9 -161.5h-213q0 -126 21 -153
q17 -22 46 -22q28 0 46 20q18 19 18 60h80q-2 -71 -41 -115q-37 -38 -103 -38q-50 0 -86 28q-20 16 -36 44q-19 -34 -39 -49q-30 -23 -74 -23zM322 301h131q0 107 -20 131q-16 21 -46 21q-29 0 -45 -21q-20 -24 -20 -131zM176 63q29 0 47 22.5t18 58.5v96h-46q-38 0 -58 -19
q-24 -22 -24 -71q0 -87 63 -87zM398 665v-57h-229v57h229z" />
    <glyph glyph-name="Gcaron" unicode="&#x1e6;" horiz-adv-x="434" 
d="M221 720q71 0 115 -44q47 -47 49 -140h-85q-2 107 -79 107q-39 0 -59 -27q-18 -25 -23.5 -77t-5.5 -183t5.5 -183t23.5 -77q20 -27 59 -27q37 0 58 27.5t21 71.5v143h-79v71h165v-211q0 -86 -46 -132.5t-119 -46.5q-75 0 -122 52q-33 37 -42.5 97.5t-9.5 214.5t9.5 214.5
t42.5 97.5q47 52 122 52zM347 892l-93 -135h-67l-93 135h67l59 -87l60 87h67z" />
    <glyph glyph-name="gcaron" unicode="&#x1e7;" horiz-adv-x="387" 
d="M166 526q34 0 56 -16q15 -10 30 -28v36h78v-536q0 -100 -42 -145q-37 -39 -102 -39t-103 37q-40 40 -40 112h81q0 -43 18 -62q13 -16 44 -16q28 0 44 18q19 20 19 91v75q-11 -17 -28 -29q-23 -17 -55 -17q-51 0 -84 39q-24 27 -32.5 75t-8.5 146t8.5 146t32.5 76
q33 37 84 37zM187 454q-25 0 -44 -22q-13 -16 -17 -50t-4 -116t4 -116t17 -50q19 -21 44 -21t43 16q19 19 19 60v223q0 40 -19 59q-17 17 -43 17zM314 717l-93 -135h-67l-93 135h67l59 -87l60 87h67z" />
    <glyph glyph-name="uni01E8" unicode="&#x1e8;" horiz-adv-x="446" 
d="M410 712l-144 -294l165 -418h-93l-126 322l-62 -123v-199h-86v712h86v-361l172 361h88zM362 892l-93 -135h-67l-93 135h67l59 -87l60 87h67z" />
    <glyph glyph-name="uni01E9" unicode="&#x1e9;" horiz-adv-x="396" 
d="M138 712v-440l147 246h86l-126 -202l138 -316h-90l-99 244l-56 -89v-155h-81v712h81zM224 893l-93 -135h-67l-93 135h67l59 -87l60 87h67z" />
    <glyph glyph-name="uni01EA" unicode="&#x1ea;" horiz-adv-x="442" 
d="M221 -8q-77 0 -122 52q-33 38 -42.5 99t-9.5 213t9.5 213t42.5 99q45 52 122 52q78 0 123 -52q33 -37 42 -97.5t9 -214.5t-9 -214.5t-42 -97.5q-45 -52 -123 -52zM221 69q39 0 58 27q19 25 24.5 76.5t5.5 183.5t-5.5 183.5t-24.5 76.5q-19 27 -58 27t-58 -27
q-19 -25 -24.5 -76.5t-5.5 -183.5t5.5 -183.5t24.5 -76.5q19 -27 58 -27zM252 -38l-50 -144h-64l57 144h57z" />
    <glyph glyph-name="uni01EB" unicode="&#x1eb;" 
d="M188 526q74 0 110 -48q22 -29 29.5 -80t7.5 -139t-7.5 -139t-29.5 -80q-36 -48 -110 -48q-73 0 -109 48q-22 29 -30 80.5t-8 138.5t8 138.5t30 80.5q36 48 109 48zM188 454q-29 0 -45 -23q-13 -18 -17 -56t-4 -116t4 -116t17 -56q16 -23 45 -23q30 0 46 23q13 18 16.5 55
t3.5 117t-3.5 117t-16.5 55q-16 23 -46 23zM223 -38l-50 -144h-64l57 144h57z" />
    <glyph glyph-name="uni01EC" unicode="&#x1ec;" horiz-adv-x="442" 
d="M335 838v-58h-228v58h228zM221 -8q-77 0 -122 52q-33 38 -42.5 99t-9.5 213t9.5 213t42.5 99q45 52 122 52q78 0 123 -52q33 -37 42 -97.5t9 -214.5t-9 -214.5t-42 -97.5q-45 -52 -123 -52zM221 69q39 0 58 27q19 25 24.5 76.5t5.5 183.5t-5.5 183.5t-24.5 76.5
q-19 27 -58 27t-58 -27q-19 -25 -24.5 -76.5t-5.5 -183.5t5.5 -183.5t24.5 -76.5q19 -27 58 -27zM252 -38l-50 -144h-64l57 144h57z" />
    <glyph glyph-name="uni01ED" unicode="&#x1ed;" 
d="M302 665v-57h-229v57h229zM188 526q74 0 110 -48q22 -29 29.5 -80t7.5 -139t-7.5 -139t-29.5 -80q-36 -48 -110 -48q-73 0 -109 48q-22 29 -30 80.5t-8 138.5t8 138.5t30 80.5q36 48 109 48zM188 454q-29 0 -45 -23q-13 -18 -17 -56t-4 -116t4 -116t17 -56q16 -23 45 -23
q30 0 46 23q13 18 16.5 55t3.5 117t-3.5 117t-16.5 55q-16 23 -46 23zM223 -38l-50 -144h-64l57 144h57z" />
    <glyph glyph-name="uni01F0" unicode="&#x1f0;" horiz-adv-x="195" 
d="M138 518v-564q0 -78 -46 -116q-38 -32 -113 -32v73q39 0 58.5 18t19.5 60v561h81zM224 717l-93 -135h-67l-93 135h67l59 -87l60 87h67z" />
    <glyph glyph-name="uni01F4" unicode="&#x1f4;" horiz-adv-x="434" 
d="M221 720q71 0 115 -44q47 -47 49 -140h-85q-2 107 -79 107q-39 0 -59 -27q-18 -25 -23.5 -77t-5.5 -183t5.5 -183t23.5 -77q20 -27 59 -27q37 0 58 27.5t21 71.5v143h-79v71h165v-211q0 -86 -46 -132.5t-119 -46.5q-75 0 -122 52q-33 37 -42.5 97.5t-9.5 214.5t9.5 214.5
t42.5 97.5q47 52 122 52zM327 897l-81 -135h-62l69 135h74z" />
    <glyph glyph-name="uni01F5" unicode="&#x1f5;" horiz-adv-x="387" 
d="M166 526q34 0 56 -16q15 -10 30 -28v36h78v-536q0 -100 -42 -145q-37 -39 -102 -39t-103 37q-40 40 -40 112h81q0 -43 18 -62q13 -16 44 -16q28 0 44 18q19 20 19 91v75q-11 -17 -28 -29q-23 -17 -55 -17q-51 0 -84 39q-24 27 -32.5 75t-8.5 146t8.5 146t32.5 76
q33 37 84 37zM187 454q-25 0 -44 -22q-13 -16 -17 -50t-4 -116t4 -116t17 -50q19 -21 44 -21t43 16q19 19 19 60v223q0 40 -19 59q-17 17 -43 17zM290 721l-81 -135h-61l68 135h74z" />
    <glyph glyph-name="uni01F8" unicode="&#x1f8;" horiz-adv-x="476" 
d="M412 712v-712h-78l-184 487v-487h-86v712h80l182 -487v487h86zM206 897l69 -135h-62l-81 135h74z" />
    <glyph glyph-name="uni01F9" unicode="&#x1f9;" horiz-adv-x="395" 
d="M223 526q55 0 88 -38q31 -34 31 -107v-381h-81v381q0 34 -17.5 53.5t-44.5 19.5q-26 0 -43.5 -19.5t-17.5 -53.5v-381h-81v518h78v-40q11 19 32 32q26 16 56 16zM169 721l69 -135h-62l-81 135h74z" />
    <glyph glyph-name="Aringacute" unicode="&#x1fa;" horiz-adv-x="425" 
d="M319 1031l-81 -135h-62l69 135h74zM259 690l161 -690h-91l-34 168h-166l-34 -168h-90l161 691q-51 29 -51 82q0 41 28.5 69.5t69.5 28.5t69.5 -28.5t28.5 -69.5q0 -54 -52 -83zM213 822q-20 0 -34.5 -14.5t-14.5 -34.5t14.5 -34.5t34.5 -14.5t34.5 14.5t14.5 34.5
t-14.5 34.5t-34.5 14.5zM145 245h134l-67 328z" />
    <glyph glyph-name="aringacute" unicode="&#x1fb;" horiz-adv-x="375" 
d="M286 938l-81 -135h-61l68 135h74zM180 526q65 0 101 -36q41 -43 41 -114v-376h-77v46q-12 -20 -30 -35q-25 -19 -61 -19q-54 0 -89 39q-33 38 -33 116q0 76 46 117q40 35 110 35h53v82q0 74 -61 74q-23 0 -40 -17q-19 -20 -19 -60h-81q0 70 40 110q38 38 100 38zM241 240
h-46q-38 0 -58 -19q-24 -22 -24 -71q0 -87 63 -87q29 0 47 22.5t18 58.5v96zM183 779q41 0 69.5 -28.5t28.5 -69.5t-28.5 -69.5t-69.5 -28.5q-40 0 -68.5 29t-28.5 69t28.5 69t68.5 29zM183 730q-20 0 -34.5 -14.5t-14.5 -34.5t14.5 -34.5t34.5 -14.5t35 14.5t15 34.5
t-15 34.5t-35 14.5z" />
    <glyph glyph-name="AEacute" unicode="&#x1fc;" horiz-adv-x="640" 
d="M599 712v-77h-189v-234h163v-77h-163v-247h189v-77h-275v172h-163l-61 -172h-95l263 712h331zM324 635l-136 -385h136v385zM571 897l-81 -135h-62l69 135h74z" />
    <glyph glyph-name="aeacute" unicode="&#x1fd;" horiz-adv-x="576" 
d="M154 -8q-54 0 -89 39q-33 38 -33 116q0 76 46 117q40 35 110 35h53v82q0 74 -61 74q-23 0 -40 -17q-19 -20 -19 -60h-81q0 70 40 110q38 38 100 38q54 0 85 -26q10 -8 20 -22q3 5 15 17q36 31 88 31q63 0 102 -40q27 -29 36 -84.5t9 -161.5h-213q0 -126 21 -153
q17 -22 46 -22q28 0 46 20q18 19 18 60h80q-2 -71 -41 -115q-37 -38 -103 -38q-50 0 -86 28q-20 16 -36 44q-19 -34 -39 -49q-30 -23 -74 -23zM322 301h131q0 107 -20 131q-16 21 -46 21q-29 0 -45 -21q-20 -24 -20 -131zM176 63q29 0 47 22.5t18 58.5v96h-46q-38 0 -58 -19
q-24 -22 -24 -71q0 -87 63 -87zM386 721l-81 -135h-61l68 135h74z" />
    <glyph glyph-name="Oslashacute" unicode="&#x1fe;" horiz-adv-x="442" 
d="M384 756l-32 -97q27 -36 35 -98t8 -205q0 -154 -9.5 -214.5t-42.5 -97.5q-47 -52 -122 -52q-49 0 -83 20l-19 -56h-62l34 96q-28 36 -36 98t-8 206q0 154 9.5 214.5t42.5 97.5q47 52 122 52q48 0 83 -20l18 56h62zM301 531l-136 -440q19 -22 56 -22q38 0 58 27
q19 25 24.5 76.5t5.5 183.5q0 135 -8 175zM221 643q-39 0 -59 -27q-18 -25 -23.5 -77t-5.5 -183q0 -135 8 -176l136 441q-20 22 -56 22zM327 897l-81 -135h-62l69 135h74z" />
    <glyph glyph-name="oslashacute" unicode="&#x1ff;" horiz-adv-x="375" 
d="M36 -44l36 92q-32 50 -32 211q0 87 8 138.5t30 80.5q36 48 109 48q42 0 73 -16l21 52h58l-37 -91q32 -48 32 -212q0 -88 -7.5 -139t-29.5 -80q-36 -48 -110 -48q-42 0 -73 16l-20 -52h-58zM187 64q30 0 46 23q13 18 16.5 55t3.5 117q0 77 -2 104l-105 -280q16 -19 41 -19
zM124 156l105 280q-16 18 -42 18q-29 0 -45 -23q-13 -18 -17 -56t-4 -116q0 -76 3 -103zM290 721l-81 -135h-61l68 135h74z" />
    <glyph glyph-name="uni0200" unicode="&#x200;" horiz-adv-x="425" 
d="M5 0l166 712h83l166 -712h-91l-34 168h-166l-34 -168h-90zM145 245h134l-67 328zM36 896h74l68 -135h-61zM163 896h74l69 -135h-62z" />
    <glyph glyph-name="uni0201" unicode="&#x201;" horiz-adv-x="375" 
d="M180 526q65 0 101 -36q41 -43 41 -114v-376h-77v46q-12 -20 -30 -35q-25 -19 -61 -19q-54 0 -89 39q-33 38 -33 116q0 76 46 117q40 35 110 35h53v82q0 74 -61 74q-23 0 -40 -17q-19 -20 -19 -60h-81q0 70 40 110q38 38 100 38zM241 240h-46q-38 0 -58 -19
q-24 -22 -24 -71q0 -87 63 -87q29 0 47 22.5t18 58.5v96zM9 721h74l68 -135h-61zM136 721h74l69 -135h-62z" />
    <glyph glyph-name="uni0202" unicode="&#x202;" horiz-adv-x="425" 
d="M5 0l166 712h83l166 -712h-91l-34 168h-166l-34 -168h-90zM145 245h134l-67 328zM212 874q111 0 118 -112h-58q-7 53 -60 53q-52 0 -59 -53h-58q7 112 117 112z" />
    <glyph glyph-name="uni0203" unicode="&#x203;" horiz-adv-x="375" 
d="M180 526q65 0 101 -36q41 -43 41 -114v-376h-77v46q-12 -20 -30 -35q-25 -19 -61 -19q-54 0 -89 39q-33 38 -33 116q0 76 46 117q40 35 110 35h53v82q0 74 -61 74q-23 0 -40 -17q-19 -20 -19 -60h-81q0 70 40 110q38 38 100 38zM241 240h-46q-38 0 -58 -19
q-24 -22 -24 -71q0 -87 63 -87q29 0 47 22.5t18 58.5v96zM183 698q111 0 118 -112h-58q-7 53 -60 53q-52 0 -59 -53h-58q7 112 117 112z" />
    <glyph glyph-name="uni0204" unicode="&#x204;" horiz-adv-x="380" 
d="M339 712v-77h-189v-234h163v-77h-163v-247h189v-77h-275v712h275zM28 896h74l68 -135h-61zM155 896h74l69 -135h-62z" />
    <glyph glyph-name="uni0205" unicode="&#x205;" 
d="M335 240h-213q0 -126 21 -153q15 -22 46 -22q29 0 46 20t17 60h81q-1 -72 -42 -115q-37 -38 -102 -38q-66 0 -103 40q-27 29 -36.5 83t-9.5 144q0 91 9 144.5t36 82.5q37 40 102 40t102 -40q28 -29 37 -85t9 -161zM253 301q0 107 -20 131q-16 21 -46 21q-29 0 -45 -21
q-20 -24 -20 -131h131zM13 721h74l68 -135h-61zM140 721h74l69 -135h-62z" />
    <glyph glyph-name="uni0206" unicode="&#x206;" horiz-adv-x="380" 
d="M339 712v-77h-189v-234h163v-77h-163v-247h189v-77h-275v712h275zM204 874q111 0 118 -112h-58q-7 53 -60 53q-52 0 -59 -53h-58q7 112 117 112z" />
    <glyph glyph-name="uni0207" unicode="&#x207;" 
d="M335 240h-213q0 -126 21 -153q15 -22 46 -22q29 0 46 20t17 60h81q-1 -72 -42 -115q-37 -38 -102 -38q-66 0 -103 40q-27 29 -36.5 83t-9.5 144q0 91 9 144.5t36 82.5q37 40 102 40t102 -40q28 -29 37 -85t9 -161zM253 301q0 107 -20 131q-16 21 -46 21q-29 0 -45 -21
q-20 -24 -20 -131h131zM187 698q111 0 118 -112h-58q-7 53 -60 53q-52 0 -59 -53h-58q7 112 117 112z" />
    <glyph glyph-name="uni0208" unicode="&#x208;" horiz-adv-x="214" 
d="M150 712v-712h-86v712h86zM-69 896h74l68 -135h-61zM58 896h74l69 -135h-62z" />
    <glyph glyph-name="uni0209" unicode="&#x209;" horiz-adv-x="195" 
d="M138 518v-518h-81v518h81zM-77 721h74l68 -135h-61zM50 721h74l69 -135h-62z" />
    <glyph glyph-name="uni020A" unicode="&#x20a;" horiz-adv-x="214" 
d="M150 712v-712h-86v712h86zM107 874q111 0 118 -112h-58q-7 53 -60 53q-52 0 -59 -53h-58q7 112 117 112z" />
    <glyph glyph-name="uni020B" unicode="&#x20b;" horiz-adv-x="195" 
d="M138 518v-518h-81v518h81zM97 698q111 0 118 -112h-58q-7 53 -60 53q-52 0 -59 -53h-58q7 112 117 112z" />
    <glyph glyph-name="uni020C" unicode="&#x20c;" horiz-adv-x="442" 
d="M221 -8q-77 0 -122 52q-33 38 -42.5 99t-9.5 213t9.5 213t42.5 99q45 52 122 52q78 0 123 -52q33 -37 42 -97.5t9 -214.5t-9 -214.5t-42 -97.5q-45 -52 -123 -52zM221 69q39 0 58 27q19 25 24.5 76.5t5.5 183.5t-5.5 183.5t-24.5 76.5q-19 27 -58 27t-58 -27
q-19 -25 -24.5 -76.5t-5.5 -183.5t5.5 -183.5t24.5 -76.5q19 -27 58 -27zM44 896h74l68 -135h-61zM171 896h74l69 -135h-62z" />
    <glyph glyph-name="uni020D" unicode="&#x20d;" 
d="M188 526q74 0 110 -48q22 -29 29.5 -80t7.5 -139t-7.5 -139t-29.5 -80q-36 -48 -110 -48q-73 0 -109 48q-22 29 -30 80.5t-8 138.5t8 138.5t30 80.5q36 48 109 48zM188 454q-29 0 -45 -23q-13 -18 -17 -56t-4 -116t4 -116t17 -56q16 -23 45 -23q30 0 46 23q13 18 16.5 55
t3.5 117t-3.5 117t-16.5 55q-16 23 -46 23zM13 721h74l68 -135h-61zM140 721h74l69 -135h-62z" />
    <glyph glyph-name="uni020E" unicode="&#x20e;" horiz-adv-x="442" 
d="M221 -8q-77 0 -122 52q-33 38 -42.5 99t-9.5 213t9.5 213t42.5 99q45 52 122 52q78 0 123 -52q33 -37 42 -97.5t9 -214.5t-9 -214.5t-42 -97.5q-45 -52 -123 -52zM221 69q39 0 58 27q19 25 24.5 76.5t5.5 183.5t-5.5 183.5t-24.5 76.5q-19 27 -58 27t-58 -27
q-19 -25 -24.5 -76.5t-5.5 -183.5t5.5 -183.5t24.5 -76.5q19 -27 58 -27zM220 874q111 0 118 -112h-58q-7 53 -60 53q-52 0 -59 -53h-58q7 112 117 112z" />
    <glyph glyph-name="uni020F" unicode="&#x20f;" 
d="M188 526q74 0 110 -48q22 -29 29.5 -80t7.5 -139t-7.5 -139t-29.5 -80q-36 -48 -110 -48q-73 0 -109 48q-22 29 -30 80.5t-8 138.5t8 138.5t30 80.5q36 48 109 48zM188 454q-29 0 -45 -23q-13 -18 -17 -56t-4 -116t4 -116t17 -56q16 -23 45 -23q30 0 46 23q13 18 16.5 55
t3.5 117t-3.5 117t-16.5 55q-16 23 -46 23zM187 698q111 0 118 -112h-58q-7 53 -60 53q-52 0 -59 -53h-58q7 112 117 112z" />
    <glyph glyph-name="uni0210" unicode="&#x210;" horiz-adv-x="455" 
d="M64 712h161q85 0 126.5 -45.5t41.5 -157.5q0 -75 -20 -120t-66 -66l109 -323h-91l-98 306h-77v-306h-86v712zM226 635h-76v-253h76q46 0 63.5 32t17.5 95t-17.5 94.5t-63.5 31.5zM37 896h74l68 -135h-61zM164 896h74l69 -135h-62z" />
    <glyph glyph-name="uni0211" unicode="&#x211;" horiz-adv-x="272" 
d="M256 526v-78h-24q-42 0 -68 -25.5t-26 -69.5v-353h-81v518h78v-55q11 20 36 37q37 26 85 26zM-32 721h74l68 -135h-61zM95 721h74l69 -135h-62z" />
    <glyph glyph-name="uni0212" unicode="&#x212;" horiz-adv-x="455" 
d="M64 712h161q85 0 126.5 -45.5t41.5 -157.5q0 -75 -20 -120t-66 -66l109 -323h-91l-98 306h-77v-306h-86v712zM226 635h-76v-253h76q46 0 63.5 32t17.5 95t-17.5 94.5t-63.5 31.5zM213 874q111 0 118 -112h-58q-7 53 -60 53q-52 0 -59 -53h-58q7 112 117 112z" />
    <glyph glyph-name="uni0213" unicode="&#x213;" horiz-adv-x="272" 
d="M256 526v-78h-24q-42 0 -68 -25.5t-26 -69.5v-353h-81v518h78v-55q11 20 36 37q37 26 85 26zM142 698q111 0 118 -112h-58q-7 53 -60 53q-52 0 -59 -53h-58q7 112 117 112z" />
    <glyph glyph-name="uni0214" unicode="&#x214;" horiz-adv-x="446" 
d="M388 712v-549q0 -78 -46 -124q-45 -47 -119 -47q-73 0 -120 47q-45 47 -45 124v549h86v-546q0 -97 79 -97q37 0 58 25t21 72v546h86zM46 896h74l68 -135h-61zM173 896h74l69 -135h-62z" />
    <glyph glyph-name="uni0215" unicode="&#x215;" horiz-adv-x="395" 
d="M338 518v-518h-78v40q-11 -19 -32 -32q-26 -16 -56 -16q-55 0 -88 38q-31 34 -31 107v381h81v-381q0 -34 17.5 -53.5t44.5 -19.5q26 0 43.5 19.5t17.5 53.5v381h81zM21 721h74l68 -135h-61zM148 721h74l69 -135h-62z" />
    <glyph glyph-name="uni0216" unicode="&#x216;" horiz-adv-x="446" 
d="M388 712v-549q0 -78 -46 -124q-45 -47 -119 -47q-73 0 -120 47q-45 47 -45 124v549h86v-546q0 -97 79 -97q37 0 58 25t21 72v546h86zM222 874q111 0 118 -112h-58q-7 53 -60 53q-52 0 -59 -53h-58q7 112 117 112z" />
    <glyph glyph-name="uni0217" unicode="&#x217;" horiz-adv-x="395" 
d="M338 518v-518h-78v40q-11 -19 -32 -32q-26 -16 -56 -16q-55 0 -88 38q-31 34 -31 107v381h81v-381q0 -34 17.5 -53.5t44.5 -19.5q26 0 43.5 19.5t17.5 53.5v381h81zM195 698q111 0 118 -112h-58q-7 53 -60 53q-52 0 -59 -53h-58q7 112 117 112z" />
    <glyph glyph-name="uni0218" unicode="&#x218;" horiz-adv-x="420" 
d="M210 718q75 0 118 -41q47 -46 47 -146h-86q0 59 -22 86q-19 24 -58 24q-35 0 -55 -22q-25 -28 -25 -85q0 -53 13 -75t55 -40l80 -33q59 -24 79.5 -66t20.5 -129q0 -111 -44 -155q-45 -43 -126 -43q-82 0 -125 43q-24 24 -34 58t-10 92h86q0 -68 24 -93q20 -22 59 -22
q40 0 61 23q23 25 23 95q0 62 -13.5 87.5t-56.5 43.5l-81 33q-55 23 -76 60.5t-21 117.5q0 97 54 146q44 41 113 41zM245 -38l-50 -144h-64l57 144h57z" />
    <glyph glyph-name="uni0219" unicode="&#x219;" horiz-adv-x="359" 
d="M179 526q64 0 101 -37q42 -40 42 -114h-80q0 42 -19 62q-17 18 -44 18q-28 0 -45 -17q-19 -19 -19 -50q0 -22 9 -38q11 -19 43 -34l66 -33q52 -25 73 -59q22 -33 22 -83q0 -64 -44 -108q-40 -41 -106 -41t-104 40q-44 45 -44 114h80q0 -40 22 -63q18 -18 46 -18
q30 0 49 19q20 20 20 52q0 27 -13 47t-46 37l-67 34q-50 25 -71 60q-16 28 -16 68q0 62 43 105q39 39 102 39zM218 -38l-50 -144h-64l57 144h57z" />
    <glyph glyph-name="uni021A" unicode="&#x21a;" horiz-adv-x="367" 
d="M346 712v-77h-119v-635h-86v635h-120v77h325zM214 -38l-50 -144h-64l57 144h57z" />
    <glyph glyph-name="uni021B" unicode="&#x21b;" horiz-adv-x="260" 
d="M240 0q-81 0 -119 32q-45 37 -45 116v307h-59v63h59v142h81v-142h80v-63h-80v-304q0 -78 83 -78v-73zM190 -38l-50 -144h-64l57 144h57z" />
    <glyph glyph-name="uni0226" unicode="&#x226;" horiz-adv-x="425" 
d="M5 0l166 712h83l166 -712h-91l-34 168h-166l-34 -168h-90zM145 245h134l-67 328zM254 858v-81h-82v81h82z" />
    <glyph glyph-name="uni0227" unicode="&#x227;" horiz-adv-x="375" 
d="M180 526q65 0 101 -36q41 -43 41 -114v-376h-77v46q-12 -20 -30 -35q-25 -19 -61 -19q-54 0 -89 39q-33 38 -33 116q0 76 46 117q40 35 110 35h53v82q0 74 -61 74q-23 0 -40 -17q-19 -20 -19 -60h-81q0 70 40 110q38 38 100 38zM241 240h-46q-38 0 -58 -19
q-24 -22 -24 -71q0 -87 63 -87q29 0 47 22.5t18 58.5v96zM224 684v-82h-81v82h81z" />
    <glyph glyph-name="uni0228" unicode="&#x228;" horiz-adv-x="380" 
d="M339 712v-77h-189v-234h163v-77h-163v-247h189v-77h-275v712h275zM231 -38l-50 -144h-64l57 144h57z" />
    <glyph glyph-name="uni0229" unicode="&#x229;" 
d="M335 240h-213q0 -126 21 -153q15 -22 46 -22q29 0 46 20t17 60h81q-1 -72 -42 -115q-37 -38 -102 -38q-66 0 -103 40q-27 29 -36.5 83t-9.5 144q0 91 9 144.5t36 82.5q37 40 102 40t102 -40q28 -29 37 -85t9 -161zM253 301q0 107 -20 131q-16 21 -46 21q-29 0 -45 -21
q-20 -24 -20 -131h131zM223 -38l-50 -144h-64l57 144h57z" />
    <glyph glyph-name="uni022A" unicode="&#x22a;" horiz-adv-x="442" 
d="M335 976v-58h-228v58h228zM221 -8q-77 0 -122 52q-33 38 -42.5 99t-9.5 213t9.5 213t42.5 99q45 52 122 52q78 0 123 -52q33 -37 42 -97.5t9 -214.5t-9 -214.5t-42 -97.5q-45 -52 -123 -52zM221 69q39 0 58 27q19 25 24.5 76.5t5.5 183.5t-5.5 183.5t-24.5 76.5
q-19 27 -58 27t-58 -27q-19 -25 -24.5 -76.5t-5.5 -183.5t5.5 -183.5t24.5 -76.5q19 -27 58 -27zM340 858v-81h-82v81h82zM184 858v-81h-82v81h82z" />
    <glyph glyph-name="uni022B" unicode="&#x22b;" 
d="M302 803v-57h-229v57h229zM188 526q74 0 110 -48q22 -29 29.5 -80t7.5 -139t-7.5 -139t-29.5 -80q-36 -48 -110 -48q-73 0 -109 48q-22 29 -30 80.5t-8 138.5t8 138.5t30 80.5q36 48 109 48zM188 454q-29 0 -45 -23q-13 -18 -17 -56t-4 -116t4 -116t17 -56q16 -23 45 -23
q30 0 46 23q13 18 16.5 55t3.5 117t-3.5 117t-16.5 55q-16 23 -46 23zM150 684v-82h-82v82h82zM307 684v-82h-82v82h82z" />
    <glyph glyph-name="uni022C" unicode="&#x22c;" horiz-adv-x="442" 
d="M335 976v-58h-228v58h228zM221 -8q-77 0 -122 52q-33 38 -42.5 99t-9.5 213t9.5 213t42.5 99q45 52 122 52q78 0 123 -52q33 -37 42 -97.5t9 -214.5t-9 -214.5t-42 -97.5q-45 -52 -123 -52zM221 69q39 0 58 27q19 25 24.5 76.5t5.5 183.5t-5.5 183.5t-24.5 76.5
q-19 27 -58 27t-58 -27q-19 -25 -24.5 -76.5t-5.5 -183.5t5.5 -183.5t24.5 -76.5q19 -27 58 -27zM169 861q30 0 56 -17q28 -16 45 -16q21 0 44 23l38 -37q-42 -42 -80 -42q-29 0 -57 16q-30 16 -44 16q-20 0 -45 -23l-36 37q42 43 79 43z" />
    <glyph glyph-name="uni022D" unicode="&#x22d;" 
d="M302 803v-57h-229v57h229zM188 526q74 0 110 -48q22 -29 29.5 -80t7.5 -139t-7.5 -139t-29.5 -80q-36 -48 -110 -48q-73 0 -109 48q-22 29 -30 80.5t-8 138.5t8 138.5t30 80.5q36 48 109 48zM188 454q-29 0 -45 -23q-13 -18 -17 -56t-4 -116t4 -116t17 -56q16 -23 45 -23
q30 0 46 23q13 18 16.5 55t3.5 117t-3.5 117t-16.5 55q-16 23 -46 23zM138 685q30 0 58 -17q25 -15 43 -15q21 0 44 23l38 -38q-43 -42 -80 -42q-27 0 -58 17q-25 15 -43 15q-22 0 -45 -23l-36 38q42 42 79 42z" />
    <glyph glyph-name="uni022E" unicode="&#x22e;" horiz-adv-x="442" 
d="M221 -8q-77 0 -122 52q-33 38 -42.5 99t-9.5 213t9.5 213t42.5 99q45 52 122 52q78 0 123 -52q33 -37 42 -97.5t9 -214.5t-9 -214.5t-42 -97.5q-45 -52 -123 -52zM221 69q39 0 58 27q19 25 24.5 76.5t5.5 183.5t-5.5 183.5t-24.5 76.5q-19 27 -58 27t-58 -27
q-19 -25 -24.5 -76.5t-5.5 -183.5t5.5 -183.5t24.5 -76.5q19 -27 58 -27zM262 858v-81h-82v81h82z" />
    <glyph glyph-name="uni022F" unicode="&#x22f;" 
d="M188 526q74 0 110 -48q22 -29 29.5 -80t7.5 -139t-7.5 -139t-29.5 -80q-36 -48 -110 -48q-73 0 -109 48q-22 29 -30 80.5t-8 138.5t8 138.5t30 80.5q36 48 109 48zM188 454q-29 0 -45 -23q-13 -18 -17 -56t-4 -116t4 -116t17 -56q16 -23 45 -23q30 0 46 23q13 18 16.5 55
t3.5 117t-3.5 117t-16.5 55q-16 23 -46 23zM228 684v-82h-81v82h81z" />
    <glyph glyph-name="uni0230" unicode="&#x230;" horiz-adv-x="442" 
d="M335 976v-58h-228v58h228zM221 -8q-77 0 -122 52q-33 38 -42.5 99t-9.5 213t9.5 213t42.5 99q45 52 122 52q78 0 123 -52q33 -37 42 -97.5t9 -214.5t-9 -214.5t-42 -97.5q-45 -52 -123 -52zM221 69q39 0 58 27q19 25 24.5 76.5t5.5 183.5t-5.5 183.5t-24.5 76.5
q-19 27 -58 27t-58 -27q-19 -25 -24.5 -76.5t-5.5 -183.5t5.5 -183.5t24.5 -76.5q19 -27 58 -27zM262 858v-81h-82v81h82z" />
    <glyph glyph-name="uni0231" unicode="&#x231;" 
d="M302 803v-57h-229v57h229zM188 526q74 0 110 -48q22 -29 29.5 -80t7.5 -139t-7.5 -139t-29.5 -80q-36 -48 -110 -48q-73 0 -109 48q-22 29 -30 80.5t-8 138.5t8 138.5t30 80.5q36 48 109 48zM188 454q-29 0 -45 -23q-13 -18 -17 -56t-4 -116t4 -116t17 -56q16 -23 45 -23
q30 0 46 23q13 18 16.5 55t3.5 117t-3.5 117t-16.5 55q-16 23 -46 23zM228 684v-82h-81v82h81z" />
    <glyph glyph-name="uni0232" unicode="&#x232;" horiz-adv-x="353" 
d="M351 712l-132 -424v-288h-86v288l-131 424h94l80 -304l80 304h95zM290 838v-58h-228v58h228z" />
    <glyph glyph-name="uni0233" unicode="&#x233;" horiz-adv-x="343" 
d="M339 518l-146 -601q-15 -65 -57.5 -88t-114.5 -23v72q40 0 62 13t31 47l16 63l-126 517h89l79 -389l78 389h89zM287 665v-57h-229v57h229z" />
    <glyph glyph-name="uni0237" unicode="&#x237;" horiz-adv-x="195" 
d="M138 518v-564q0 -78 -46 -116q-38 -32 -113 -32v73q39 0 58.5 18t19.5 60v561h81z" />
    <glyph glyph-name="uni0259" unicode="&#x259;" 
d="M41 278h213q0 126 -21 153q-15 22 -46 22q-29 0 -46 -20t-17 -60h-81q1 72 42 115q37 38 102 38q66 0 103 -40q27 -29 36.5 -83t9.5 -144q0 -91 -9 -144.5t-36 -82.5q-37 -40 -102 -40t-102 40q-28 29 -37 85t-9 161zM123 217q0 -107 20 -131q16 -21 46 -21q29 0 45 21
q20 24 20 131h-131z" />
    <glyph glyph-name="uni02BB" unicode="&#x2bb;" horiz-adv-x="203" 
d="M148 781v-180h-93v112z" />
    <glyph glyph-name="uni02BC" unicode="&#x2bc;" horiz-adv-x="203" 
d="M148 712v-112l-93 -68v180h93z" />
    <glyph glyph-name="uni02C0" unicode="&#x2c0;" 
d="M147 719v49q45 0 72.5 -26t27.5 -66t-27.5 -66.5t-72.5 -26.5v50q19 0 31.5 12.5t12.5 30.5t-12.5 30.5t-31.5 12.5z" />
    <glyph glyph-name="circumflex" unicode="&#x2c6;" 
d="M222 721l93 -135h-67l-60 87l-59 -87h-67l93 135h67z" />
    <glyph glyph-name="caron" unicode="&#x2c7;" 
d="M315 717l-93 -135h-67l-93 135h67l59 -87l60 87h67z" />
    <glyph glyph-name="breve" unicode="&#x2d8;" 
d="M248 691h58q-7 -112 -118 -112q-110 0 -117 112h58q7 -53 59 -53q53 0 60 53z" />
    <glyph glyph-name="dotaccent" unicode="&#x2d9;" 
d="M229 684v-82h-81v82h81z" />
    <glyph glyph-name="ring" unicode="&#x2da;" 
d="M188 779q40 0 69 -28.5t29 -69.5t-29 -69.5t-69 -28.5t-68.5 29t-28.5 69t28.5 69t68.5 29zM188 730q-20 0 -34.5 -14.5t-14.5 -34.5t14.5 -34.5t34.5 -14.5t35 14.5t15 34.5t-15 34.5t-35 14.5z" />
    <glyph glyph-name="ogonek" unicode="&#x2db;" 
d="M223 -38l-50 -144h-64l57 144h57z" />
    <glyph glyph-name="tilde" unicode="&#x2dc;" 
d="M136 685q30 0 58 -17q25 -15 43 -15q21 0 44 23l38 -38q-43 -42 -80 -42q-27 0 -58 17q-25 15 -43 15q-22 0 -45 -23l-36 38q42 42 79 42z" />
    <glyph glyph-name="hungarumlaut" unicode="&#x2dd;" 
d="M146 721h74l-69 -135h-58zM271 721h74l-68 -135h-58z" />
    <glyph glyph-name="gravecomb" unicode="&#x300;" horiz-adv-x="1" 
d="M3 721l69 -135h-62l-81 135h74z" />
    <glyph glyph-name="acutecomb" unicode="&#x301;" horiz-adv-x="1" 
d="M72 721l-81 -135h-61l68 135h74z" />
    <glyph glyph-name="uni0302" unicode="&#x302;" horiz-adv-x="1" 
d="M34 721l93 -135h-67l-60 87l-59 -87h-67l93 135h67z" />
    <glyph glyph-name="tildecomb" unicode="&#x303;" horiz-adv-x="1" 
d="M-51 685q30 0 58 -17q25 -15 43 -15q21 0 44 23l38 -38q-43 -42 -80 -42q-27 0 -58 17q-25 15 -43 15q-22 0 -45 -23l-36 38q42 42 79 42z" />
    <glyph glyph-name="uni0304" unicode="&#x304;" horiz-adv-x="1" 
d="M115 665v-57h-229v57h229z" />
    <glyph glyph-name="uni0306" unicode="&#x306;" horiz-adv-x="1" 
d="M60 691h58q-7 -112 -118 -112q-110 0 -117 112h58q7 -53 59 -53q53 0 60 53z" />
    <glyph glyph-name="uni0307" unicode="&#x307;" horiz-adv-x="1" 
d="M41 684v-82h-81v82h81z" />
    <glyph glyph-name="uni0308" unicode="&#x308;" horiz-adv-x="1" 
d="M-37 684v-82h-82v82h82zM120 684v-82h-82v82h82z" />
    <glyph glyph-name="hookabovecomb" unicode="&#x309;" horiz-adv-x="1" 
d="M-49 719v49q45 0 72.5 -26t27.5 -66t-27.5 -66.5t-72.5 -26.5v50q19 0 31.5 12.5t12.5 30.5t-12.5 30.5t-31.5 12.5z" />
    <glyph glyph-name="uni030A" unicode="&#x30a;" horiz-adv-x="1" 
d="M0 779q40 0 69 -28.5t29 -69.5t-29 -69.5t-69 -28.5t-68.5 29t-28.5 69t28.5 69t68.5 29zM0 730q-20 0 -34.5 -14.5t-14.5 -34.5t14.5 -34.5t34.5 -14.5t35 14.5t15 34.5t-15 34.5t-35 14.5z" />
    <glyph glyph-name="uni030B" unicode="&#x30b;" horiz-adv-x="1" 
d="M-72 721h74l-69 -135h-58zM53 721h74l-68 -135h-58z" />
    <glyph glyph-name="uni030C" unicode="&#x30c;" horiz-adv-x="1" 
d="M127 717l-93 -135h-67l-93 135h67l59 -87l60 87h67z" />
    <glyph glyph-name="uni030F" unicode="&#x30f;" horiz-adv-x="1" 
d="M-134 721h74l68 -135h-61zM-7 721h74l69 -135h-62z" />
    <glyph glyph-name="uni0310" unicode="&#x310;" horiz-adv-x="1" 
d="M60 691h58q-7 -112 -117 -112q-111 0 -118 112h58q7 -53 60 -53q52 0 59 53zM41 803v-81h-81v81h81z" />
    <glyph glyph-name="uni0311" unicode="&#x311;" horiz-adv-x="1" 
d="M0 698q111 0 118 -112h-58q-7 53 -60 53q-52 0 -59 -53h-58q7 112 117 112z" />
    <glyph glyph-name="uni0312" unicode="&#x312;" horiz-adv-x="1" 
d="M58 730l-57 -144h-57l49 144h65z" />
    <glyph glyph-name="uni0313" unicode="&#x313;" horiz-adv-x="1" 
d="M45 730l-34 -144h-55l23 144h66z" />
    <glyph glyph-name="uni0316" unicode="&#x316;" horiz-adv-x="1" 
d="M3 -38l69 -135h-62l-81 135h74z" />
    <glyph glyph-name="uni0317" unicode="&#x317;" horiz-adv-x="1" 
d="M72 -38l-81 -135h-61l68 135h74z" />
    <glyph glyph-name="uni031B" unicode="&#x31b;" horiz-adv-x="1" 
d="M57 546v-51q0 -59 -24.5 -86.5t-78.5 -28.5h-10v56h8q42 0 42 68v42h63z" />
    <glyph glyph-name="uni031C" unicode="&#x31c;" horiz-adv-x="1" 
d="M51 -31v-49q-19 0 -31.5 -12.5t-12.5 -30.5t12.5 -30.5t31.5 -12.5v-49q-45 0 -72.5 26t-27.5 66t27.5 66t72.5 26z" />
    <glyph glyph-name="dotbelowcomb" unicode="&#x323;" horiz-adv-x="1" 
d="M41 -60v-82h-81v82h81z" />
    <glyph glyph-name="uni0324" unicode="&#x324;" horiz-adv-x="1" 
d="M-36 -60v-82h-82v82h82zM120 -60v-82h-81v82h81z" />
    <glyph glyph-name="uni0325" unicode="&#x325;" horiz-adv-x="1" 
d="M0 -26q40 0 69 -29t29 -69t-29 -69t-69 -29t-68.5 29t-28.5 69t28.5 69t68.5 29zM0 -75q-20 0 -34.5 -14.5t-14.5 -34.5t14.5 -34.5t34.5 -14.5t35 14.5t15 34.5t-15 34.5t-35 14.5z" />
    <glyph glyph-name="uni0326" unicode="&#x326;" horiz-adv-x="1" 
d="M58 -38l-50 -144h-64l57 144h57z" />
    <glyph glyph-name="uni0327" unicode="&#x327;" horiz-adv-x="1" 
d="M27 -38l-50 -144h-64l57 144h57z" />
    <glyph glyph-name="uni0328" unicode="&#x328;" horiz-adv-x="1" 
d="M58 -38l-50 -144h-64l57 144h57z" />
    <glyph glyph-name="uni032C" unicode="&#x32c;" horiz-adv-x="1" 
d="M127 -38l-93 -135h-67l-93 135h67l59 -87l60 87h67z" />
    <glyph glyph-name="uni032D" unicode="&#x32d;" horiz-adv-x="1" 
d="M34 -38l93 -135h-67l-60 87l-59 -87h-67l93 135h67z" />
    <glyph glyph-name="uni032E" unicode="&#x32e;" horiz-adv-x="1" 
d="M60 -41h58q-7 -112 -118 -112q-110 0 -117 112h58q7 -53 59 -53q53 0 60 53z" />
    <glyph glyph-name="uni032F" unicode="&#x32f;" horiz-adv-x="1" 
d="M0 -30q111 0 118 -112h-58q-7 53 -60 53q-52 0 -59 -53h-58q7 112 117 112z" />
    <glyph glyph-name="uni0330" unicode="&#x330;" horiz-adv-x="1" 
d="M-51 -57q30 0 58 -17q25 -15 43 -15q21 0 44 23l38 -38q-43 -42 -80 -42q-27 0 -58 17q-25 15 -43 15q-22 0 -45 -23l-36 38q42 42 79 42z" />
    <glyph glyph-name="uni0331" unicode="&#x331;" horiz-adv-x="1" 
d="M115 -73v-57h-229v57h229z" />
    <glyph glyph-name="uni0340" unicode="&#x340;" horiz-adv-x="1" 
d="M-2 788l80 -135h-61l-93 135h74z" />
    <glyph glyph-name="uni0341" unicode="&#x341;" horiz-adv-x="1" 
d="M72 788l-81 -135h-61l68 135h74z" />
    <glyph glyph-name="uni037E" unicode="&#x37e;" horiz-adv-x="242" 
d="M180 100v-156l-92 -68v224h92zM183 425v-99h-99v99h99z" />
    <glyph glyph-name="tonos" unicode="&#x384;" 
d="M225 742v-78l-73 -54v132h73z" />
    <glyph glyph-name="dieresistonos" unicode="&#x385;" 
d="M224 732v-107l-70 -50v157h70zM117 683v-82h-72v82h72zM330 683v-82h-72v82h72z" />
    <glyph glyph-name="Alphatonos" unicode="&#x386;" horiz-adv-x="425" 
d="M5 0l166 712h83l166 -712h-91l-34 168h-166l-34 -168h-90zM145 245h134l-67 328zM66 712v-78l-73 -54v132h73z" />
    <glyph glyph-name="anoteleia" unicode="&#x387;" horiz-adv-x="266" 
d="M182 332v-99h-99v99h99z" />
    <glyph glyph-name="Epsilontonos" unicode="&#x388;" horiz-adv-x="380" 
d="M339 712v-77h-189v-234h163v-77h-163v-247h189v-77h-275v712h275zM-4 712v-78l-73 -54v132h73z" />
    <glyph glyph-name="Etatonos" unicode="&#x389;" horiz-adv-x="458" 
d="M394 712v-712h-86v324h-158v-324h-86v712h86v-311h158v311h86zM-4 712v-78l-73 -54v132h73z" />
    <glyph glyph-name="Iotatonos" unicode="&#x38a;" horiz-adv-x="214" 
d="M150 712v-712h-86v712h86zM-4 712v-78l-73 -54v132h73z" />
    <glyph glyph-name="Omicrontonos" unicode="&#x38c;" horiz-adv-x="442" 
d="M221 -8q-77 0 -122 52q-33 38 -42.5 99t-9.5 213t9.5 213t42.5 99q45 52 122 52q78 0 123 -52q33 -37 42 -97.5t9 -214.5t-9 -214.5t-42 -97.5q-45 -52 -123 -52zM221 69q39 0 58 27q19 25 24.5 76.5t5.5 183.5t-5.5 183.5t-24.5 76.5q-19 27 -58 27t-58 -27
q-19 -25 -24.5 -76.5t-5.5 -183.5t5.5 -183.5t24.5 -76.5q19 -27 58 -27zM16 712v-78l-73 -54v132h73z" />
    <glyph glyph-name="Upsilontonos" unicode="&#x38e;" horiz-adv-x="353" 
d="M351 712l-132 -424v-288h-86v288l-131 424h94l80 -304l80 304h95zM-25 712v-78l-73 -54v132h73z" />
    <glyph glyph-name="Omegatonos" unicode="&#x38f;" horiz-adv-x="451" 
d="M226 720q76 0 122 -51q33 -37 42 -99t9 -214q0 -191 -20 -238q-12 -28 -40 -46h65v-72h-153v64q39 20 50 58q12 41 12 234q0 135 -6 185.5t-23 74.5q-20 27 -58 27q-39 0 -58 -27q-18 -25 -24 -75.5t-6 -184.5q0 -193 12 -234q11 -38 50 -58v-64h-153v72h65
q-28 18 -40 46q-20 49 -20 238q0 152 9 214t43 99q44 51 122 51zM31 712v-78l-73 -54v132h73z" />
    <glyph glyph-name="iotadieresistonos" unicode="&#x390;" horiz-adv-x="227" 
d="M134 518v-367q0 -78 78 -78v-73q-75 0 -113 32q-46 39 -46 116v370h81zM129 732v-107l-70 -50v157h70zM22 683v-82h-72v82h72zM235 683v-82h-72v82h72z" />
    <glyph glyph-name="Alpha" unicode="&#x391;" horiz-adv-x="425" 
d="M5 0l166 712h83l166 -712h-91l-34 168h-166l-34 -168h-90zM145 245h134l-67 328z" />
    <glyph glyph-name="Beta" unicode="&#x392;" horiz-adv-x="444" 
d="M64 712h153q88 0 130 -43q23 -24 32.5 -55.5t9.5 -88.5q0 -86 -42 -127q-17 -17 -40 -27q24 -7 44 -26q26 -25 34.5 -59t8.5 -86q0 -63 -10.5 -97t-35.5 -60q-42 -43 -131 -43h-153v712zM212 333h-62v-256h62q50 0 73 28.5t23 99.5q0 68 -23.5 98t-72.5 30zM213 635h-63
v-228h63q46 0 68 27t22 87q0 63 -21 88.5t-69 25.5z" />
    <glyph glyph-name="Gamma" unicode="&#x393;" horiz-adv-x="355" 
d="M333 712v-77h-183v-635h-86v712h269z" />
    <glyph glyph-name="uni0394" unicode="&#x394;" horiz-adv-x="424" 
d="M171 712h82l166 -712h-414zM313 77l-101 496l-101 -496h202z" />
    <glyph glyph-name="Epsilon" unicode="&#x395;" horiz-adv-x="380" 
d="M339 712v-77h-189v-234h163v-77h-163v-247h189v-77h-275v712h275z" />
    <glyph glyph-name="Zeta" unicode="&#x396;" horiz-adv-x="349" 
d="M318 712v-65l-197 -570h197v-77h-287v65l198 570h-185v77h274z" />
    <glyph glyph-name="Eta" unicode="&#x397;" horiz-adv-x="458" 
d="M394 712v-712h-86v324h-158v-324h-86v712h86v-311h158v311h86z" />
    <glyph glyph-name="Theta" unicode="&#x398;" horiz-adv-x="442" 
d="M221 -8q-77 0 -122 52q-33 38 -42.5 99t-9.5 213t9.5 213t42.5 99q45 52 122 52q78 0 123 -52q33 -37 42 -97.5t9 -214.5t-9 -214.5t-42 -97.5q-45 -52 -123 -52zM221 69q39 0 58 27q17 24 23 71.5t7 157.5h-176q0 -110 6 -157.5t24 -71.5q20 -27 58 -27zM163 616
q-17 -24 -23 -69t-7 -148h176q-1 103 -7 148.5t-23 68.5q-19 27 -58 27t-58 -27z" />
    <glyph glyph-name="Iota" unicode="&#x399;" horiz-adv-x="214" 
d="M150 712v-712h-86v712h86z" />
    <glyph glyph-name="Kappa" unicode="&#x39a;" horiz-adv-x="446" 
d="M410 712l-144 -294l165 -418h-93l-126 322l-62 -123v-199h-86v712h86v-361l172 361h88z" />
    <glyph glyph-name="Lambda" unicode="&#x39b;" horiz-adv-x="394" 
d="M153 712h88l148 -712h-94l-98 573l-98 -573h-94z" />
    <glyph glyph-name="Mu" unicode="&#x39c;" horiz-adv-x="577" 
d="M513 712v-712h-86v507l-113 -333h-53l-111 325v-499h-86v712h81l144 -396l143 396h81z" />
    <glyph glyph-name="Nu" unicode="&#x39d;" horiz-adv-x="476" 
d="M412 712v-712h-78l-184 487v-487h-86v712h80l182 -487v487h86z" />
    <glyph glyph-name="Xi" unicode="&#x39e;" horiz-adv-x="380" 
d="M42 77h106v246h-84v78h84v234h-106v77h298v-77h-106v-234h85v-78h-85v-246h106v-77h-298v77z" />
    <glyph glyph-name="Omicron" unicode="&#x39f;" horiz-adv-x="442" 
d="M221 -8q-77 0 -122 52q-33 38 -42.5 99t-9.5 213t9.5 213t42.5 99q45 52 122 52q78 0 123 -52q33 -37 42 -97.5t9 -214.5t-9 -214.5t-42 -97.5q-45 -52 -123 -52zM221 69q39 0 58 27q19 25 24.5 76.5t5.5 183.5t-5.5 183.5t-24.5 76.5q-19 27 -58 27t-58 -27
q-19 -25 -24.5 -76.5t-5.5 -183.5t5.5 -183.5t24.5 -76.5q19 -27 58 -27z" />
    <glyph glyph-name="Pi" unicode="&#x3a0;" horiz-adv-x="452" 
d="M388 712v-712h-86v635h-152v-635h-86v712h324z" />
    <glyph glyph-name="Rho" unicode="&#x3a1;" horiz-adv-x="435" 
d="M64 712h160q85 0 127 -47t42 -161q0 -112 -42.5 -159.5t-126.5 -47.5h-74v-297h-86v712zM221 635h-71v-261h71q44 0 65 30t21 100q0 71 -21 101t-65 30z" />
    <glyph glyph-name="Sigma" unicode="&#x3a3;" horiz-adv-x="350" 
d="M319 712v-77h-191l98 -265l-106 -293h198v-77h-287v65l111 304l-104 278v65h281z" />
    <glyph glyph-name="Tau" unicode="&#x3a4;" horiz-adv-x="367" 
d="M346 712v-77h-119v-635h-86v635h-120v77h325z" />
    <glyph glyph-name="Upsilon" unicode="&#x3a5;" horiz-adv-x="353" 
d="M351 712l-132 -424v-288h-86v288l-131 424h94l80 -304l80 304h95z" />
    <glyph glyph-name="Phi" unicode="&#x3a6;" horiz-adv-x="545" 
d="M315 712v-49q106 -6 144.5 -74.5t38.5 -227.5t-38.5 -227t-144.5 -75v-59h-86v59q-105 7 -143.5 75t-38.5 227t38.5 227.5t143.5 74.5v49h86zM231 135v453q-62 -3 -80 -52.5t-18 -174.5t18 -174t80 -52zM314 588v-453q62 3 80 52t18 174t-18 174.5t-80 52.5z" />
    <glyph glyph-name="Chi" unicode="&#x3a7;" horiz-adv-x="403" 
d="M377 712l-129 -342l140 -370h-94l-93 282l-92 -282h-94l136 370l-125 342h94l81 -260l82 260h94z" />
    <glyph glyph-name="Psi" unicode="&#x3a8;" horiz-adv-x="510" 
d="M212 0v147q-78 6 -118 46q-48 46 -48 126v393h86v-392q0 -41 21.5 -65.5t58.5 -29.5v487h86v-487q37 5 58.5 29t21.5 66v392h86v-393q0 -79 -47 -126q-41 -40 -119 -46v-147h-86z" />
    <glyph glyph-name="uni03A9" unicode="&#x3a9;" horiz-adv-x="451" 
d="M226 720q76 0 122 -51q33 -37 42 -99t9 -214q0 -191 -20 -238q-12 -28 -40 -46h65v-72h-153v64q39 20 50 58q12 41 12 234q0 135 -6 185.5t-23 74.5q-20 27 -58 27q-39 0 -58 -27q-18 -25 -24 -75.5t-6 -184.5q0 -193 12 -234q11 -38 50 -58v-64h-153v72h65
q-28 18 -40 46q-20 49 -20 238q0 152 9 214t43 99q44 51 122 51z" />
    <glyph glyph-name="Iotadieresis" unicode="&#x3aa;" horiz-adv-x="214" 
d="M150 712v-712h-86v712h86zM227 858v-81h-82v81h82zM71 858v-81h-82v81h82z" />
    <glyph glyph-name="Upsilondieresis" unicode="&#x3ab;" horiz-adv-x="353" 
d="M351 712l-132 -424v-288h-86v288l-131 424h94l80 -304l80 304h95zM295 858v-81h-82v81h82zM139 858v-81h-82v81h82z" />
    <glyph glyph-name="alphatonos" unicode="&#x3ac;" horiz-adv-x="383" 
d="M165 526q33 0 55 -16q22 -14 32 -31v39h78v-518h-78v39q-11 -18 -32 -31q-24 -16 -55 -16q-54 0 -86 38q-24 28 -31 78t-7 151q0 102 7 151.5t31 77.5q31 38 86 38zM187 454q-25 0 -44 -22q-13 -16 -17 -52t-4 -121q0 -84 4 -120.5t17 -52.5q19 -22 44 -22q26 0 43 17
q19 19 19 60v237q0 40 -19 59q-17 17 -43 17zM227 742v-78l-73 -54v132h73z" />
    <glyph glyph-name="epsilontonos" unicode="&#x3ad;" horiz-adv-x="360" 
d="M82 23q-24 22 -33.5 48t-9.5 70q0 74 32 105q18 16 35 23q-24 10 -37 27q-26 30 -26 86q0 76 39 112q33 32 102 32q64 0 104 -38q39 -39 41 -110h-81q0 41 -20 61q-15 15 -44 15q-28 0 -41 -14q-19 -19 -19 -64q0 -46 20 -63q16 -14 44 -14h36v-66h-36q-28 0 -46 -15
q-22 -19 -22 -72q0 -48 20 -67q17 -15 44 -15q29 0 43 14q21 21 21 61h81q-2 -75 -43 -113q-35 -34 -102 -34q-66 0 -102 31zM223 742v-78l-73 -54v132h73z" />
    <glyph glyph-name="etatonos" unicode="&#x3ae;" horiz-adv-x="395" 
d="M223 526q55 0 88 -38q31 -34 31 -107v-381h-81v381q0 34 -17.5 53.5t-44.5 19.5q-26 0 -43.5 -19.5t-17.5 -53.5v-381h-81v518h78v-40q11 19 32 32q26 16 56 16zM237 742v-78l-73 -54v132h73z" />
    <glyph glyph-name="iotatonos" unicode="&#x3af;" horiz-adv-x="227" 
d="M134 518v-367q0 -78 78 -78v-73q-75 0 -113 32q-46 39 -46 116v370h81zM130 742v-78l-73 -54v132h73z" />
    <glyph glyph-name="upsilondieresistonos" unicode="&#x3b0;" horiz-adv-x="391" 
d="M338 518v-381q0 -70 -34 -105q-38 -40 -109 -40t-108 40q-34 35 -34 105v381h81v-381q0 -35 17 -54t44 -19t44.5 19t17.5 54v381h81zM230 732v-107l-70 -50v157h70zM123 683v-82h-72v82h72zM336 683v-82h-72v82h72z" />
    <glyph glyph-name="alpha" unicode="&#x3b1;" horiz-adv-x="383" 
d="M165 526q33 0 55 -16q22 -14 32 -31v39h78v-518h-78v39q-11 -18 -32 -31q-24 -16 -55 -16q-54 0 -86 38q-24 28 -31 78t-7 151q0 102 7 151.5t31 77.5q31 38 86 38zM187 454q-25 0 -44 -22q-13 -16 -17 -52t-4 -121q0 -84 4 -120.5t17 -52.5q19 -22 44 -22q26 0 43 17
q19 19 19 60v237q0 40 -19 59q-17 17 -43 17z" />
    <glyph glyph-name="beta" unicode="&#x3b2;" horiz-adv-x="400" 
d="M286 205q0 80 -19.5 112.5t-61.5 32.5h-25v68h23q64 0 64 127q0 103 -66 103q-63 0 -63 -111v-398q0 -73 63 -73q49 0 67 32.5t18 106.5zM135 41v-41h-78v546q0 85 39 129.5t107 44.5q67 0 106 -43.5t39 -122.5q0 -143 -80 -168q100 -24 100 -185q0 -209 -143 -209
q-58 0 -90 49z" />
    <glyph glyph-name="gamma" unicode="&#x3b3;" horiz-adv-x="343" 
d="M131 -194v188l-127 524h89l79 -389l78 389h89l-127 -524v-188h-81z" />
    <glyph glyph-name="delta" unicode="&#x3b4;" 
d="M80 37q-40 49 -40 209q0 89 8 135t32 73q33 35 76 35q22 0 36 -7l-116 164v66h225v-73h-129l95 -135q39 -55 53 -106t14 -152q0 -161 -39 -209q-37 -45 -108 -45q-70 0 -107 45zM232 86q13 17 17 51.5t4 108.5q0 134 -23 161q-16 18 -44 18q-29 0 -44 -20
q-21 -28 -21 -159q0 -74 4 -108.5t17 -51.5q17 -22 45 -22q30 0 45 22z" />
    <glyph glyph-name="epsilon" unicode="&#x3b5;" horiz-adv-x="360" 
d="M82 23q-24 22 -33.5 48t-9.5 70q0 74 32 105q18 16 35 23q-24 10 -37 27q-26 30 -26 86q0 76 39 112q33 32 102 32q64 0 104 -38q39 -39 41 -110h-81q0 41 -20 61q-15 15 -44 15q-28 0 -41 -14q-19 -19 -19 -64q0 -46 20 -63q16 -14 44 -14h36v-66h-36q-28 0 -46 -15
q-22 -19 -22 -72q0 -48 20 -67q17 -15 44 -15q29 0 43 14q21 21 21 61h81q-2 -75 -43 -113q-35 -34 -102 -34q-66 0 -102 31z" />
    <glyph glyph-name="zeta" unicode="&#x3b6;" horiz-adv-x="299" 
d="M212 -26q0 15 -5 20.5t-18 5.5h-30q-135 0 -135 135q0 85 82 194l89 117h-155v72h244v-73l-108 -140q-71 -92 -71 -166q0 -66 70 -66h36q37 0 56.5 -17t19.5 -59q0 -1 -11 -133h-72q8 96 8 110z" />
    <glyph glyph-name="eta" unicode="&#x3b7;" horiz-adv-x="395" 
d="M223 526q55 0 88 -38q31 -34 31 -107v-381h-81v381q0 34 -17.5 53.5t-44.5 19.5q-26 0 -43.5 -19.5t-17.5 -53.5v-381h-81v518h78v-40q11 19 32 32q26 16 56 16z" />
    <glyph glyph-name="theta" unicode="&#x3b8;" horiz-adv-x="390" 
d="M195 64q32 0 49 28q11 19 14 65t3 179h-132q0 -133 3 -179t14 -65q17 -28 49 -28zM195 -8q-77 0 -114 55q-22 34 -27.5 96t-5.5 220q0 147 5.5 207.5t27.5 94.5q37 55 114 55t114 -55q22 -34 27.5 -94.5t5.5 -207.5q0 -158 -5.5 -220t-27.5 -96q-37 -55 -114 -55z
M195 648q-32 0 -49 -28q-11 -18 -14 -61.5t-3 -154.5h132q0 111 -3 154.5t-14 61.5q-17 28 -49 28z" />
    <glyph glyph-name="iota" unicode="&#x3b9;" horiz-adv-x="227" 
d="M134 518v-367q0 -78 78 -78v-73q-75 0 -113 32q-46 39 -46 116v370h81z" />
    <glyph glyph-name="kappa" unicode="&#x3ba;" horiz-adv-x="398" 
d="M371 518l-126 -202l138 -316h-90l-99 244l-56 -89v-155h-81v518h81v-246l147 246h86z" />
    <glyph glyph-name="lambda" unicode="&#x3bb;" horiz-adv-x="344" 
d="M133 518l-18 77q-10 44 -53 44h-20v73h41q88 -2 109 -88l150 -624h-89l-79 387l-83 -387h-89z" />
    <glyph glyph-name="uni03BC" unicode="&#x3bc;" horiz-adv-x="399" 
d="M342 518v-518h-79v40q-8 -15 -22 -28q-21 -16 -46 -16q-38 0 -60 32v-222h-78v712h81v-381q0 -35 17 -53.5t44 -18.5q28 0 45 18.5t17 53.5v381h81z" />
    <glyph glyph-name="nu" unicode="&#x3bd;" horiz-adv-x="343" 
d="M4 518h89l79 -386l78 386h89l-125 -518h-85z" />
    <glyph glyph-name="xi" unicode="&#x3be;" horiz-adv-x="329" 
d="M238 -26q0 15 -5 20.5t-18 5.5h-25q-78 0 -117 44.5t-39 154.5q0 145 83 186q-35 17 -50 52.5t-15 98.5q0 184 137 184q62 0 95 -38.5t33 -108.5v-42h-81v46q0 71 -47 71q-31 0 -43.5 -27.5t-12.5 -88.5q0 -59 14.5 -85.5t46.5 -26.5h60v-72h-60q-79 0 -79 -145
q0 -73 20.5 -102t63.5 -29h38q37 0 56 -16.5t19 -58.5q0 -13 -10 -133h-72q8 96 8 110z" />
    <glyph glyph-name="omicron" unicode="&#x3bf;" 
d="M188 526q74 0 110 -48q22 -29 29.5 -80t7.5 -139t-7.5 -139t-29.5 -80q-36 -48 -110 -48q-73 0 -109 48q-22 29 -30 80.5t-8 138.5t8 138.5t30 80.5q36 48 109 48zM188 454q-29 0 -45 -23q-13 -18 -17 -56t-4 -116t4 -116t17 -56q16 -23 45 -23q30 0 46 23q13 18 16.5 55
t3.5 117t-3.5 117t-16.5 55q-16 23 -46 23z" />
    <glyph glyph-name="pi" unicode="&#x3c0;" horiz-adv-x="396" 
d="M339 518v-518h-81v446h-120v-446h-81v518h282z" />
    <glyph glyph-name="rho" unicode="&#x3c1;" horiz-adv-x="383" 
d="M53 -194v453q0 94 9 145.5t33 79.5q36 42 100 42q69 0 106 -42q24 -28 33 -79.5t9 -145.5q0 -92 -9.5 -143.5t-32.5 -80.5q-35 -43 -86 -43q-31 0 -52 12q-16 10 -29 27v-225h-81zM241 87q13 19 17 55.5t4 116.5t-4 117t-18 56q-15 22 -43 22q-25 0 -42 -22
q-13 -19 -17 -56t-4 -117q0 -82 3.5 -118t16.5 -54q16 -23 43 -23q28 0 44 23z" />
    <glyph glyph-name="sigma1" unicode="&#x3c2;" horiz-adv-x="364" 
d="M237 -26q0 15 -5 20.5t-18 5.5h-20q-74 0 -114 52q-22 29 -30.5 75.5t-8.5 131.5q0 87 8 138.5t30 80.5q36 48 109 48q65 0 101 -35q39 -37 41 -117h-80q0 41 -16 60q-17 20 -45 20q-29 0 -46 -22q-13 -18 -17 -56t-4 -117q0 -77 5 -109.5t18 -50.5q20 -27 57 -27h35
q37 0 56 -16.5t19 -58.5q0 -43 -10 -133h-72q7 84 7 110z" />
    <glyph glyph-name="sigma" unicode="&#x3c3;" horiz-adv-x="386" 
d="M356 518v-72h-70q29 -21 39 -59.5t10 -127.5q0 -87 -8 -138.5t-30 -80.5q-36 -48 -109 -48t-109 48q-22 29 -30 80.5t-8 138.5q0 84 8 132.5t30 77.5q37 49 114 49h163zM188 446q-29 0 -46 -22q-13 -18 -16.5 -53t-3.5 -112q0 -79 3.5 -117t16.5 -55q16 -23 46 -23t45 23
q13 17 17 55t4 117q0 77 -4 112t-17 53q-15 22 -45 22z" />
    <glyph glyph-name="tau" unicode="&#x3c4;" horiz-adv-x="283" 
d="M263 518v-72h-81v-446h-81v446h-81v72h243z" />
    <glyph glyph-name="upsilon" unicode="&#x3c5;" horiz-adv-x="391" 
d="M338 518v-381q0 -70 -34 -105q-38 -40 -109 -40t-108 40q-34 35 -34 105v381h81v-381q0 -35 17 -54t44 -19t44.5 19t17.5 54v381h81z" />
    <glyph glyph-name="phi" unicode="&#x3c6;" horiz-adv-x="524" 
d="M222 -194v188q-89 5 -131 47q-29 29 -39.5 77.5t-10.5 140.5q0 93 10.5 143t38.5 81q26 30 82 41v-76q-14 -7 -21 -14q-17 -17 -23 -55t-6 -120q0 -84 6 -119t26 -52q25 -23 69 -25v463h13q86 0 128 -11t69 -38q28 -30 39 -78.5t11 -139.5q0 -92 -10.5 -140.5
t-39.5 -77.5q-42 -42 -131 -47v-188h-80zM370 88q20 17 26 52t6 119t-6 119t-26 53q-26 22 -69 24v-392q44 2 69 25z" />
    <glyph glyph-name="chi" unicode="&#x3c7;" horiz-adv-x="356" 
d="M130 264l-111 254h89l70 -178l70 178h89l-113 -254l119 -264h-89l-77 184l-75 -184h-89z" />
    <glyph glyph-name="psi" unicode="&#x3c8;" horiz-adv-x="537" 
d="M229 -194v189q-81 5 -123 47q-29 28 -41 66.5t-12 113.5v296h81v-296q0 -58 7.5 -85t26.5 -45q24 -21 61 -25v451h79v-451q38 5 62 25q20 17 27 44t7 86v296h81v-296q0 -77 -11.5 -115t-40.5 -65q-44 -42 -124 -47v-189h-80z" />
    <glyph glyph-name="omega" unicode="&#x3c9;" horiz-adv-x="524" 
d="M261 70q-23 -78 -98 -78q-67 0 -95 57q-29 58 -29 211q0 93 10.5 142.5t38.5 80.5q26 30 82 41v-76q-14 -7 -21 -14q-17 -17 -23 -54.5t-6 -119.5q0 -133 11 -163q11 -32 40 -32t39.5 22t10.5 78v199h79v-199q0 -56 10.5 -78t39.5 -22t40 32q11 30 11 163q0 82 -6 119.5
t-23 54.5q-7 7 -21 14v76q56 -11 82 -41q28 -31 38.5 -80.5t10.5 -142.5q0 -153 -29 -211q-28 -57 -95 -57q-76 0 -97 78z" />
    <glyph glyph-name="iotadieresis" unicode="&#x3ca;" horiz-adv-x="227" 
d="M134 518v-367q0 -78 78 -78v-73q-75 0 -113 32q-46 39 -46 116v370h81zM55 684v-82h-82v82h82zM212 684v-82h-82v82h82z" />
    <glyph glyph-name="upsilondieresis" unicode="&#x3cb;" horiz-adv-x="391" 
d="M338 518v-381q0 -70 -34 -105q-38 -40 -109 -40t-108 40q-34 35 -34 105v381h81v-381q0 -35 17 -54t44 -19t44.5 19t17.5 54v381h81zM156 684v-82h-82v82h82zM313 684v-82h-82v82h82z" />
    <glyph glyph-name="omicrontonos" unicode="&#x3cc;" 
d="M188 526q74 0 110 -48q22 -29 29.5 -80t7.5 -139t-7.5 -139t-29.5 -80q-36 -48 -110 -48q-73 0 -109 48q-22 29 -30 80.5t-8 138.5t8 138.5t30 80.5q36 48 109 48zM188 454q-29 0 -45 -23q-13 -18 -17 -56t-4 -116t4 -116t17 -56q16 -23 45 -23q30 0 46 23q13 18 16.5 55
t3.5 117t-3.5 117t-16.5 55q-16 23 -46 23zM225 742v-78l-73 -54v132h73z" />
    <glyph glyph-name="upsilontonos" unicode="&#x3cd;" horiz-adv-x="391" 
d="M338 518v-381q0 -70 -34 -105q-38 -40 -109 -40t-108 40q-34 35 -34 105v381h81v-381q0 -35 17 -54t44 -19t44.5 19t17.5 54v381h81zM231 742v-78l-73 -54v132h73z" />
    <glyph glyph-name="omegatonos" unicode="&#x3ce;" horiz-adv-x="524" 
d="M261 70q-23 -78 -98 -78q-67 0 -95 57q-29 58 -29 211q0 93 10.5 142.5t38.5 80.5q26 30 82 41v-76q-14 -7 -21 -14q-17 -17 -23 -54.5t-6 -119.5q0 -133 11 -163q11 -32 40 -32t39.5 22t10.5 78v199h79v-199q0 -56 10.5 -78t39.5 -22t40 32q11 30 11 163q0 82 -6 119.5
t-23 54.5q-7 7 -21 14v76q56 -11 82 -41q28 -31 38.5 -80.5t10.5 -142.5q0 -153 -29 -211q-28 -57 -95 -57q-76 0 -97 78zM298 742v-78l-73 -54v132h73z" />
    <glyph glyph-name="uni0400" unicode="&#x400;" horiz-adv-x="380" 
d="M339 712v-77h-189v-234h163v-77h-163v-247h189v-77h-275v712h275zM173 897l69 -135h-62l-81 135h74z" />
    <glyph glyph-name="uni0401" unicode="&#x401;" horiz-adv-x="380" 
d="M339 712v-77h-189v-234h163v-77h-163v-247h189v-77h-275v712h275zM324 858v-81h-82v81h82zM168 858v-81h-82v81h82z" />
    <glyph glyph-name="uni0402" unicode="&#x402;" horiz-adv-x="495" 
d="M345 712v-77h-134v-208h70q89 0 130.5 -48t41.5 -166q0 -111 -40.5 -162t-128.5 -51h-14v77h13q47 0 65.5 34t18.5 102q0 74 -17.5 105t-70.5 31h-68v-349h-86v635h-104v77h324z" />
    <glyph glyph-name="uni0403" unicode="&#x403;" horiz-adv-x="355" 
d="M333 712v-77h-183v-635h-86v712h269zM299 897l-81 -135h-62l69 135h74z" />
    <glyph glyph-name="uni0404" unicode="&#x404;" horiz-adv-x="424" 
d="M221 720q69 0 113 -42q49 -47 52 -142h-86q-2 55 -23 82q-20 25 -56 25q-39 0 -58 -27q-17 -25 -23.5 -68.5t-6.5 -146.5h141v-77h-141q0 -113 6 -158.5t24 -69.5q20 -27 58 -27q36 0 56 25q21 25 23 82h86q-3 -98 -55 -145q-44 -39 -110 -39q-77 0 -122 52
q-33 38 -42.5 98t-9.5 214q0 155 9 213.5t43 98.5q45 52 122 52z" />
    <glyph glyph-name="uni0405" unicode="&#x405;" horiz-adv-x="420" 
d="M210 718q75 0 118 -41q47 -46 47 -146h-86q0 59 -22 86q-19 24 -58 24q-35 0 -55 -22q-25 -28 -25 -85q0 -53 13 -75t55 -40l80 -33q59 -24 79.5 -66t20.5 -129q0 -111 -44 -155q-45 -43 -126 -43q-82 0 -125 43q-24 24 -34 58t-10 92h86q0 -68 24 -93q20 -22 59 -22
q40 0 61 23q23 25 23 95q0 62 -13.5 87.5t-56.5 43.5l-81 33q-55 23 -76 60.5t-21 117.5q0 97 54 146q44 41 113 41z" />
    <glyph glyph-name="uni0406" unicode="&#x406;" horiz-adv-x="214" 
d="M150 712v-712h-86v712h86z" />
    <glyph glyph-name="uni0407" unicode="&#x407;" horiz-adv-x="214" 
d="M150 712v-712h-86v712h86zM227 858v-81h-82v81h82zM71 858v-81h-82v81h82z" />
    <glyph glyph-name="uni0408" unicode="&#x408;" horiz-adv-x="361" 
d="M303 712v-542q0 -84 -45 -130q-46 -48 -126 -48q-78 0 -127 54l61 57q25 -34 66 -34q37 0 61 26.5t24 74.5v542h86z" />
    <glyph glyph-name="uni0409" unicode="&#x409;" horiz-adv-x="705" 
d="M420 712v-297h74q85 0 127 -47t42 -160t-42.5 -160.5t-126.5 -47.5h-160v635h-129v-315q0 -85 -9 -145t-23 -94t-37 -52.5t-44.5 -23.5t-52.5 -5h-25v76h9q19 0 31 3.5t26.5 17.5t22.5 40.5t14 76t6 119.5v379h297zM493 338h-73v-261h73q43 0 63.5 30.5t20.5 100.5
t-20.5 100t-63.5 30z" />
    <glyph glyph-name="uni040A" unicode="&#x40a;" horiz-adv-x="679" 
d="M394 712v-297h74q85 0 127 -47t42 -160t-42.5 -160.5t-126.5 -47.5h-160v339h-158v-339h-86v712h86v-296h158v296h86zM467 338h-73v-261h73q43 0 63.5 30.5t20.5 100.5t-20.5 100t-63.5 30z" />
    <glyph glyph-name="uni040B" unicode="&#x40b;" horiz-adv-x="497" 
d="M345 712v-77h-134v-208h72q90 0 129 -44.5t39 -137.5v-245h-86v232q0 64 -21.5 91t-72.5 27h-60v-350h-86v635h-104v77h324z" />
    <glyph glyph-name="uni040C" unicode="&#x40c;" horiz-adv-x="450" 
d="M424 712l-183 -337l201 -375h-97l-193 371l179 341h93zM150 712v-712h-86v712h86zM339 897l-81 -135h-62l69 135h74z" />
    <glyph glyph-name="uni040D" unicode="&#x40d;" horiz-adv-x="468" 
d="M64 712h86v-494l175 494h79v-712h-86v494l-174 -494h-80v712zM202 897l69 -135h-62l-81 135h74z" />
    <glyph glyph-name="uni040E" unicode="&#x40e;" horiz-adv-x="392" 
d="M388 712l-185 -599q-21 -68 -56 -90.5t-111 -22.5v77q44 0 64 15t33 59l23 79l-152 482h94l99 -363l97 363h94zM257 867h58q-7 -112 -118 -112q-110 0 -117 112h58q7 -53 59 -53q53 0 60 53z" />
    <glyph glyph-name="uni040F" unicode="&#x40f;" horiz-adv-x="458" 
d="M394 712v-712h-124v-142h-82v142h-124v712h86v-635h158v635h86z" />
    <glyph glyph-name="uni0410" unicode="&#x410;" horiz-adv-x="425" 
d="M5 0l166 712h83l166 -712h-91l-34 168h-166l-34 -168h-90zM145 245h134l-67 328z" />
    <glyph glyph-name="uni0411" unicode="&#x411;" horiz-adv-x="439" 
d="M365 712v-77h-215v-218h76q85 0 128 -47t43 -161q0 -113 -43 -161t-128 -48h-162v712h301zM225 340h-75v-263h75q43 0 64.5 31t21.5 101t-21.5 100.5t-64.5 30.5z" />
    <glyph glyph-name="uni0412" unicode="&#x412;" horiz-adv-x="444" 
d="M64 712h153q88 0 130 -43q23 -24 32.5 -55.5t9.5 -88.5q0 -86 -42 -127q-17 -17 -40 -27q24 -7 44 -26q26 -25 34.5 -59t8.5 -86q0 -63 -10.5 -97t-35.5 -60q-42 -43 -131 -43h-153v712zM212 333h-62v-256h62q50 0 73 28.5t23 99.5q0 68 -23.5 98t-72.5 30zM213 635h-63
v-228h63q46 0 68 27t22 87q0 63 -21 88.5t-69 25.5z" />
    <glyph glyph-name="uni0413" unicode="&#x413;" horiz-adv-x="355" 
d="M333 712v-77h-183v-635h-86v712h269z" />
    <glyph glyph-name="uni0414" unicode="&#x414;" horiz-adv-x="499" 
d="M415 712v-635h56v-219h-82v142h-293v-142h-82v219h45q58 155 58 349v286h298zM329 635h-129v-228q0 -188 -53 -330h182v558z" />
    <glyph glyph-name="uni0415" unicode="&#x415;" horiz-adv-x="380" 
d="M339 712v-77h-189v-234h163v-77h-163v-247h189v-77h-275v712h275z" />
    <glyph glyph-name="uni0416" unicode="&#x416;" horiz-adv-x="670" 
d="M646 712l-176 -337l192 -375h-95l-187 371l173 341h93zM117 712l173 -341l-187 -371h-95l192 375l-176 337h93zM378 712v-712h-86v712h86z" />
    <glyph glyph-name="uni0417" unicode="&#x417;" horiz-adv-x="421" 
d="M203 720q78 0 120 -45q27 -27 36 -62.5t9 -90.5q0 -81 -31 -122q-20 -25 -47 -39q29 -15 48 -38q33 -40 33 -131q0 -56 -10 -90.5t-36 -62.5q-41 -47 -122 -47q-75 0 -115 39q-48 47 -50 145h86q0 -57 24 -85q20 -22 55 -22q36 0 56 22q26 31 26 104q0 77 -28 106
q-21 21 -53 21h-57v74h57q32 0 51 20q27 30 27 103q0 75 -24 102q-20 22 -55 22q-34 0 -54 -22q-25 -28 -25 -85h-86q2 93 48 141q43 43 117 43z" />
    <glyph glyph-name="uni0418" unicode="&#x418;" horiz-adv-x="468" 
d="M64 712h86v-494l175 494h79v-712h-86v494l-174 -494h-80v712z" />
    <glyph glyph-name="uni0419" unicode="&#x419;" horiz-adv-x="468" 
d="M64 712h86v-494l175 494h79v-712h-86v494l-174 -494h-80v712zM294 867h58q-7 -112 -118 -112q-110 0 -117 112h58q7 -53 59 -53q53 0 60 53z" />
    <glyph glyph-name="uni041A" unicode="&#x41a;" horiz-adv-x="450" 
d="M424 712l-183 -337l201 -375h-97l-193 371l179 341h93zM150 712v-712h-86v712h86z" />
    <glyph glyph-name="uni041B" unicode="&#x41b;" horiz-adv-x="483" 
d="M419 712v-712h-86v635h-128v-315q0 -85 -9 -145t-23 -94t-37 -52.5t-44.5 -23.5t-52.5 -5h-25v77h9q24 0 38.5 6.5t30.5 30t23.5 78t7.5 141.5v379h296z" />
    <glyph glyph-name="uni041C" unicode="&#x41c;" horiz-adv-x="577" 
d="M513 712v-712h-86v507l-113 -333h-53l-111 325v-499h-86v712h81l144 -396l143 396h81z" />
    <glyph glyph-name="uni041D" unicode="&#x41d;" horiz-adv-x="458" 
d="M394 712v-712h-86v324h-158v-324h-86v712h86v-311h158v311h86z" />
    <glyph glyph-name="uni041E" unicode="&#x41e;" horiz-adv-x="442" 
d="M221 -8q-77 0 -122 52q-33 38 -42.5 99t-9.5 213t9.5 213t42.5 99q45 52 122 52q78 0 123 -52q33 -37 42 -97.5t9 -214.5t-9 -214.5t-42 -97.5q-45 -52 -123 -52zM221 69q39 0 58 27q19 25 24.5 76.5t5.5 183.5t-5.5 183.5t-24.5 76.5q-19 27 -58 27t-58 -27
q-19 -25 -24.5 -76.5t-5.5 -183.5t5.5 -183.5t24.5 -76.5q19 -27 58 -27z" />
    <glyph glyph-name="uni041F" unicode="&#x41f;" horiz-adv-x="458" 
d="M394 712v-712h-86v635h-158v-635h-86v712h330z" />
    <glyph glyph-name="uni0420" unicode="&#x420;" horiz-adv-x="435" 
d="M64 712h160q85 0 127 -47t42 -161q0 -112 -42.5 -159.5t-126.5 -47.5h-74v-297h-86v712zM221 635h-71v-261h71q44 0 65 30t21 100q0 71 -21 101t-65 30z" />
    <glyph glyph-name="uni0421" unicode="&#x421;" horiz-adv-x="423" 
d="M221 720q69 0 113 -42q49 -48 51 -141h-85q-2 55 -23 81q-20 25 -56 25q-39 0 -59 -27q-18 -25 -23.5 -77t-5.5 -183t5.5 -183t23.5 -77q20 -27 59 -27q36 0 56 25q21 28 23 82h85q-2 -97 -54 -145q-44 -39 -110 -39q-77 0 -122 52q-34 39 -43 98t-9 214t9 214t43 98
q45 52 122 52z" />
    <glyph glyph-name="uni0422" unicode="&#x422;" horiz-adv-x="367" 
d="M346 712v-77h-119v-635h-86v635h-120v77h325z" />
    <glyph glyph-name="uni0423" unicode="&#x423;" horiz-adv-x="392" 
d="M388 712l-185 -599q-21 -68 -56 -90.5t-111 -22.5v77q44 0 64 15t33 59l23 79l-152 482h94l99 -363l97 363h94z" />
    <glyph glyph-name="uni0424" unicode="&#x424;" horiz-adv-x="571" 
d="M328 741v-65q119 -5 159.5 -75.5t40.5 -222.5t-40.5 -222.5t-159.5 -75.5v-84h-85v84q-119 5 -159.5 75.5t-40.5 222.5t40.5 222.5t159.5 75.5v65h85zM244 156v445q-71 -4 -93.5 -52.5t-22.5 -170.5t22.5 -170t93.5 -52zM327 601v-445q71 4 93.5 52t22.5 170t-22.5 170.5
t-93.5 52.5z" />
    <glyph glyph-name="uni0425" unicode="&#x425;" horiz-adv-x="403" 
d="M377 712l-129 -342l140 -370h-94l-93 282l-92 -282h-94l136 370l-125 342h94l81 -260l82 260h94z" />
    <glyph glyph-name="uni0426" unicode="&#x426;" horiz-adv-x="477" 
d="M394 712v-635h55v-219h-81v142h-304v712h86v-635h158v635h86z" />
    <glyph glyph-name="uni0427" unicode="&#x427;" horiz-adv-x="438" 
d="M374 712v-712h-86v324q-45 -7 -89 -7q-77 0 -113.5 36.5t-36.5 125.5v233h86v-224q0 -54 19.5 -74t58.5 -20q36 0 75 6v312h86z" />
    <glyph glyph-name="uni0428" unicode="&#x428;" horiz-adv-x="674" 
d="M610 712v-712h-546v712h86v-635h144v635h86v-635h144v635h86z" />
    <glyph glyph-name="uni0429" unicode="&#x429;" horiz-adv-x="693" 
d="M610 712v-635h56v-219h-83v142h-519v712h86v-635h144v635h86v-635h144v635h86z" />
    <glyph glyph-name="uni042A" unicode="&#x42a;" horiz-adv-x="498" 
d="M213 712v-297h74q85 0 127 -47t42 -160t-42.5 -160.5t-126.5 -47.5h-160v635h-106v77h192zM286 338h-73v-261h73q43 0 63.5 30.5t20.5 100.5t-20.5 100t-63.5 30z" />
    <glyph glyph-name="uni042B" unicode="&#x42b;" horiz-adv-x="629" 
d="M565 712v-712h-86v712h86zM150 712v-297h74q85 0 127 -47t42 -160t-42.5 -160.5t-126.5 -47.5h-160v712h86zM223 338h-73v-261h73q43 0 63.5 30.5t20.5 100.5t-20.5 100t-63.5 30z" />
    <glyph glyph-name="uni042C" unicode="&#x42c;" horiz-adv-x="435" 
d="M150 712v-297h74q85 0 127 -47t42 -160t-42.5 -160.5t-126.5 -47.5h-160v712h86zM223 338h-73v-261h73q43 0 63.5 30.5t20.5 100.5t-20.5 100t-63.5 30z" />
    <glyph glyph-name="uni042D" unicode="&#x42d;" horiz-adv-x="424" 
d="M203 720q77 0 122 -52q34 -40 43 -98.5t9 -213.5q0 -154 -9.5 -214t-42.5 -98q-45 -52 -122 -52q-66 0 -110 39q-52 47 -55 145h86q2 -57 23 -82q20 -25 56 -25q38 0 58 27q18 24 24 69.5t6 158.5h-141v77h141q0 106 -6 149t-24 66q-19 27 -58 27q-36 0 -56 -25
q-21 -27 -23 -82h-86q3 95 52 142q44 42 113 42z" />
    <glyph glyph-name="uni042E" unicode="&#x42e;" horiz-adv-x="629" 
d="M408 720q77 0 122 -52q34 -40 43 -98.5t9 -213.5q0 -154 -9.5 -214t-42.5 -98q-46 -52 -122 -52q-77 0 -122 52q-32 37 -41.5 92t-10.5 187h-84v-323h-86v712h86v-311h84q1 123 11 177t41 90q45 52 122 52zM408 643q-38 0 -58 -27q-19 -25 -24.5 -76.5t-5.5 -183.5
t5.5 -183.5t24.5 -76.5q20 -27 58 -27t58 27q19 25 24.5 76.5t5.5 183.5t-5.5 183.5t-24.5 76.5q-20 27 -58 27z" />
    <glyph glyph-name="uni042F" unicode="&#x42f;" horiz-adv-x="455" 
d="M391 712v-712h-86v306h-77l-98 -306h-91l109 323q-46 21 -66 66t-20 120q0 112 41.5 157.5t126.5 45.5h161zM305 635h-76q-46 0 -63.5 -32t-17.5 -94q0 -63 17.5 -95t63.5 -32h76v253z" />
    <glyph glyph-name="uni0430" unicode="&#x430;" horiz-adv-x="375" 
d="M180 526q65 0 101 -36q41 -43 41 -114v-376h-77v46q-12 -20 -30 -35q-25 -19 -61 -19q-54 0 -89 39q-33 38 -33 116q0 76 46 117q40 35 110 35h53v82q0 74 -61 74q-23 0 -40 -17q-19 -20 -19 -60h-81q0 70 40 110q38 38 100 38zM241 240h-46q-38 0 -58 -19
q-24 -22 -24 -71q0 -87 63 -87q29 0 47 22.5t18 58.5v96z" />
    <glyph glyph-name="uni0431" unicode="&#x431;" horiz-adv-x="381" 
d="M317 716v-73q-63 -1 -101 -11t-57 -36q-25 -34 -33 -119q30 44 87 44q53 0 87 -39q24 -27 32 -77t8 -146q0 -170 -38 -219q-36 -48 -110 -48q-73 0 -109 48q-38 49 -38 219q0 195 7.5 260t33.5 107q28 46 84 67t147 23zM192 453q-29 0 -45 -22q-13 -17 -16.5 -54
t-3.5 -118t3.5 -118t16.5 -54q16 -23 45 -23q30 0 46 23q13 17 16.5 54t3.5 118t-3.5 118t-16.5 54q-16 22 -46 22z" />
    <glyph glyph-name="uni0432" unicode="&#x432;" horiz-adv-x="384" 
d="M57 518h139q78 0 110 -31q35 -34 35 -106q0 -64 -33 -94q-12 -11 -31 -19q16 -6 34 -20q34 -29 34 -100q0 -78 -37 -114q-36 -34 -111 -34h-140v518zM191 232h-53v-162h53q38 0 55.5 17.5t17.5 64.5q0 44 -17.5 62t-55.5 18zM193 448h-55v-151h55q67 0 67 77q0 42 -16 58
t-51 16z" />
    <glyph glyph-name="uni0433" unicode="&#x433;" horiz-adv-x="314" 
d="M298 518v-72h-160v-446h-81v518h241z" />
    <glyph glyph-name="uni0434" unicode="&#x434;" horiz-adv-x="436" 
d="M366 518v-446h47v-196h-78v124h-243v-124h-78v196h44q45 112 45 279v167h263zM284 446h-102v-107q0 -96 -9 -153.5t-31 -113.5h142v374z" />
    <glyph glyph-name="uni0435" unicode="&#x435;" 
d="M335 240h-213q0 -126 21 -153q15 -22 46 -22q29 0 46 20t17 60h81q-1 -72 -42 -115q-37 -38 -102 -38q-66 0 -103 40q-27 29 -36.5 83t-9.5 144q0 91 9 144.5t36 82.5q37 40 102 40t102 -40q28 -29 37 -85t9 -161zM253 301q0 107 -20 131q-16 21 -46 21q-29 0 -45 -21
q-20 -24 -20 -131h131z" />
    <glyph glyph-name="uni0436" unicode="&#x436;" horiz-adv-x="577" 
d="M558 518l-142 -246l155 -272h-92l-148 269l138 249h89zM108 518l138 -249l-148 -269h-92l155 272l-142 246h89zM329 518v-518h-81v518h81z" />
    <glyph glyph-name="uni0437" unicode="&#x437;" horiz-adv-x="360" 
d="M176 526q70 0 102 -32q40 -37 40 -112q0 -52 -27 -87q-14 -17 -36 -28q19 -9 36 -25q31 -31 31 -101q0 -44 -10 -70t-34 -48q-34 -31 -102 -31q-66 0 -101 34q-42 38 -44 117h81q0 -44 21 -65q14 -14 43 -14q27 0 44 15q20 19 20 67q0 51 -22 70q-17 14 -45 14h-38v67h37
q28 0 44 14q20 20 20 65t-19 64q-14 14 -41 14q-29 0 -44 -15q-20 -20 -20 -64h-81q2 74 41 113q40 38 104 38z" />
    <glyph glyph-name="uni0438" unicode="&#x438;" horiz-adv-x="407" 
d="M57 518h81v-343l137 343h74v-518h-81v343l-137 -343h-74v518z" />
    <glyph glyph-name="uni0439" unicode="&#x439;" horiz-adv-x="407" 
d="M57 518h81v-343l137 343h74v-518h-81v343l-137 -343h-74v518zM263 691h58q-7 -112 -118 -112q-110 0 -117 112h58q7 -53 59 -53q53 0 60 53z" />
    <glyph glyph-name="uni043A" unicode="&#x43a;" horiz-adv-x="385" 
d="M366 518l-142 -245l155 -273h-91l-149 269l138 249h89zM138 518v-518h-81v518h81z" />
    <glyph glyph-name="uni043B" unicode="&#x43b;" horiz-adv-x="414" 
d="M357 518v-518h-81v446h-98v-239q0 -117 -34 -162t-105 -45h-25v72h12q16 0 26.5 4t22.5 18t18 46t6 82v296h258z" />
    <glyph glyph-name="uni043C" unicode="&#x43c;" horiz-adv-x="492" 
d="M57 519h73l116 -280l116 280h73v-519h-79v344l-86 -207h-48l-86 207v-344h-79v519z" />
    <glyph glyph-name="uni043D" unicode="&#x43d;" horiz-adv-x="396" 
d="M339 518v-518h-81v230h-120v-230h-81v518h81v-216h120v216h81z" />
    <glyph glyph-name="uni043E" unicode="&#x43e;" 
d="M188 526q74 0 110 -48q22 -29 29.5 -80t7.5 -139t-7.5 -139t-29.5 -80q-36 -48 -110 -48q-73 0 -109 48q-22 29 -30 80.5t-8 138.5t8 138.5t30 80.5q36 48 109 48zM188 454q-29 0 -45 -23q-13 -18 -17 -56t-4 -116t4 -116t17 -56q16 -23 45 -23q30 0 46 23q13 18 16.5 55
t3.5 117t-3.5 117t-16.5 55q-16 23 -46 23z" />
    <glyph glyph-name="uni043F" unicode="&#x43f;" horiz-adv-x="396" 
d="M339 518v-518h-81v446h-120v-446h-81v518h282z" />
    <glyph glyph-name="uni0440" unicode="&#x440;" horiz-adv-x="388" 
d="M309 488q24 -28 31 -78t7 -151q0 -102 -7 -151.5t-31 -77.5q-32 -38 -86 -38q-33 0 -56 16q-18 12 -29 28v-230h-81v712h79v-40q9 17 31 32q26 16 56 16q52 0 86 -38zM158 437q-20 -20 -20 -60v-237q0 -39 20 -59q17 -17 42 -17q27 0 44 22q14 16 18 52t4 121t-4 121
t-18 52q-17 22 -44 22q-25 0 -42 -17z" />
    <glyph glyph-name="uni0441" unicode="&#x441;" horiz-adv-x="364" 
d="M41 259q0 87 8 138.5t30 80.5q36 48 109 48q65 0 101 -35q40 -38 42 -117h-81q0 41 -16 60q-17 20 -45 20q-29 0 -46 -22q-13 -18 -17 -56t-4 -117t4 -117t17 -56q17 -22 46 -22q28 0 45 20q16 19 16 60h81q-2 -79 -42 -117q-36 -35 -101 -35q-73 0 -109 48
q-22 29 -30 80.5t-8 138.5z" />
    <glyph glyph-name="uni0442" unicode="&#x442;" horiz-adv-x="311" 
d="M295 518v-72h-95v-446h-81v446h-103v72h279z" />
    <glyph glyph-name="uni0443" unicode="&#x443;" horiz-adv-x="343" 
d="M339 518l-146 -601q-15 -65 -57.5 -88t-114.5 -23v72q40 0 62 13t31 47l16 63l-126 517h89l79 -389l78 389h89z" />
    <glyph glyph-name="uni0444" unicode="&#x444;" horiz-adv-x="514" 
d="M297 712v-189q87 -3 130 -52q28 -31 38 -80t10 -132q0 -82 -10.5 -131t-37.5 -80q-46 -50 -130 -53v-189h-81v189q-83 3 -129 53q-27 31 -37.5 80t-10.5 131q0 83 10 131.5t38 79.5q44 50 129 53v189h81zM218 68v382q-41 0 -66 -25q-19 -19 -25.5 -56t-6.5 -110t6.5 -110
t25.5 -56q25 -25 66 -25zM296 450v-382q39 0 66 25q19 19 25.5 56t6.5 110t-6.5 110t-25.5 56q-27 25 -66 25z" />
    <glyph glyph-name="uni0445" unicode="&#x445;" horiz-adv-x="356" 
d="M130 264l-111 254h89l70 -178l70 178h89l-113 -254l119 -264h-89l-77 184l-75 -184h-89z" />
    <glyph glyph-name="uni0446" unicode="&#x446;" horiz-adv-x="409" 
d="M339 518v-445h46v-198h-75v125h-253v518h81v-446h120v446h81z" />
    <glyph glyph-name="uni0447" unicode="&#x447;" horiz-adv-x="367" 
d="M310 518v-518h-81v229q-31 -6 -68 -6q-62 0 -92.5 30t-30.5 94v171h81v-160q0 -34 12.5 -48.5t41.5 -14.5q27 0 56 6v217h81z" />
    <glyph glyph-name="uni0448" unicode="&#x448;" horiz-adv-x="561" 
d="M504 518v-518h-447v518h81v-446h102v446h81v-446h102v446h81z" />
    <glyph glyph-name="uni0449" unicode="&#x449;" horiz-adv-x="575" 
d="M504 518v-446h48v-196h-75v124h-420v518h81v-446h102v446h81v-446h102v446h81z" />
    <glyph glyph-name="uni044A" unicode="&#x44a;" horiz-adv-x="414" 
d="M180 518v-201h60q77 0 110 -38.5t33 -120.5t-33 -120t-110 -38h-141v446h-85v72h166zM236 245h-56v-173h56q35 0 50.5 20.5t15.5 65.5q0 46 -15.5 66.5t-50.5 20.5z" />
    <glyph glyph-name="uni044B" unicode="&#x44b;" horiz-adv-x="556" 
d="M499 518v-518h-81v518h81zM138 518v-201h60q77 0 110 -38.5t33 -120.5t-33 -120t-110 -38h-141v518h81zM194 245h-56v-173h56q35 0 50.5 20.5t15.5 65.5q0 46 -15.5 66.5t-50.5 20.5z" />
    <glyph glyph-name="uni044C" unicode="&#x44c;" horiz-adv-x="372" 
d="M138 518v-201h60q77 0 110 -38.5t33 -120.5t-33 -120t-110 -38h-141v518h81zM194 245h-56v-173h56q35 0 50.5 20.5t15.5 65.5q0 46 -15.5 66.5t-50.5 20.5z" />
    <glyph glyph-name="uni044D" unicode="&#x44d;" horiz-adv-x="365" 
d="M176 526q74 0 110 -48q22 -29 30 -80.5t8 -138.5q0 -170 -38 -219q-36 -48 -110 -48q-64 0 -99 32q-41 37 -45 117h79q0 -39 20 -61q14 -16 45 -16q32 0 48 22q20 27 20 144h-118v67h118q0 108 -20 135q-17 22 -48 22q-32 0 -46 -17q-19 -20 -19 -60h-79q3 76 43 114
q36 35 101 35z" />
    <glyph glyph-name="uni044E" unicode="&#x44e;" horiz-adv-x="550" 
d="M362 526q74 0 110 -48q22 -29 29.5 -80t7.5 -139t-7.5 -139t-29.5 -80q-36 -48 -110 -48q-73 0 -109 48q-36 46 -38 190h-77v-230h-81v518h81v-216h77q3 131 38 176q36 48 109 48zM362 453q-29 0 -45 -22q-13 -18 -17 -56t-4 -116t4 -116t17 -56q16 -22 45 -22
q30 0 46 22q13 18 16.5 55t3.5 117t-3.5 117t-16.5 55q-16 22 -46 22z" />
    <glyph glyph-name="uni044F" unicode="&#x44f;" horiz-adv-x="375" 
d="M318 518v-518h-81v210h-54l-72 -210h-86l83 226q-67 33 -67 138q0 77 32.5 115.5t108.5 38.5h136zM237 446h-54q-33 0 -46.5 -20.5t-13.5 -61.5q0 -82 60 -82h54v164z" />
    <glyph glyph-name="uni0450" unicode="&#x450;" 
d="M335 240h-213q0 -126 21 -153q15 -22 46 -22q29 0 46 20t17 60h81q-1 -72 -42 -115q-37 -38 -102 -38q-66 0 -103 40q-27 29 -36.5 83t-9.5 144q0 91 9 144.5t36 82.5q37 40 102 40t102 -40q28 -29 37 -85t9 -161zM253 301q0 107 -20 131q-16 21 -46 21q-29 0 -45 -21
q-20 -24 -20 -131h131zM157 721l69 -135h-62l-81 135h74z" />
    <glyph glyph-name="uni0451" unicode="&#x451;" 
d="M335 240h-213q0 -126 21 -153q15 -22 46 -22q29 0 46 20t17 60h81q-1 -72 -42 -115q-37 -38 -102 -38q-66 0 -103 40q-27 29 -36.5 83t-9.5 144q0 91 9 144.5t36 82.5q37 40 102 40t102 -40q28 -29 37 -85t9 -161zM253 301q0 107 -20 131q-16 21 -46 21q-29 0 -45 -21
q-20 -24 -20 -131h131zM150 684v-82h-82v82h82zM307 684v-82h-82v82h82z" />
    <glyph glyph-name="uni0452" unicode="&#x452;" horiz-adv-x="395" 
d="M138 712v-81h148v-63h-148v-100q11 17 29 28q25 17 56 17q55 0 88 -38q31 -36 31 -107v-406q0 -75 -44 -111q-36 -31 -109 -31v72q36 0 54 17t18 56v402q0 35 -17.5 54.5t-44.5 19.5t-44 -19.5t-17 -54.5v-367h-81v568h-53v63h53v81h81z" />
    <glyph glyph-name="uni0453" unicode="&#x453;" horiz-adv-x="314" 
d="M298 518v-72h-160v-446h-81v518h241zM265 721l-81 -135h-61l68 135h74z" />
    <glyph glyph-name="uni0454" unicode="&#x454;" horiz-adv-x="365" 
d="M189 526q65 0 101 -35q40 -38 43 -114h-79q0 40 -19 60q-14 17 -46 17q-33 0 -48 -22q-20 -24 -20 -135h118v-67h-118q0 -67 3.5 -98t16.5 -46q16 -22 48 -22q31 0 45 16q20 22 20 61h79q-4 -80 -45 -117q-35 -32 -99 -32q-74 0 -110 48q-38 49 -38 219q0 87 8 138.5
t30 80.5q36 48 110 48z" />
    <glyph glyph-name="uni0455" unicode="&#x455;" horiz-adv-x="359" 
d="M179 526q64 0 101 -37q42 -40 42 -114h-80q0 42 -19 62q-17 18 -44 18q-28 0 -45 -17q-19 -19 -19 -50q0 -22 9 -38q11 -19 43 -34l66 -33q52 -25 73 -59q22 -33 22 -83q0 -64 -44 -108q-40 -41 -106 -41t-104 40q-44 45 -44 114h80q0 -40 22 -63q18 -18 46 -18
q30 0 49 19q20 20 20 52q0 27 -13 47t-46 37l-67 34q-50 25 -71 60q-16 28 -16 68q0 62 43 105q39 39 102 39z" />
    <glyph glyph-name="uni0456" unicode="&#x456;" horiz-adv-x="195" 
d="M138 518v-518h-81v518h81zM145 704v-94h-95v94h95z" />
    <glyph glyph-name="uni0457" unicode="&#x457;" horiz-adv-x="195" 
d="M138 518v-518h-81v518h81zM60 684v-82h-82v82h82zM217 684v-82h-82v82h82z" />
    <glyph glyph-name="uni0458" unicode="&#x458;" horiz-adv-x="195" 
d="M138 518v-564q0 -78 -46 -116q-38 -32 -113 -32v73q39 0 58.5 18t19.5 60v561h81zM145 704v-94h-95v94h95z" />
    <glyph glyph-name="uni0459" unicode="&#x459;" horiz-adv-x="592" 
d="M358 518v-201h60q77 0 110 -38.5t33 -120.5t-33 -120t-110 -38h-141v446h-99v-239q0 -117 -34 -162t-105 -45h-25v73h12q16 0 26.5 4t22.5 17.5t18.5 45.5t6.5 82v296h258zM414 245h-56v-173h56q35 0 50.5 20.5t15.5 65.5q0 46 -15.5 66.5t-50.5 20.5z" />
    <glyph glyph-name="uni045A" unicode="&#x45a;" horiz-adv-x="572" 
d="M338 518v-201h60q77 0 110 -38.5t33 -120.5t-33 -120t-110 -38h-141v245h-119v-245h-81v518h81v-201h119v201h81zM394 245h-56v-173h56q35 0 50.5 20.5t15.5 65.5q0 46 -15.5 66.5t-50.5 20.5z" />
    <glyph glyph-name="uni045B" unicode="&#x45b;" horiz-adv-x="395" 
d="M138 712v-81h148v-63h-148v-100q11 17 29 28q25 17 56 17q55 0 88 -38q31 -36 31 -107v-368h-81v367q0 35 -17.5 54.5t-44.5 19.5t-44 -19.5t-17 -54.5v-367h-81v568h-53v63h53v81h81z" />
    <glyph glyph-name="uni045C" unicode="&#x45c;" horiz-adv-x="385" 
d="M366 518l-142 -245l155 -273h-91l-149 269l138 249h89zM138 518v-518h-81v518h81zM317 721l-81 -135h-61l68 135h74z" />
    <glyph glyph-name="uni045D" unicode="&#x45d;" horiz-adv-x="407" 
d="M57 518h81v-343l137 343h74v-518h-81v343l-137 -343h-74v518zM173 721l69 -135h-62l-81 135h74z" />
    <glyph glyph-name="uni045E" unicode="&#x45e;" horiz-adv-x="343" 
d="M339 518l-146 -601q-15 -65 -57.5 -88t-114.5 -23v72q40 0 62 13t31 47l16 63l-126 517h89l79 -389l78 389h89zM232 691h58q-7 -112 -118 -112q-110 0 -117 112h58q7 -53 59 -53q53 0 60 53z" />
    <glyph glyph-name="uni045F" unicode="&#x45f;" horiz-adv-x="396" 
d="M339 518v-518h-104v-124h-74v124h-104v518h81v-446h120v446h81z" />
    <glyph glyph-name="uni0462" unicode="&#x462;" horiz-adv-x="448" 
d="M163 712v-89h81v-69h-81v-139h74q85 0 127 -47t42 -160t-42.5 -160.5t-126.5 -47.5h-160v554h-52v69h52v89h86zM236 338h-73v-261h73q43 0 63.5 30.5t20.5 100.5t-20.5 100t-63.5 30z" />
    <glyph glyph-name="uni0463" unicode="&#x463;" horiz-adv-x="378" 
d="M144 712v-194h80v-63h-80v-138h60q77 0 110 -38.5t33 -120.5t-33 -120t-110 -38h-141v455h-59v63h59v194h81zM200 245h-56v-173h56q35 0 50.5 20.5t15.5 65.5q0 46 -15.5 66.5t-50.5 20.5z" />
    <glyph glyph-name="uni0472" unicode="&#x472;" horiz-adv-x="442" 
d="M221 -8q-77 0 -122 52q-33 38 -42.5 99t-9.5 213t9.5 213t42.5 99q45 52 122 52q78 0 123 -52q33 -37 42 -97.5t9 -214.5t-9 -214.5t-42 -97.5q-45 -52 -123 -52zM221 69q39 0 58 27q17 24 23 71.5t7 157.5h-176q0 -110 6 -157.5t24 -71.5q20 -27 58 -27zM163 616
q-17 -24 -23 -69t-7 -148h176q-1 103 -7 148.5t-23 68.5q-19 27 -58 27t-58 -27z" />
    <glyph glyph-name="uni0473" unicode="&#x473;" 
d="M188 526q74 0 110 -48q22 -29 29.5 -80t7.5 -139t-7.5 -139t-29.5 -80q-36 -48 -110 -48q-73 0 -109 48q-22 29 -30 80.5t-8 138.5t8 138.5t30 80.5q36 48 109 48zM254 240h-132q0 -125 21 -153q16 -23 45 -23q30 0 46 23q20 28 20 153zM188 454q-29 0 -45 -23
q-19 -27 -21 -130h132q-2 105 -20 130q-16 23 -46 23z" />
    <glyph glyph-name="uni0474" unicode="&#x474;" horiz-adv-x="392" 
d="M4 712h94l98 -573l98 573h94l-148 -712h-88z" />
    <glyph glyph-name="uni0475" unicode="&#x475;" horiz-adv-x="343" 
d="M4 518h89l79 -386l78 386h89l-125 -518h-85z" />
    <glyph glyph-name="uni0490" unicode="&#x490;" horiz-adv-x="355" 
d="M333 806v-171h-183v-635h-86v712h187v94h82z" />
    <glyph glyph-name="uni0491" unicode="&#x491;" horiz-adv-x="314" 
d="M298 642v-196h-160v-446h-81v518h166v124h75z" />
    <glyph glyph-name="uni0492" unicode="&#x492;" horiz-adv-x="368" 
d="M346 712v-77h-183v-243h81v-69h-81v-323h-86v323h-52v69h52v320h269z" />
    <glyph glyph-name="uni0493" unicode="&#x493;" horiz-adv-x="335" 
d="M319 518v-72h-160v-149h80v-63h-80v-234h-81v234h-59v63h59v221h241z" />
    <glyph glyph-name="uni0496" unicode="&#x496;" horiz-adv-x="676" 
d="M646 712l-176 -337l153 -298h40v-219h-82v142h-14l-187 371l173 341h93zM117 712l173 -341l-187 -371h-95l192 375l-176 337h93zM378 712v-712h-86v712h86z" />
    <glyph glyph-name="uni0497" unicode="&#x497;" horiz-adv-x="577" 
d="M558 518l-142 -246l113 -199h42v-198h-75v125h-17l-148 269l138 249h89zM108 518l138 -249l-148 -269h-92l155 272l-142 246h89zM329 518v-518h-81v518h81z" />
    <glyph glyph-name="uni049A" unicode="&#x49a;" horiz-adv-x="450" 
d="M424 712l-183 -337l160 -298h43v-219h-82v142h-17l-193 371l179 341h93zM150 712v-712h-86v712h86z" />
    <glyph glyph-name="uni049B" unicode="&#x49b;" horiz-adv-x="387" 
d="M366 518l-142 -245l114 -200h43v-197h-75v124h-18l-149 269l138 249h89zM138 518v-518h-81v518h81z" />
    <glyph glyph-name="uni049C" unicode="&#x49c;" horiz-adv-x="519" 
d="M493 712l-144 -337l162 -375h-97l-140 334h-28v-154h-63v154h-33v-334h-86v712h86v-301h33v138h63v-138h30l124 301h93z" />
    <glyph glyph-name="uni049D" unicode="&#x49d;" horiz-adv-x="448" 
d="M426 518l-107 -245l120 -273h-91l-101 233h-25v-126h-54v126h-30v-233h-81v518h81v-213h30v112h54v-112h25l90 213h89z" />
    <glyph glyph-name="uni04A2" unicode="&#x4a2;" horiz-adv-x="456" 
d="M394 712v-635h39v-219h-82v142h-43v324h-158v-324h-86v712h86v-311h158v311h86z" />
    <glyph glyph-name="uni04A3" unicode="&#x4a3;" horiz-adv-x="396" 
d="M339 518v-446h33v-196h-75v124h-39v230h-120v-230h-81v518h81v-216h120v216h81z" />
    <glyph glyph-name="uni04AE" unicode="&#x4ae;" horiz-adv-x="353" 
d="M351 712l-132 -424v-288h-86v288l-131 424h94l80 -304l80 304h95z" />
    <glyph glyph-name="uni04AF" unicode="&#x4af;" horiz-adv-x="343" 
d="M131 -194v188l-127 524h89l79 -389l78 389h89l-127 -524v-188h-81z" />
    <glyph glyph-name="uni04B0" unicode="&#x4b0;" horiz-adv-x="353" 
d="M351 712l-132 -424h67v-69h-67v-219h-86v219h-66v69h66l-131 424h94l80 -304l80 304h95z" />
    <glyph glyph-name="uni04B1" unicode="&#x4b1;" horiz-adv-x="343" 
d="M131 -68h-70v62h70l-127 524h89l79 -389l78 389h89l-127 -524h71v-62h-71v-126h-81v126z" />
    <glyph glyph-name="uni04B2" unicode="&#x4b2;" horiz-adv-x="405" 
d="M377 712l-129 -342l111 -293h31v-219h-82v142h-14l-93 282l-92 -282h-94l136 370l-125 342h94l81 -260l82 260h94z" />
    <glyph glyph-name="uni04B3" unicode="&#x4b3;" horiz-adv-x="356" 
d="M337 518l-114 -254l87 -191h34v-197h-75v124h-16l-75 187l-75 -187h-90l118 264l-112 254h90l69 -181l69 181h90z" />
    <glyph glyph-name="uni04B6" unicode="&#x4b6;" horiz-adv-x="438" 
d="M374 712v-635h39v-219h-82v142h-43v324q-45 -7 -89 -7q-77 0 -113.5 36.5t-36.5 125.5v233h86v-224q0 -54 19.5 -74t58.5 -20q36 0 75 6v312h86z" />
    <glyph glyph-name="uni04B7" unicode="&#x4b7;" horiz-adv-x="368" 
d="M310 518v-445h35v-197h-75v124h-41v229q-31 -6 -68 -6q-62 0 -92.5 30t-30.5 94v171h81v-160q0 -33 12.5 -47.5t41.5 -14.5q32 0 56 5v217h81z" />
    <glyph glyph-name="uni04B8" unicode="&#x4b8;" horiz-adv-x="461" 
d="M397 712v-712h-86v323q-27 -4 -56 -6v-154h-63v154q-73 2 -108 39t-35 123v233h86v-224q0 -84 57 -92v136h63v-138q31 2 56 6v312h86z" />
    <glyph glyph-name="uni04B9" unicode="&#x4b9;" horiz-adv-x="389" 
d="M332 518v-518h-81v229q-26 -4 -39 -5v-127h-54v126h-1q-60 2 -89.5 31.5t-29.5 92.5v171h81v-160q0 -55 39 -61v109h54v-109q17 0 39 4v217h81z" />
    <glyph glyph-name="uni04BA" unicode="&#x4ba;" horiz-adv-x="438" 
d="M150 712v-318q41 8 89 8q76 0 113 -37t37 -126v-239h-86v230q0 54 -19.5 74t-58.5 20q-36 0 -75 -6v-318h-86v712h86z" />
    <glyph glyph-name="uni04BB" unicode="&#x4bb;" horiz-adv-x="368" 
d="M138 518v-217q33 6 68 6q63 0 93.5 -29.5t30.5 -93.5v-184h-81v173q0 33 -13 47.5t-42 14.5q-27 0 -56 -6v-229h-81v518h81z" />
    <glyph glyph-name="uni04C0" unicode="&#x4c0;" horiz-adv-x="214" 
d="M150 712v-712h-86v712h86z" />
    <glyph glyph-name="uni04CF" unicode="&#x4cf;" horiz-adv-x="195" 
d="M138 712v-712h-81v712h81z" />
    <glyph glyph-name="uni04D8" unicode="&#x4d8;" horiz-adv-x="433" 
d="M212 720q77 0 122 -52q33 -38 42.5 -99t9.5 -213t-9.5 -213t-42.5 -99q-45 -52 -122 -52q-73 0 -119 46.5t-46 132.5v224h253q-2 112 -7.5 155.5t-22.5 65.5q-20 27 -58 27q-79 0 -79 -108h-86q2 95 49 141q46 44 116 44zM300 324h-167v-156q0 -44 21 -71.5t58 -27.5
q38 0 58 27q17 22 22.5 66.5t7.5 161.5z" />
    <glyph glyph-name="uni04D9" unicode="&#x4d9;" 
d="M41 278h213q0 126 -21 153q-15 22 -46 22q-29 0 -46 -20t-17 -60h-81q1 72 42 115q37 38 102 38q66 0 103 -40q27 -29 36.5 -83t9.5 -144q0 -91 -9 -144.5t-36 -82.5q-37 -40 -102 -40t-102 40q-28 29 -37 85t-9 161zM123 217q0 -107 20 -131q16 -21 46 -21q29 0 45 21
q20 24 20 131h-131z" />
    <glyph glyph-name="uni04E2" unicode="&#x4e2;" horiz-adv-x="468" 
d="M64 712h86v-494l175 494h79v-712h-86v494l-174 -494h-80v712zM348 838v-58h-228v58h228z" />
    <glyph glyph-name="uni04E3" unicode="&#x4e3;" horiz-adv-x="407" 
d="M57 518h81v-343l137 343h74v-518h-81v343l-137 -343h-74v518zM318 665v-57h-229v57h229z" />
    <glyph glyph-name="uni04E8" unicode="&#x4e8;" horiz-adv-x="442" 
d="M221 -8q-77 0 -122 52q-33 38 -42.5 99t-9.5 213t9.5 213t42.5 99q45 52 122 52q78 0 123 -52q33 -37 42 -97.5t9 -214.5t-9 -214.5t-42 -97.5q-45 -52 -123 -52zM221 69q39 0 58 27q17 24 23 71.5t7 157.5h-176q0 -110 6 -157.5t24 -71.5q20 -27 58 -27zM163 616
q-17 -24 -23 -69t-7 -148h176q-1 103 -7 148.5t-23 68.5q-19 27 -58 27t-58 -27z" />
    <glyph glyph-name="uni04E9" unicode="&#x4e9;" 
d="M188 526q74 0 110 -48q22 -29 29.5 -80t7.5 -139t-7.5 -139t-29.5 -80q-36 -48 -110 -48q-73 0 -109 48q-22 29 -30 80.5t-8 138.5t8 138.5t30 80.5q36 48 109 48zM254 240h-132q0 -125 21 -153q16 -23 45 -23q30 0 46 23q20 28 20 153zM188 454q-29 0 -45 -23
q-19 -27 -21 -130h132q-2 105 -20 130q-16 23 -46 23z" />
    <glyph glyph-name="uni04EE" unicode="&#x4ee;" horiz-adv-x="392" 
d="M388 712l-185 -599q-21 -68 -56 -90.5t-111 -22.5v77q44 0 64 15t33 59l23 79l-152 482h94l99 -363l97 363h94zM311 838v-58h-228v58h228z" />
    <glyph glyph-name="uni04EF" unicode="&#x4ef;" horiz-adv-x="343" 
d="M339 518l-146 -601q-15 -65 -57.5 -88t-114.5 -23v72q40 0 62 13t31 47l16 63l-126 517h89l79 -389l78 389h89zM287 665v-57h-229v57h229z" />
    <glyph glyph-name="uni1E00" unicode="&#x1e00;" horiz-adv-x="425" 
d="M5 0l166 712h83l166 -712h-91l-34 168h-166l-34 -168h-90zM145 245h134l-67 328zM213 -26q41 0 69.5 -29t28.5 -69t-28.5 -69t-69.5 -29t-69.5 29t-28.5 69t28.5 69t69.5 29zM213 -75q-20 0 -34.5 -14.5t-14.5 -34.5t14.5 -34.5t34.5 -14.5t34.5 14.5t14.5 34.5
t-14.5 34.5t-34.5 14.5z" />
    <glyph glyph-name="uni1E01" unicode="&#x1e01;" horiz-adv-x="375" 
d="M180 526q65 0 101 -36q41 -43 41 -114v-376h-77v46q-12 -20 -30 -35q-25 -19 -61 -19q-54 0 -89 39q-33 38 -33 116q0 76 46 117q40 35 110 35h53v82q0 74 -61 74q-23 0 -40 -17q-19 -20 -19 -60h-81q0 70 40 110q38 38 100 38zM241 240h-46q-38 0 -58 -19
q-24 -22 -24 -71q0 -87 63 -87q29 0 47 22.5t18 58.5v96zM184 -26q40 0 69 -29t29 -69t-29 -69t-69 -29t-68.5 29t-28.5 69t28.5 69t68.5 29zM184 -75q-20 0 -34.5 -14.5t-14.5 -34.5t14.5 -34.5t34.5 -14.5t35 14.5t15 34.5t-15 34.5t-35 14.5z" />
    <glyph glyph-name="uni1E02" unicode="&#x1e02;" horiz-adv-x="444" 
d="M64 712h153q88 0 130 -43q23 -24 32.5 -55.5t9.5 -88.5q0 -86 -42 -127q-17 -17 -40 -27q24 -7 44 -26q26 -25 34.5 -59t8.5 -86q0 -63 -10.5 -97t-35.5 -60q-42 -43 -131 -43h-153v712zM212 333h-62v-256h62q50 0 73 28.5t23 99.5q0 68 -23.5 98t-72.5 30zM213 635h-63
v-228h63q46 0 68 27t22 87q0 63 -21 88.5t-69 25.5zM255 858v-81h-82v81h82z" />
    <glyph glyph-name="uni1E03" unicode="&#x1e03;" horiz-adv-x="388" 
d="M138 712v-230q11 16 29 28q23 16 56 16q54 0 86 -38q24 -27 31 -77.5t7 -151.5t-7 -151t-31 -77q-33 -39 -86 -39q-30 0 -56 16q-22 15 -31 32v-40h-79v712h81zM200 454q-25 0 -42 -17q-20 -20 -20 -59v-237q0 -40 20 -60q17 -17 42 -17q27 0 44 22q13 16 17 52.5
t4 120.5t-4 120.5t-17 52.5q-17 22 -44 22zM269 684v-82h-81v82h81z" />
    <glyph glyph-name="uni1E04" unicode="&#x1e04;" horiz-adv-x="444" 
d="M64 712h153q88 0 130 -43q23 -24 32.5 -55.5t9.5 -88.5q0 -86 -42 -127q-17 -17 -40 -27q24 -7 44 -26q26 -25 34.5 -59t8.5 -86q0 -63 -10.5 -97t-35.5 -60q-42 -43 -131 -43h-153v712zM212 333h-62v-256h62q50 0 73 28.5t23 99.5q0 68 -23.5 98t-72.5 30zM213 635h-63
v-228h63q46 0 68 27t22 87q0 63 -21 88.5t-69 25.5zM254 -60v-82h-81v82h81z" />
    <glyph glyph-name="uni1E05" unicode="&#x1e05;" horiz-adv-x="388" 
d="M138 712v-230q11 16 29 28q23 16 56 16q54 0 86 -38q24 -27 31 -77.5t7 -151.5t-7 -151t-31 -77q-33 -39 -86 -39q-30 0 -56 16q-22 15 -31 32v-40h-79v712h81zM200 454q-25 0 -42 -17q-20 -20 -20 -59v-237q0 -40 20 -60q17 -17 42 -17q27 0 44 22q13 16 17 52.5
t4 120.5t-4 120.5t-17 52.5q-17 22 -44 22zM244 -60v-82h-81v82h81z" />
    <glyph glyph-name="uni1E06" unicode="&#x1e06;" horiz-adv-x="444" 
d="M64 712h153q88 0 130 -43q23 -24 32.5 -55.5t9.5 -88.5q0 -86 -42 -127q-17 -17 -40 -27q24 -7 44 -26q26 -25 34.5 -59t8.5 -86q0 -63 -10.5 -97t-35.5 -60q-42 -43 -131 -43h-153v712zM212 333h-62v-256h62q50 0 73 28.5t23 99.5q0 68 -23.5 98t-72.5 30zM213 635h-63
v-228h63q46 0 68 27t22 87q0 63 -21 88.5t-69 25.5zM328 -73v-57h-228v57h228z" />
    <glyph glyph-name="uni1E07" unicode="&#x1e07;" horiz-adv-x="388" 
d="M138 712v-230q11 16 29 28q23 16 56 16q54 0 86 -38q24 -27 31 -77.5t7 -151.5t-7 -151t-31 -77q-33 -39 -86 -39q-30 0 -56 16q-22 15 -31 32v-40h-79v712h81zM200 454q-25 0 -42 -17q-20 -20 -20 -59v-237q0 -40 20 -60q17 -17 42 -17q27 0 44 22q13 16 17 52.5
t4 120.5t-4 120.5t-17 52.5q-17 22 -44 22zM317 -73v-57h-229v57h229z" />
    <glyph glyph-name="uni1E08" unicode="&#x1e08;" horiz-adv-x="423" 
d="M327 897l-81 -135h-62l69 135h74zM221 720q69 0 113 -42q49 -48 51 -141h-85q-2 55 -23 81q-20 25 -56 25q-39 0 -59 -27q-18 -25 -23.5 -77t-5.5 -183t5.5 -183t23.5 -77q20 -27 59 -27q36 0 56 25q21 28 23 82h85q-2 -97 -54 -145q-44 -39 -110 -39q-77 0 -122 52
q-34 39 -43 98t-9 214t9 214t43 98q45 52 122 52zM247 -38l-50 -144h-64l57 144h57z" />
    <glyph glyph-name="uni1E09" unicode="&#x1e09;" horiz-adv-x="364" 
d="M223 -38l-50 -144h-64l57 144h57zM41 259q0 87 8 138.5t30 80.5q36 48 109 48q65 0 101 -35q40 -38 42 -117h-81q0 41 -16 60q-17 20 -45 20q-29 0 -46 -22q-13 -18 -17 -56t-4 -117t4 -117t17 -56q17 -22 46 -22q28 0 45 20q16 19 16 60h81q-2 -79 -42 -117
q-36 -35 -101 -35q-73 0 -109 48q-22 29 -30 80.5t-8 138.5zM290 721l-81 -135h-61l68 135h74z" />
    <glyph glyph-name="uni1E0A" unicode="&#x1e0a;" horiz-adv-x="448" 
d="M64 712h164q77 0 122 -50q33 -35 42 -94.5t9 -211.5t-9 -211.5t-42 -94.5q-45 -50 -122 -50h-164v712zM225 635h-75v-558h75q39 0 61 27q19 24 24 72t5 180t-5 180t-24 72q-22 27 -61 27zM264 858v-81h-82v81h82z" />
    <glyph glyph-name="uni1E0B" unicode="&#x1e0b;" horiz-adv-x="388" 
d="M78 30q-24 28 -31 78t-7 151q0 102 7 151.5t31 77.5q32 38 86 38q33 0 56 -16q18 -12 29 -28v230h81v-712h-79v40q-9 -17 -31 -32q-26 -16 -56 -16q-52 0 -86 38zM229 81q20 20 20 60v237q0 39 -20 59q-17 17 -42 17q-27 0 -44 -22q-14 -16 -18 -52t-4 -121t4 -121
t18 -52q17 -22 44 -22q25 0 42 17zM203 684v-82h-81v82h81z" />
    <glyph glyph-name="uni1E0C" unicode="&#x1e0c;" horiz-adv-x="448" 
d="M64 712h164q77 0 122 -50q33 -35 42 -94.5t9 -211.5t-9 -211.5t-42 -94.5q-45 -50 -122 -50h-164v712zM225 635h-75v-558h75q39 0 61 27q19 24 24 72t5 180t-5 180t-24 72q-22 27 -61 27zM263 -60v-82h-81v82h81z" />
    <glyph glyph-name="uni1E0D" unicode="&#x1e0d;" horiz-adv-x="388" 
d="M78 30q-24 28 -31 78t-7 151q0 102 7 151.5t31 77.5q32 38 86 38q33 0 56 -16q18 -12 29 -28v230h81v-712h-79v40q-9 -17 -31 -32q-26 -16 -56 -16q-52 0 -86 38zM229 81q20 20 20 60v237q0 39 -20 59q-17 17 -42 17q-27 0 -44 -22q-14 -16 -18 -52t-4 -121t4 -121
t18 -52q17 -22 44 -22q25 0 42 17zM229 -60v-82h-81v82h81z" />
    <glyph glyph-name="uni1E0E" unicode="&#x1e0e;" horiz-adv-x="448" 
d="M64 712h164q77 0 122 -50q33 -35 42 -94.5t9 -211.5t-9 -211.5t-42 -94.5q-45 -50 -122 -50h-164v712zM225 635h-75v-558h75q39 0 61 27q19 24 24 72t5 180t-5 180t-24 72q-22 27 -61 27zM337 -73v-57h-228v57h228z" />
    <glyph glyph-name="uni1E0F" unicode="&#x1e0f;" horiz-adv-x="388" 
d="M78 30q-24 28 -31 78t-7 151q0 102 7 151.5t31 77.5q32 38 86 38q33 0 56 -16q18 -12 29 -28v230h81v-712h-79v40q-9 -17 -31 -32q-26 -16 -56 -16q-52 0 -86 38zM229 81q20 20 20 60v237q0 39 -20 59q-17 17 -42 17q-27 0 -44 -22q-14 -16 -18 -52t-4 -121t4 -121
t18 -52q17 -22 44 -22q25 0 42 17zM302 -73v-57h-229v57h229z" />
    <glyph glyph-name="uni1E10" unicode="&#x1e10;" horiz-adv-x="448" 
d="M64 712h164q77 0 122 -50q33 -35 42 -94.5t9 -211.5t-9 -211.5t-42 -94.5q-45 -50 -122 -50h-164v712zM225 635h-75v-558h75q39 0 61 27q19 24 24 72t5 180t-5 180t-24 72q-22 27 -61 27zM249 -38l-50 -144h-64l57 144h57z" />
    <glyph glyph-name="uni1E11" unicode="&#x1e11;" horiz-adv-x="388" 
d="M78 30q-24 28 -31 78t-7 151q0 102 7 151.5t31 77.5q32 38 86 38q33 0 56 -16q18 -12 29 -28v230h81v-712h-79v40q-9 -17 -31 -32q-26 -16 -56 -16q-52 0 -86 38zM229 81q20 20 20 60v237q0 39 -20 59q-17 17 -42 17q-27 0 -44 -22q-14 -16 -18 -52t-4 -121t4 -121
t18 -52q17 -22 44 -22q25 0 42 17zM223 -38l-50 -144h-64l57 144h57z" />
    <glyph glyph-name="uni1E12" unicode="&#x1e12;" horiz-adv-x="448" 
d="M64 712h164q77 0 122 -50q33 -35 42 -94.5t9 -211.5t-9 -211.5t-42 -94.5q-45 -50 -122 -50h-164v712zM225 635h-75v-558h75q39 0 61 27q19 24 24 72t5 180t-5 180t-24 72q-22 27 -61 27zM257 -38l93 -135h-67l-60 87l-59 -87h-67l93 135h67z" />
    <glyph glyph-name="uni1E13" unicode="&#x1e13;" horiz-adv-x="388" 
d="M78 30q-24 28 -31 78t-7 151q0 102 7 151.5t31 77.5q32 38 86 38q33 0 56 -16q18 -12 29 -28v230h81v-712h-79v40q-9 -17 -31 -32q-26 -16 -56 -16q-52 0 -86 38zM229 81q20 20 20 60v237q0 39 -20 59q-17 17 -42 17q-27 0 -44 -22q-14 -16 -18 -52t-4 -121t4 -121
t18 -52q17 -22 44 -22q25 0 42 17zM222 -38l93 -135h-67l-60 87l-59 -87h-67l93 135h67z" />
    <glyph glyph-name="uni1E14" unicode="&#x1e14;" horiz-adv-x="380" 
d="M173 1035l69 -135h-62l-81 135h74zM339 712v-77h-189v-234h163v-77h-163v-247h189v-77h-275v712h275zM319 838v-58h-228v58h228z" />
    <glyph glyph-name="uni1E15" unicode="&#x1e15;" 
d="M157 859l69 -135h-62l-81 135h74zM335 240h-213q0 -126 21 -153q15 -22 46 -22q29 0 46 20t17 60h81q-1 -72 -42 -115q-37 -38 -102 -38q-66 0 -103 40q-27 29 -36.5 83t-9.5 144q0 91 9 144.5t36 82.5q37 40 102 40t102 -40q28 -29 37 -85t9 -161zM253 301
q0 107 -20 131q-16 21 -46 21q-29 0 -45 -21q-20 -24 -20 -131h131zM302 665v-57h-229v57h229z" />
    <glyph glyph-name="uni1E16" unicode="&#x1e16;" horiz-adv-x="380" 
d="M311 1035l-81 -135h-62l69 135h74zM339 712v-77h-189v-234h163v-77h-163v-247h189v-77h-275v712h275zM319 838v-58h-228v58h228z" />
    <glyph glyph-name="uni1E17" unicode="&#x1e17;" 
d="M290 859l-81 -135h-61l68 135h74zM335 240h-213q0 -126 21 -153q15 -22 46 -22q29 0 46 20t17 60h81q-1 -72 -42 -115q-37 -38 -102 -38q-66 0 -103 40q-27 29 -36.5 83t-9.5 144q0 91 9 144.5t36 82.5q37 40 102 40t102 -40q28 -29 37 -85t9 -161zM253 301
q0 107 -20 131q-16 21 -46 21q-29 0 -45 -21q-20 -24 -20 -131h131zM302 665v-57h-229v57h229z" />
    <glyph glyph-name="uni1E18" unicode="&#x1e18;" horiz-adv-x="380" 
d="M339 712v-77h-189v-234h163v-77h-163v-247h189v-77h-275v712h275zM239 -38l93 -135h-67l-60 87l-59 -87h-67l93 135h67z" />
    <glyph glyph-name="uni1E19" unicode="&#x1e19;" 
d="M335 240h-213q0 -126 21 -153q15 -22 46 -22q29 0 46 20t17 60h81q-1 -72 -42 -115q-37 -38 -102 -38q-66 0 -103 40q-27 29 -36.5 83t-9.5 144q0 91 9 144.5t36 82.5q37 40 102 40t102 -40q28 -29 37 -85t9 -161zM253 301q0 107 -20 131q-16 21 -46 21q-29 0 -45 -21
q-20 -24 -20 -131h131zM222 -38l93 -135h-67l-60 87l-59 -87h-67l93 135h67z" />
    <glyph glyph-name="uni1E1A" unicode="&#x1e1a;" horiz-adv-x="380" 
d="M339 712v-77h-189v-234h163v-77h-163v-247h189v-77h-275v712h275zM153 -48q30 0 56 -17q25 -16 45 -16q21 0 44 23l38 -37q-42 -42 -80 -42q-29 0 -57 16q-30 16 -44 16q-20 0 -45 -23l-36 37q42 43 79 43z" />
    <glyph glyph-name="uni1E1B" unicode="&#x1e1b;" 
d="M335 240h-213q0 -126 21 -153q15 -22 46 -22q29 0 46 20t17 60h81q-1 -72 -42 -115q-37 -38 -102 -38q-66 0 -103 40q-27 29 -36.5 83t-9.5 144q0 91 9 144.5t36 82.5q37 40 102 40t102 -40q28 -29 37 -85t9 -161zM253 301q0 107 -20 131q-16 21 -46 21q-29 0 -45 -21
q-20 -24 -20 -131h131zM136 -57q30 0 58 -17q25 -15 43 -15q21 0 44 23l38 -38q-43 -42 -80 -42q-27 0 -58 17q-25 15 -43 15q-22 0 -45 -23l-36 38q42 42 79 42z" />
    <glyph glyph-name="uni1E1C" unicode="&#x1e1c;" horiz-adv-x="380" 
d="M231 -38l-50 -144h-64l57 144h57zM339 712v-77h-189v-234h163v-77h-163v-247h189v-77h-275v712h275zM265 867h58q-7 -112 -118 -112q-110 0 -117 112h58q7 -53 59 -53q53 0 60 53z" />
    <glyph glyph-name="uni1E1D" unicode="&#x1e1d;" 
d="M223 -38l-50 -144h-64l57 144h57zM335 240h-213q0 -126 21 -153q15 -22 46 -22q29 0 46 20t17 60h81q-1 -72 -42 -115q-37 -38 -102 -38q-66 0 -103 40q-27 29 -36.5 83t-9.5 144q0 91 9 144.5t36 82.5q37 40 102 40t102 -40q28 -29 37 -85t9 -161zM253 301
q0 107 -20 131q-16 21 -46 21q-29 0 -45 -21q-20 -24 -20 -131h131zM247 691h58q-7 -112 -118 -112q-110 0 -117 112h58q7 -53 59 -53q53 0 60 53z" />
    <glyph glyph-name="uni1E1E" unicode="&#x1e1e;" horiz-adv-x="375" 
d="M339 712v-77h-189v-239h163v-77h-163v-319h-86v712h275zM246 858v-81h-82v81h82z" />
    <glyph glyph-name="uni1E1F" unicode="&#x1e1f;" horiz-adv-x="254" 
d="M237 716v-73q-80 0 -80 -78v-47h80v-63h-80v-455h-81v455h-59v63h59v50q0 78 45 115q39 33 116 33zM167 859v-82h-81v82h81z" />
    <glyph glyph-name="uni1E20" unicode="&#x1e20;" horiz-adv-x="434" 
d="M221 720q71 0 115 -44q47 -47 49 -140h-85q-2 107 -79 107q-39 0 -59 -27q-18 -25 -23.5 -77t-5.5 -183t5.5 -183t23.5 -77q20 -27 59 -27q37 0 58 27.5t21 71.5v143h-79v71h165v-211q0 -86 -46 -132.5t-119 -46.5q-75 0 -122 52q-33 37 -42.5 97.5t-9.5 214.5t9.5 214.5
t42.5 97.5q47 52 122 52zM335 838v-58h-228v58h228z" />
    <glyph glyph-name="uni1E21" unicode="&#x1e21;" horiz-adv-x="387" 
d="M166 526q34 0 56 -16q15 -10 30 -28v36h78v-536q0 -100 -42 -145q-37 -39 -102 -39t-103 37q-40 40 -40 112h81q0 -43 18 -62q13 -16 44 -16q28 0 44 18q19 20 19 91v75q-11 -17 -28 -29q-23 -17 -55 -17q-51 0 -84 39q-24 27 -32.5 75t-8.5 146t8.5 146t32.5 76
q33 37 84 37zM187 454q-25 0 -44 -22q-13 -16 -17 -50t-4 -116t4 -116t17 -50q19 -21 44 -21t43 16q19 19 19 60v223q0 40 -19 59q-17 17 -43 17zM302 665v-57h-229v57h229z" />
    <glyph glyph-name="uni1E22" unicode="&#x1e22;" horiz-adv-x="458" 
d="M394 712v-712h-86v324h-158v-324h-86v712h86v-311h158v311h86zM270 858v-81h-82v81h82z" />
    <glyph glyph-name="uni1E23" unicode="&#x1e23;" horiz-adv-x="395" 
d="M138 712v-231q12 19 29 29q26 16 56 16q55 0 88 -38q31 -34 31 -107v-381h-81v381q0 35 -17.5 54t-44.5 19t-44 -19t-17 -54v-381h-81v712h81zM240 859v-82h-81v82h81z" />
    <glyph glyph-name="uni1E24" unicode="&#x1e24;" horiz-adv-x="458" 
d="M394 712v-712h-86v324h-158v-324h-86v712h86v-311h158v311h86zM269 -60v-82h-81v82h81z" />
    <glyph glyph-name="uni1E25" unicode="&#x1e25;" horiz-adv-x="395" 
d="M138 712v-231q12 19 29 29q26 16 56 16q55 0 88 -38q31 -34 31 -107v-381h-81v381q0 35 -17.5 54t-44.5 19t-44 -19t-17 -54v-381h-81v712h81zM241 -60v-82h-81v82h81z" />
    <glyph glyph-name="uni1E26" unicode="&#x1e26;" horiz-adv-x="458" 
d="M394 712v-712h-86v324h-158v-324h-86v712h86v-311h158v311h86zM348 858v-81h-82v81h82zM192 858v-81h-82v81h82z" />
    <glyph glyph-name="uni1E27" unicode="&#x1e27;" horiz-adv-x="395" 
d="M138 712v-231q12 19 29 29q26 16 56 16q55 0 88 -38q31 -34 31 -107v-381h-81v381q0 35 -17.5 54t-44.5 19t-44 -19t-17 -54v-381h-81v712h81zM162 859v-82h-82v82h82zM319 859v-82h-82v82h82z" />
    <glyph glyph-name="uni1E28" unicode="&#x1e28;" horiz-adv-x="458" 
d="M394 712v-712h-86v324h-158v-324h-86v712h86v-311h158v311h86zM134 -38l-50 -144h-64l57 144h57z" />
    <glyph glyph-name="uni1E29" unicode="&#x1e29;" horiz-adv-x="395" 
d="M138 712v-231q12 19 29 29q26 16 56 16q55 0 88 -38q31 -34 31 -107v-381h-81v381q0 35 -17.5 54t-44.5 19t-44 -19t-17 -54v-381h-81v712h81zM133 -38l-50 -144h-64l57 144h57z" />
    <glyph glyph-name="uni1E2A" unicode="&#x1e2a;" horiz-adv-x="458" 
d="M394 712v-712h-86v324h-158v-324h-86v712h86v-311h158v311h86zM288 -41h58q-7 -112 -118 -112q-110 0 -117 112h58q7 -53 59 -53q53 0 60 53z" />
    <glyph glyph-name="uni1E2B" unicode="&#x1e2b;" horiz-adv-x="395" 
d="M138 712v-231q12 19 29 29q26 16 56 16q55 0 88 -38q31 -34 31 -107v-381h-81v381q0 35 -17.5 54t-44.5 19t-44 -19t-17 -54v-381h-81v712h81zM259 -41h58q-7 -112 -118 -112q-110 0 -117 112h58q7 -53 59 -53q53 0 60 53z" />
    <glyph glyph-name="uni1E2C" unicode="&#x1e2c;" horiz-adv-x="214" 
d="M150 712v-712h-86v712h86zM56 -48q30 0 56 -17q25 -16 45 -16q21 0 44 23l38 -37q-42 -42 -80 -42q-29 0 -57 16q-30 16 -44 16q-20 0 -45 -23l-36 37q42 43 79 43z" />
    <glyph glyph-name="uni1E2D" unicode="&#x1e2d;" horiz-adv-x="195" 
d="M138 518v-518h-81v518h81zM145 704v-94h-95v94h95zM46 -57q30 0 58 -17q25 -15 43 -15q21 0 44 23l38 -38q-43 -42 -80 -42q-27 0 -58 17q-25 15 -43 15q-22 0 -45 -23l-36 38q42 42 79 42z" />
    <glyph glyph-name="uni1E2E" unicode="&#x1e2e;" horiz-adv-x="214" 
d="M214 1035l-81 -135h-62l69 135h74zM150 712v-712h-86v712h86zM227 858v-81h-82v81h82zM71 858v-81h-82v81h82z" />
    <glyph glyph-name="uni1E2F" unicode="&#x1e2f;" horiz-adv-x="195" 
d="M200 859l-81 -135h-61l68 135h74zM138 518v-518h-81v518h81zM60 684v-82h-82v82h82zM217 684v-82h-82v82h82z" />
    <glyph glyph-name="uni1E30" unicode="&#x1e30;" horiz-adv-x="446" 
d="M410 712l-144 -294l165 -418h-93l-126 322l-62 -123v-199h-86v712h86v-361l172 361h88zM342 897l-81 -135h-62l69 135h74z" />
    <glyph glyph-name="uni1E31" unicode="&#x1e31;" horiz-adv-x="396" 
d="M138 712v-440l147 246h86l-126 -202l138 -316h-90l-99 244l-56 -89v-155h-81v712h81zM200 897l-81 -135h-61l68 135h74z" />
    <glyph glyph-name="uni1E32" unicode="&#x1e32;" horiz-adv-x="446" 
d="M410 712l-144 -294l165 -418h-93l-126 322l-62 -123v-199h-86v712h86v-361l172 361h88zM276 -60v-82h-81v82h81z" />
    <glyph glyph-name="uni1E33" unicode="&#x1e33;" horiz-adv-x="396" 
d="M138 712v-440l147 246h86l-126 -202l138 -316h-90l-99 244l-56 -89v-155h-81v712h81zM261 -60v-82h-81v82h81z" />
    <glyph glyph-name="uni1E34" unicode="&#x1e34;" horiz-adv-x="446" 
d="M410 712l-144 -294l165 -418h-93l-126 322l-62 -123v-199h-86v712h86v-361l172 361h88zM350 -73v-57h-228v57h228z" />
    <glyph glyph-name="uni1E35" unicode="&#x1e35;" horiz-adv-x="396" 
d="M138 712v-440l147 246h86l-126 -202l138 -316h-90l-99 244l-56 -89v-155h-81v712h81zM334 -73v-57h-229v57h229z" />
    <glyph glyph-name="uni1E36" unicode="&#x1e36;" horiz-adv-x="361" 
d="M150 712v-635h189v-77h-275v712h86zM246 -60v-82h-81v82h81z" />
    <glyph glyph-name="uni1E37" unicode="&#x1e37;" horiz-adv-x="228" 
d="M134 712v-561q0 -78 77 -78v-73q-74 0 -112 32q-46 38 -46 116v564h81zM154 -60v-82h-81v82h81z" />
    <glyph glyph-name="uni1E38" unicode="&#x1e38;" horiz-adv-x="361" 
d="M222 838v-58h-228v58h228zM150 712v-635h189v-77h-275v712h86zM246 -60v-82h-81v82h81z" />
    <glyph glyph-name="uni1E39" unicode="&#x1e39;" horiz-adv-x="228" 
d="M212 840v-57h-229v57h229zM134 712v-561q0 -78 77 -78v-73q-74 0 -112 32q-46 38 -46 116v564h81zM154 -60v-82h-81v82h81z" />
    <glyph glyph-name="uni1E3A" unicode="&#x1e3a;" horiz-adv-x="361" 
d="M150 712v-635h189v-77h-275v712h86zM320 -73v-57h-228v57h228z" />
    <glyph glyph-name="uni1E3B" unicode="&#x1e3b;" horiz-adv-x="228" 
d="M134 712v-561q0 -78 77 -78v-73q-74 0 -112 32q-46 38 -46 116v564h81zM227 -73v-57h-229v57h229z" />
    <glyph glyph-name="uni1E3C" unicode="&#x1e3c;" horiz-adv-x="361" 
d="M150 712v-635h189v-77h-275v712h86zM240 -38l93 -135h-67l-60 87l-59 -87h-67l93 135h67z" />
    <glyph glyph-name="uni1E3D" unicode="&#x1e3d;" horiz-adv-x="228" 
d="M134 712v-561q0 -78 77 -78v-73q-74 0 -112 32q-46 38 -46 116v564h81zM147 -38l93 -135h-67l-60 87l-59 -87h-67l93 135h67z" />
    <glyph glyph-name="uni1E3E" unicode="&#x1e3e;" horiz-adv-x="577" 
d="M513 712v-712h-86v507l-113 -333h-53l-111 325v-499h-86v712h81l144 -396l143 396h81zM395 897l-81 -135h-62l69 135h74z" />
    <glyph glyph-name="uni1E3F" unicode="&#x1e3f;" horiz-adv-x="599" 
d="M423 526q60 0 93 -38q30 -33 30 -107v-381h-81v381q0 34 -17.5 53.5t-43.5 19.5q-27 0 -44.5 -19.5t-17.5 -53.5v-381h-81v381q0 34 -17.5 53.5t-44.5 19.5q-26 0 -43.5 -19.5t-17.5 -53.5v-381h-81v518h78v-40q11 19 32 32q26 16 56 16t56.5 -15t42.5 -39q20 26 42 38
q28 16 59 16zM404 721l-81 -135h-61l68 135h74z" />
    <glyph glyph-name="uni1E40" unicode="&#x1e40;" horiz-adv-x="577" 
d="M513 712v-712h-86v507l-113 -333h-53l-111 325v-499h-86v712h81l144 -396l143 396h81zM330 858v-81h-82v81h82z" />
    <glyph glyph-name="uni1E41" unicode="&#x1e41;" horiz-adv-x="599" 
d="M423 526q60 0 93 -38q30 -33 30 -107v-381h-81v381q0 34 -17.5 53.5t-43.5 19.5q-27 0 -44.5 -19.5t-17.5 -53.5v-381h-81v381q0 34 -17.5 53.5t-44.5 19.5q-26 0 -43.5 -19.5t-17.5 -53.5v-381h-81v518h78v-40q11 19 32 32q26 16 56 16t56.5 -15t42.5 -39q20 26 42 38
q28 16 59 16zM342 684v-82h-81v82h81z" />
    <glyph glyph-name="uni1E42" unicode="&#x1e42;" horiz-adv-x="577" 
d="M513 712v-712h-86v507l-113 -333h-53l-111 325v-499h-86v712h81l144 -396l143 396h81zM329 -60v-82h-81v82h81z" />
    <glyph glyph-name="uni1E43" unicode="&#x1e43;" horiz-adv-x="599" 
d="M423 526q60 0 93 -38q30 -33 30 -107v-381h-81v381q0 34 -17.5 53.5t-43.5 19.5q-27 0 -44.5 -19.5t-17.5 -53.5v-381h-81v381q0 34 -17.5 53.5t-44.5 19.5q-26 0 -43.5 -19.5t-17.5 -53.5v-381h-81v518h78v-40q11 19 32 32q26 16 56 16t56.5 -15t42.5 -39q20 26 42 38
q28 16 59 16zM343 -60v-82h-81v82h81z" />
    <glyph glyph-name="uni1E44" unicode="&#x1e44;" horiz-adv-x="476" 
d="M412 712v-712h-78l-184 487v-487h-86v712h80l182 -487v487h86zM279 858v-81h-82v81h82z" />
    <glyph glyph-name="uni1E45" unicode="&#x1e45;" horiz-adv-x="395" 
d="M223 526q55 0 88 -38q31 -34 31 -107v-381h-81v381q0 34 -17.5 53.5t-44.5 19.5q-26 0 -43.5 -19.5t-17.5 -53.5v-381h-81v518h78v-40q11 19 32 32q26 16 56 16zM240 684v-82h-81v82h81z" />
    <glyph glyph-name="uni1E46" unicode="&#x1e46;" horiz-adv-x="476" 
d="M412 712v-712h-78l-184 487v-487h-86v712h80l182 -487v487h86zM278 -60v-82h-81v82h81z" />
    <glyph glyph-name="uni1E47" unicode="&#x1e47;" horiz-adv-x="395" 
d="M223 526q55 0 88 -38q31 -34 31 -107v-381h-81v381q0 34 -17.5 53.5t-44.5 19.5q-26 0 -43.5 -19.5t-17.5 -53.5v-381h-81v518h78v-40q11 19 32 32q26 16 56 16zM241 -60v-82h-81v82h81z" />
    <glyph glyph-name="uni1E48" unicode="&#x1e48;" horiz-adv-x="476" 
d="M412 712v-712h-78l-184 487v-487h-86v712h80l182 -487v487h86zM352 -73v-57h-228v57h228z" />
    <glyph glyph-name="uni1E49" unicode="&#x1e49;" horiz-adv-x="395" 
d="M223 526q55 0 88 -38q31 -34 31 -107v-381h-81v381q0 34 -17.5 53.5t-44.5 19.5q-26 0 -43.5 -19.5t-17.5 -53.5v-381h-81v518h78v-40q11 19 32 32q26 16 56 16zM314 -73v-57h-229v57h229z" />
    <glyph glyph-name="uni1E4A" unicode="&#x1e4a;" horiz-adv-x="476" 
d="M412 712v-712h-78l-184 487v-487h-86v712h80l182 -487v487h86zM272 -38l93 -135h-67l-60 87l-59 -87h-67l93 135h67z" />
    <glyph glyph-name="uni1E4B" unicode="&#x1e4b;" horiz-adv-x="395" 
d="M223 526q55 0 88 -38q31 -34 31 -107v-381h-81v381q0 34 -17.5 53.5t-44.5 19.5q-26 0 -43.5 -19.5t-17.5 -53.5v-381h-81v518h78v-40q11 19 32 32q26 16 56 16zM234 -38l93 -135h-67l-60 87l-59 -87h-67l93 135h67z" />
    <glyph glyph-name="uni1E4C" unicode="&#x1e4c;" horiz-adv-x="442" 
d="M327 1035l-81 -135h-62l69 135h74zM221 -8q-77 0 -122 52q-33 38 -42.5 99t-9.5 213t9.5 213t42.5 99q45 52 122 52q78 0 123 -52q33 -37 42 -97.5t9 -214.5t-9 -214.5t-42 -97.5q-45 -52 -123 -52zM221 69q39 0 58 27q19 25 24.5 76.5t5.5 183.5t-5.5 183.5t-24.5 76.5
q-19 27 -58 27t-58 -27q-19 -25 -24.5 -76.5t-5.5 -183.5t5.5 -183.5t24.5 -76.5q19 -27 58 -27zM169 861q30 0 56 -17q28 -16 45 -16q21 0 44 23l38 -37q-42 -42 -80 -42q-29 0 -57 16q-30 16 -44 16q-20 0 -45 -23l-36 37q42 43 79 43z" />
    <glyph glyph-name="uni1E4D" unicode="&#x1e4d;" 
d="M290 859l-81 -135h-61l68 135h74zM188 526q74 0 110 -48q22 -29 29.5 -80t7.5 -139t-7.5 -139t-29.5 -80q-36 -48 -110 -48q-73 0 -109 48q-22 29 -30 80.5t-8 138.5t8 138.5t30 80.5q36 48 109 48zM188 454q-29 0 -45 -23q-13 -18 -17 -56t-4 -116t4 -116t17 -56
q16 -23 45 -23q30 0 46 23q13 18 16.5 55t3.5 117t-3.5 117t-16.5 55q-16 23 -46 23zM138 685q30 0 58 -17q25 -15 43 -15q21 0 44 23l38 -38q-43 -42 -80 -42q-27 0 -58 17q-25 15 -43 15q-22 0 -45 -23l-36 38q42 42 79 42z" />
    <glyph glyph-name="uni1E4E" unicode="&#x1e4e;" horiz-adv-x="442" 
d="M340 996v-81h-82v81h82zM184 996v-81h-82v81h82zM221 -8q-77 0 -122 52q-33 38 -42.5 99t-9.5 213t9.5 213t42.5 99q45 52 122 52q78 0 123 -52q33 -37 42 -97.5t9 -214.5t-9 -214.5t-42 -97.5q-45 -52 -123 -52zM221 69q39 0 58 27q19 25 24.5 76.5t5.5 183.5
t-5.5 183.5t-24.5 76.5q-19 27 -58 27t-58 -27q-19 -25 -24.5 -76.5t-5.5 -183.5t5.5 -183.5t24.5 -76.5q19 -27 58 -27zM169 861q30 0 56 -17q28 -16 45 -16q21 0 44 23l38 -37q-42 -42 -80 -42q-29 0 -57 16q-30 16 -44 16q-20 0 -45 -23l-36 37q42 43 79 43z" />
    <glyph glyph-name="uni1E4F" unicode="&#x1e4f;" 
d="M150 822v-82h-82v82h82zM307 822v-82h-82v82h82zM188 526q74 0 110 -48q22 -29 29.5 -80t7.5 -139t-7.5 -139t-29.5 -80q-36 -48 -110 -48q-73 0 -109 48q-22 29 -30 80.5t-8 138.5t8 138.5t30 80.5q36 48 109 48zM188 454q-29 0 -45 -23q-13 -18 -17 -56t-4 -116t4 -116
t17 -56q16 -23 45 -23q30 0 46 23q13 18 16.5 55t3.5 117t-3.5 117t-16.5 55q-16 23 -46 23zM138 685q30 0 58 -17q25 -15 43 -15q21 0 44 23l38 -38q-43 -42 -80 -42q-27 0 -58 17q-25 15 -43 15q-22 0 -45 -23l-36 38q42 42 79 42z" />
    <glyph glyph-name="uni1E50" unicode="&#x1e50;" horiz-adv-x="442" 
d="M189 1035l69 -135h-62l-81 135h74zM221 -8q-77 0 -122 52q-33 38 -42.5 99t-9.5 213t9.5 213t42.5 99q45 52 122 52q78 0 123 -52q33 -37 42 -97.5t9 -214.5t-9 -214.5t-42 -97.5q-45 -52 -123 -52zM221 69q39 0 58 27q19 25 24.5 76.5t5.5 183.5t-5.5 183.5t-24.5 76.5
q-19 27 -58 27t-58 -27q-19 -25 -24.5 -76.5t-5.5 -183.5t5.5 -183.5t24.5 -76.5q19 -27 58 -27zM335 838v-58h-228v58h228z" />
    <glyph glyph-name="uni1E51" unicode="&#x1e51;" 
d="M157 859l69 -135h-62l-81 135h74zM188 526q74 0 110 -48q22 -29 29.5 -80t7.5 -139t-7.5 -139t-29.5 -80q-36 -48 -110 -48q-73 0 -109 48q-22 29 -30 80.5t-8 138.5t8 138.5t30 80.5q36 48 109 48zM188 454q-29 0 -45 -23q-13 -18 -17 -56t-4 -116t4 -116t17 -56
q16 -23 45 -23q30 0 46 23q13 18 16.5 55t3.5 117t-3.5 117t-16.5 55q-16 23 -46 23zM302 665v-57h-229v57h229z" />
    <glyph glyph-name="uni1E52" unicode="&#x1e52;" horiz-adv-x="442" 
d="M327 1035l-81 -135h-62l69 135h74zM221 -8q-77 0 -122 52q-33 38 -42.5 99t-9.5 213t9.5 213t42.5 99q45 52 122 52q78 0 123 -52q33 -37 42 -97.5t9 -214.5t-9 -214.5t-42 -97.5q-45 -52 -123 -52zM221 69q39 0 58 27q19 25 24.5 76.5t5.5 183.5t-5.5 183.5t-24.5 76.5
q-19 27 -58 27t-58 -27q-19 -25 -24.5 -76.5t-5.5 -183.5t5.5 -183.5t24.5 -76.5q19 -27 58 -27zM335 838v-58h-228v58h228z" />
    <glyph glyph-name="uni1E53" unicode="&#x1e53;" 
d="M290 859l-81 -135h-61l68 135h74zM188 526q74 0 110 -48q22 -29 29.5 -80t7.5 -139t-7.5 -139t-29.5 -80q-36 -48 -110 -48q-73 0 -109 48q-22 29 -30 80.5t-8 138.5t8 138.5t30 80.5q36 48 109 48zM188 454q-29 0 -45 -23q-13 -18 -17 -56t-4 -116t4 -116t17 -56
q16 -23 45 -23q30 0 46 23q13 18 16.5 55t3.5 117t-3.5 117t-16.5 55q-16 23 -46 23zM302 665v-57h-229v57h229z" />
    <glyph glyph-name="uni1E54" unicode="&#x1e54;" horiz-adv-x="435" 
d="M64 712h160q85 0 127 -47t42 -161q0 -112 -42.5 -159.5t-126.5 -47.5h-74v-297h-86v712zM221 635h-71v-261h71q44 0 65 30t21 100q0 71 -21 101t-65 30zM320 897l-81 -135h-62l69 135h74z" />
    <glyph glyph-name="uni1E55" unicode="&#x1e55;" horiz-adv-x="388" 
d="M309 488q24 -28 31 -78t7 -151q0 -102 -7 -151.5t-31 -77.5q-32 -38 -86 -38q-33 0 -56 16q-18 12 -29 28v-230h-81v712h79v-40q9 17 31 32q26 16 56 16q52 0 86 -38zM158 437q-20 -20 -20 -60v-237q0 -39 20 -59q17 -17 42 -17q27 0 44 22q14 16 18 52t4 121t-4 121
t-18 52q-17 22 -44 22q-25 0 -42 -17zM303 721l-81 -135h-61l68 135h74z" />
    <glyph glyph-name="uni1E56" unicode="&#x1e56;" horiz-adv-x="435" 
d="M64 712h160q85 0 127 -47t42 -161q0 -112 -42.5 -159.5t-126.5 -47.5h-74v-297h-86v712zM221 635h-71v-261h71q44 0 65 30t21 100q0 71 -21 101t-65 30zM255 858v-81h-82v81h82z" />
    <glyph glyph-name="uni1E57" unicode="&#x1e57;" horiz-adv-x="388" 
d="M309 488q24 -28 31 -78t7 -151q0 -102 -7 -151.5t-31 -77.5q-32 -38 -86 -38q-33 0 -56 16q-18 12 -29 28v-230h-81v712h79v-40q9 17 31 32q26 16 56 16q52 0 86 -38zM158 437q-20 -20 -20 -60v-237q0 -39 20 -59q17 -17 42 -17q27 0 44 22q14 16 18 52t4 121t-4 121
t-18 52q-17 22 -44 22q-25 0 -42 -17zM241 684v-82h-81v82h81z" />
    <glyph glyph-name="uni1E58" unicode="&#x1e58;" horiz-adv-x="455" 
d="M64 712h161q85 0 126.5 -45.5t41.5 -157.5q0 -75 -20 -120t-66 -66l109 -323h-91l-98 306h-77v-306h-86v712zM226 635h-76v-253h76q46 0 63.5 32t17.5 95t-17.5 94.5t-63.5 31.5zM255 858v-81h-82v81h82z" />
    <glyph glyph-name="uni1E59" unicode="&#x1e59;" horiz-adv-x="272" 
d="M256 526v-78h-24q-42 0 -68 -25.5t-26 -69.5v-353h-81v518h78v-55q11 20 36 37q37 26 85 26zM183 684v-82h-81v82h81z" />
    <glyph glyph-name="uni1E5A" unicode="&#x1e5a;" horiz-adv-x="455" 
d="M64 712h161q85 0 126.5 -45.5t41.5 -157.5q0 -75 -20 -120t-66 -66l109 -323h-91l-98 306h-77v-306h-86v712zM226 635h-76v-253h76q46 0 63.5 32t17.5 95t-17.5 94.5t-63.5 31.5zM274 -60v-82h-81v82h81z" />
    <glyph glyph-name="uni1E5B" unicode="&#x1e5b;" horiz-adv-x="272" 
d="M256 526v-78h-24q-42 0 -68 -25.5t-26 -69.5v-353h-81v518h78v-55q11 20 36 37q37 26 85 26zM139 -60v-82h-81v82h81z" />
    <glyph glyph-name="uni1E5C" unicode="&#x1e5c;" horiz-adv-x="455" 
d="M328 838v-58h-228v58h228zM64 712h161q85 0 126.5 -45.5t41.5 -157.5q0 -75 -20 -120t-66 -66l109 -323h-91l-98 306h-77v-306h-86v712zM226 635h-76v-253h76q46 0 63.5 32t17.5 95t-17.5 94.5t-63.5 31.5zM274 -60v-82h-81v82h81z" />
    <glyph glyph-name="uni1E5D" unicode="&#x1e5d;" horiz-adv-x="272" 
d="M257 665v-57h-229v57h229zM256 526v-78h-24q-42 0 -68 -25.5t-26 -69.5v-353h-81v518h78v-55q11 20 36 37q37 26 85 26zM139 -60v-82h-81v82h81z" />
    <glyph glyph-name="uni1E5E" unicode="&#x1e5e;" horiz-adv-x="455" 
d="M64 712h161q85 0 126.5 -45.5t41.5 -157.5q0 -75 -20 -120t-66 -66l109 -323h-91l-98 306h-77v-306h-86v712zM226 635h-76v-253h76q46 0 63.5 32t17.5 95t-17.5 94.5t-63.5 31.5zM348 -73v-57h-228v57h228z" />
    <glyph glyph-name="uni1E5F" unicode="&#x1e5f;" horiz-adv-x="272" 
d="M256 526v-78h-24q-42 0 -68 -25.5t-26 -69.5v-353h-81v518h78v-55q11 20 36 37q37 26 85 26zM257 -73v-57h-229v57h229z" />
    <glyph glyph-name="uni1E60" unicode="&#x1e60;" horiz-adv-x="420" 
d="M210 718q75 0 118 -41q47 -46 47 -146h-86q0 59 -22 86q-19 24 -58 24q-35 0 -55 -22q-25 -28 -25 -85q0 -53 13 -75t55 -40l80 -33q59 -24 79.5 -66t20.5 -129q0 -111 -44 -155q-45 -43 -126 -43q-82 0 -125 43q-24 24 -34 58t-10 92h86q0 -68 24 -93q20 -22 59 -22
q40 0 61 23q23 25 23 95q0 62 -13.5 87.5t-56.5 43.5l-81 33q-55 23 -76 60.5t-21 117.5q0 97 54 146q44 41 113 41zM255 858v-81h-82v81h82z" />
    <glyph glyph-name="uni1E61" unicode="&#x1e61;" horiz-adv-x="359" 
d="M179 526q64 0 101 -37q42 -40 42 -114h-80q0 42 -19 62q-17 18 -44 18q-28 0 -45 -17q-19 -19 -19 -50q0 -22 9 -38q11 -19 43 -34l66 -33q52 -25 73 -59q22 -33 22 -83q0 -64 -44 -108q-40 -41 -106 -41t-104 40q-44 45 -44 114h80q0 -40 22 -63q18 -18 46 -18
q30 0 49 19q20 20 20 52q0 27 -13 47t-46 37l-67 34q-50 25 -71 60q-16 28 -16 68q0 62 43 105q39 39 102 39zM223 684v-82h-81v82h81z" />
    <glyph glyph-name="uni1E62" unicode="&#x1e62;" horiz-adv-x="420" 
d="M210 718q75 0 118 -41q47 -46 47 -146h-86q0 59 -22 86q-19 24 -58 24q-35 0 -55 -22q-25 -28 -25 -85q0 -53 13 -75t55 -40l80 -33q59 -24 79.5 -66t20.5 -129q0 -111 -44 -155q-45 -43 -126 -43q-82 0 -125 43q-24 24 -34 58t-10 92h86q0 -68 24 -93q20 -22 59 -22
q40 0 61 23q23 25 23 95q0 62 -13.5 87.5t-56.5 43.5l-81 33q-55 23 -76 60.5t-21 117.5q0 97 54 146q44 41 113 41zM254 -60v-82h-81v82h81z" />
    <glyph glyph-name="uni1E63" unicode="&#x1e63;" horiz-adv-x="359" 
d="M179 526q64 0 101 -37q42 -40 42 -114h-80q0 42 -19 62q-17 18 -44 18q-28 0 -45 -17q-19 -19 -19 -50q0 -22 9 -38q11 -19 43 -34l66 -33q52 -25 73 -59q22 -33 22 -83q0 -64 -44 -108q-40 -41 -106 -41t-104 40q-44 45 -44 114h80q0 -40 22 -63q18 -18 46 -18
q30 0 49 19q20 20 20 52q0 27 -13 47t-46 37l-67 34q-50 25 -71 60q-16 28 -16 68q0 62 43 105q39 39 102 39zM224 -60v-82h-81v82h81z" />
    <glyph glyph-name="uni1E64" unicode="&#x1e64;" horiz-adv-x="420" 
d="M160 896v-81h-82v81h82zM210 718q75 0 118 -41q47 -46 47 -146h-86q0 59 -22 86q-19 24 -58 24q-35 0 -55 -22q-25 -28 -25 -85q0 -53 13 -75t55 -40l80 -33q59 -24 79.5 -66t20.5 -129q0 -111 -44 -155q-45 -43 -126 -43q-82 0 -125 43q-24 24 -34 58t-10 92h86
q0 -68 24 -93q20 -22 59 -22q40 0 61 23q23 25 23 95q0 62 -13.5 87.5t-56.5 43.5l-81 33q-55 23 -76 60.5t-21 117.5q0 97 54 146q44 41 113 41zM320 897l-81 -135h-62l69 135h74z" />
    <glyph glyph-name="uni1E65" unicode="&#x1e65;" horiz-adv-x="359" 
d="M125 721v-82h-81v82h81zM179 526q64 0 101 -37q42 -40 42 -114h-80q0 42 -19 62q-17 18 -44 18q-28 0 -45 -17q-19 -19 -19 -50q0 -22 9 -38q11 -19 43 -34l66 -33q52 -25 73 -59q22 -33 22 -83q0 -64 -44 -108q-40 -41 -106 -41t-104 40q-44 45 -44 114h80q0 -40 22 -63
q18 -18 46 -18q30 0 49 19q20 20 20 52q0 27 -13 47t-46 37l-67 34q-50 25 -71 60q-16 28 -16 68q0 62 43 105q39 39 102 39zM285 721l-81 -135h-61l68 135h74z" />
    <glyph glyph-name="uni1E66" unicode="&#x1e66;" horiz-adv-x="420" 
d="M255 995v-81h-82v81h82zM210 718q75 0 118 -41q47 -46 47 -146h-86q0 59 -22 86q-19 24 -58 24q-35 0 -55 -22q-25 -28 -25 -85q0 -53 13 -75t55 -40l80 -33q59 -24 79.5 -66t20.5 -129q0 -111 -44 -155q-45 -43 -126 -43q-82 0 -125 43q-24 24 -34 58t-10 92h86
q0 -68 24 -93q20 -22 59 -22q40 0 61 23q23 25 23 95q0 62 -13.5 87.5t-56.5 43.5l-81 33q-55 23 -76 60.5t-21 117.5q0 97 54 146q44 41 113 41zM340 892l-93 -135h-67l-93 135h67l59 -87l60 87h67z" />
    </font>
</defs>
</svg>
